<svg width="199" height="28" viewBox="0 0 199 28" fill="none" xmlns="http://www.w3.org/2000/svg">
<circle cx="9" cy="14" r="9" fill="#5EC269"/>
<path d="M13.2304 11.1156C13.4209 11.285 13.4381 11.5767 13.2688 11.7672L8.34568 17.3057C8.25809 17.4042 8.13255 17.4606 8.00072 17.4606C7.86889 17.4606 7.74335 17.4042 7.65576 17.3057L5.19422 14.5364C5.02488 14.3459 5.04204 14.0542 5.23255 13.8848C5.42307 13.7155 5.71479 13.7327 5.88414 13.9232L8.00072 16.3043L12.5788 11.1539C12.7482 10.9634 13.0399 10.9463 13.2304 11.1156Z" fill="white"/>
<path d="M31.8692 16.3636H33.4146L34.7101 18.0682L35.051 18.5227L36.9828 21.0909H35.4374L34.1646 19.3864L33.8464 18.9545L31.8692 16.3636ZM37.4601 14.1818C37.4601 15.4091 37.2385 16.4697 36.7953 17.3636C36.3521 18.2576 35.7442 18.947 34.9714 19.4318C34.1987 19.9167 33.3161 20.1591 32.3237 20.1591C31.3313 20.1591 30.4487 19.9167 29.676 19.4318C28.9033 18.947 28.2953 18.2576 27.8521 17.3636C27.4089 16.4697 27.1874 15.4091 27.1874 14.1818C27.1874 12.9545 27.4089 11.8939 27.8521 11C28.2953 10.1061 28.9033 9.41667 29.676 8.93182C30.4487 8.44697 31.3313 8.20455 32.3237 8.20455C33.3161 8.20455 34.1987 8.44697 34.9714 8.93182C35.7442 9.41667 36.3521 10.1061 36.7953 11C37.2385 11.8939 37.4601 12.9545 37.4601 14.1818ZM36.0964 14.1818C36.0964 13.1742 35.9279 12.3239 35.5908 11.6307C35.2574 10.9375 34.8048 10.4129 34.2328 10.0568C33.6646 9.70076 33.0283 9.52273 32.3237 9.52273C31.6192 9.52273 30.9809 9.70076 30.4089 10.0568C29.8408 10.4129 29.3881 10.9375 29.051 11.6307C28.7177 12.3239 28.551 13.1742 28.551 14.1818C28.551 15.1894 28.7177 16.0398 29.051 16.733C29.3881 17.4261 29.8408 17.9508 30.4089 18.3068C30.9809 18.6629 31.6192 18.8409 32.3237 18.8409C33.0283 18.8409 33.6646 18.6629 34.2328 18.3068C34.8048 17.9508 35.2574 17.4261 35.5908 16.733C35.9279 16.0398 36.0964 15.1894 36.0964 14.1818ZM44.9876 16.4318V11.2727H46.3285V20H44.9876V18.5227H44.8967C44.6921 18.9659 44.3739 19.3428 43.9421 19.6534C43.5103 19.9602 42.9649 20.1136 42.3058 20.1136C41.7603 20.1136 41.2755 19.9943 40.8512 19.7557C40.427 19.5133 40.0936 19.1496 39.8512 18.6648C39.6088 18.1761 39.4876 17.5606 39.4876 16.8182V11.2727H40.8285V16.7273C40.8285 17.3636 41.0065 17.8712 41.3626 18.25C41.7224 18.6288 42.1808 18.8182 42.7376 18.8182C43.0709 18.8182 43.4099 18.733 43.7546 18.5625C44.1031 18.392 44.3948 18.1307 44.6296 17.7784C44.8683 17.4261 44.9876 16.9773 44.9876 16.4318ZM48.6245 20V11.2727H49.9654V20H48.6245ZM49.3063 9.81818C49.0449 9.81818 48.8195 9.72917 48.6301 9.55114C48.4445 9.37311 48.3517 9.15909 48.3517 8.90909C48.3517 8.65909 48.4445 8.44508 48.6301 8.26705C48.8195 8.08902 49.0449 8 49.3063 8C49.5676 8 49.7911 8.08902 49.9767 8.26705C50.1661 8.44508 50.2608 8.65909 50.2608 8.90909C50.2608 9.15909 50.1661 9.37311 49.9767 9.55114C49.7911 9.72917 49.5676 9.81818 49.3063 9.81818ZM55.8068 20.1818C54.9886 20.1818 54.2841 19.9886 53.6932 19.6023C53.1022 19.2159 52.6477 18.6837 52.3295 18.0057C52.0113 17.3277 51.8522 16.553 51.8522 15.6818C51.8522 14.7955 52.0151 14.0133 52.3409 13.3352C52.6704 12.6534 53.1288 12.1212 53.7159 11.7386C54.3068 11.3523 54.9962 11.1591 55.7841 11.1591C56.3977 11.1591 56.9507 11.2727 57.4432 11.5C57.9356 11.7273 58.339 12.0455 58.6534 12.4545C58.9678 12.8636 59.1628 13.3409 59.2386 13.8864H57.8977C57.7954 13.4886 57.5682 13.1364 57.2159 12.8295C56.8674 12.5189 56.3977 12.3636 55.8068 12.3636C55.2841 12.3636 54.8257 12.5 54.4318 12.7727C54.0416 13.0417 53.7367 13.4223 53.517 13.9148C53.3011 14.4034 53.1932 14.9773 53.1932 15.6364C53.1932 16.3106 53.2992 16.8977 53.5113 17.3977C53.7272 17.8977 54.0303 18.286 54.4204 18.5625C54.8144 18.839 55.2765 18.9773 55.8068 18.9773C56.1553 18.9773 56.4716 18.9167 56.7557 18.7955C57.0397 18.6742 57.2803 18.5 57.4772 18.2727C57.6742 18.0455 57.8144 17.7727 57.8977 17.4545H59.2386C59.1628 17.9697 58.9753 18.4337 58.6761 18.8466C58.3807 19.2557 57.9886 19.5814 57.5 19.8239C57.0151 20.0625 56.4507 20.1818 55.8068 20.1818ZM62.2888 16.8182L62.2661 15.1591H62.5388L66.357 11.2727H68.0161L63.9479 15.3864H63.8343L62.2888 16.8182ZM61.0388 20V8.36364H62.3797V20H61.0388ZM66.5843 20L63.1752 15.6818L64.1297 14.75L68.2888 20H66.5843ZM73.4674 9.61364V8.36364H82.1947V9.61364H78.5356V20H77.1265V9.61364H73.4674ZM88.3401 16.4318V11.2727H89.681V20H88.3401V18.5227H88.2492C88.0446 18.9659 87.7264 19.3428 87.2946 19.6534C86.8628 19.9602 86.3174 20.1136 85.6583 20.1136C85.1128 20.1136 84.628 19.9943 84.2037 19.7557C83.7795 19.5133 83.4461 19.1496 83.2037 18.6648C82.9613 18.1761 82.8401 17.5606 82.8401 16.8182V11.2727H84.181V16.7273C84.181 17.3636 84.359 17.8712 84.7151 18.25C85.0749 18.6288 85.5333 18.8182 86.0901 18.8182C86.4234 18.8182 86.7624 18.733 87.1071 18.5625C87.4556 18.392 87.7473 18.1307 87.9821 17.7784C88.2208 17.4261 88.3401 16.9773 88.3401 16.4318ZM91.977 20V11.2727H93.2724V12.5909H93.3633C93.5224 12.1591 93.8103 11.8087 94.227 11.5398C94.6436 11.2708 95.1133 11.1364 95.6361 11.1364C95.7345 11.1364 95.8576 11.1383 96.0054 11.142C96.1531 11.1458 96.2648 11.1515 96.3406 11.1591V12.5227C96.2951 12.5114 96.191 12.4943 96.0281 12.4716C95.869 12.4451 95.7004 12.4318 95.5224 12.4318C95.0982 12.4318 94.7194 12.5208 94.3861 12.6989C94.0565 12.8731 93.7951 13.1155 93.602 13.4261C93.4126 13.733 93.3179 14.0833 93.3179 14.4773V20H91.977ZM99.111 14.75V20H97.7701V11.2727H99.0655V12.6364H99.1792C99.3837 12.1932 99.6943 11.8371 100.111 11.5682C100.528 11.2955 101.066 11.1591 101.725 11.1591C102.316 11.1591 102.833 11.2803 103.276 11.5227C103.719 11.7614 104.064 12.125 104.31 12.6136C104.556 13.0985 104.679 13.7121 104.679 14.4545V20H103.338V14.5455C103.338 13.8598 103.16 13.3258 102.804 12.9432C102.448 12.5568 101.959 12.3636 101.338 12.3636C100.91 12.3636 100.528 12.4564 100.191 12.642C99.8572 12.8277 99.5939 13.0985 99.4008 13.4545C99.2076 13.8106 99.111 14.2424 99.111 14.75ZM109.538 20.2045C108.985 20.2045 108.483 20.1004 108.032 19.892C107.581 19.6799 107.223 19.375 106.958 18.9773C106.693 18.5758 106.56 18.0909 106.56 17.5227C106.56 17.0227 106.659 16.6174 106.856 16.3068C107.053 15.9924 107.316 15.7462 107.646 15.5682C107.975 15.3902 108.339 15.2576 108.737 15.1705C109.138 15.0795 109.541 15.0076 109.947 14.9545C110.477 14.8864 110.907 14.8352 111.237 14.8011C111.57 14.7633 111.812 14.7008 111.964 14.6136C112.119 14.5265 112.197 14.375 112.197 14.1591V14.1136C112.197 13.553 112.043 13.1174 111.737 12.8068C111.433 12.4962 110.973 12.3409 110.356 12.3409C109.716 12.3409 109.214 12.4811 108.85 12.7614C108.487 13.0417 108.231 13.3409 108.083 13.6591L106.81 13.2045C107.038 12.6742 107.341 12.2614 107.719 11.9659C108.102 11.6667 108.519 11.4583 108.969 11.3409C109.424 11.2197 109.871 11.1591 110.31 11.1591C110.591 11.1591 110.913 11.1932 111.276 11.2614C111.644 11.3258 111.998 11.4602 112.339 11.6648C112.683 11.8693 112.969 12.178 113.197 12.5909C113.424 13.0038 113.538 13.5568 113.538 14.25V20H112.197V18.8182H112.129C112.038 19.0076 111.886 19.2102 111.674 19.4261C111.462 19.642 111.18 19.8258 110.827 19.9773C110.475 20.1288 110.045 20.2045 109.538 20.2045ZM109.742 19C110.272 19 110.719 18.8958 111.083 18.6875C111.451 18.4792 111.727 18.2102 111.913 17.8807C112.102 17.5511 112.197 17.2045 112.197 16.8409V15.6136C112.14 15.6818 112.015 15.7443 111.822 15.8011C111.632 15.8542 111.413 15.9015 111.163 15.9432C110.916 15.9811 110.676 16.0152 110.441 16.0455C110.21 16.072 110.022 16.0947 109.879 16.1136C109.53 16.1591 109.204 16.233 108.901 16.3352C108.602 16.4337 108.36 16.5833 108.174 16.7841C107.992 16.9811 107.901 17.25 107.901 17.5909C107.901 18.0568 108.074 18.4091 108.418 18.6477C108.767 18.8826 109.208 19 109.742 19ZM115.825 20V11.2727H117.121V12.5909H117.211C117.371 12.1591 117.658 11.8087 118.075 11.5398C118.492 11.2708 118.961 11.1364 119.484 11.1364C119.583 11.1364 119.706 11.1383 119.853 11.142C120.001 11.1458 120.113 11.1515 120.189 11.1591V12.5227C120.143 12.5114 120.039 12.4943 119.876 12.4716C119.717 12.4451 119.549 12.4318 119.371 12.4318C118.946 12.4318 118.568 12.5208 118.234 12.6989C117.905 12.8731 117.643 13.1155 117.45 13.4261C117.261 13.733 117.166 14.0833 117.166 14.4773V20H115.825ZM124.898 20.1818C124.11 20.1818 123.419 19.9943 122.824 19.6193C122.233 19.2443 121.771 18.7197 121.438 18.0455C121.108 17.3712 120.943 16.5833 120.943 15.6818C120.943 14.7727 121.108 13.9792 121.438 13.3011C121.771 12.6231 122.233 12.0966 122.824 11.7216C123.419 11.3466 124.11 11.1591 124.898 11.1591C125.686 11.1591 126.375 11.3466 126.966 11.7216C127.561 12.0966 128.023 12.6231 128.353 13.3011C128.686 13.9792 128.853 14.7727 128.853 15.6818C128.853 16.5833 128.686 17.3712 128.353 18.0455C128.023 18.7197 127.561 19.2443 126.966 19.6193C126.375 19.9943 125.686 20.1818 124.898 20.1818ZM124.898 18.9773C125.497 18.9773 125.989 18.8239 126.375 18.517C126.762 18.2102 127.048 17.8068 127.233 17.3068C127.419 16.8068 127.512 16.2652 127.512 15.6818C127.512 15.0985 127.419 14.5549 127.233 14.0511C127.048 13.5473 126.762 13.1402 126.375 12.8295C125.989 12.5189 125.497 12.3636 124.898 12.3636C124.3 12.3636 123.807 12.5189 123.421 12.8295C123.034 13.1402 122.748 13.5473 122.563 14.0511C122.377 14.5549 122.284 15.0985 122.284 15.6818C122.284 16.2652 122.377 16.8068 122.563 17.3068C122.748 17.8068 123.034 18.2102 123.421 18.517C123.807 18.8239 124.3 18.9773 124.898 18.9773ZM136.239 16.4318V11.2727H137.58V20H136.239V18.5227H136.149C135.944 18.9659 135.626 19.3428 135.194 19.6534C134.762 19.9602 134.217 20.1136 133.558 20.1136C133.012 20.1136 132.527 19.9943 132.103 19.7557C131.679 19.5133 131.346 19.1496 131.103 18.6648C130.861 18.1761 130.739 17.5606 130.739 16.8182V11.2727H132.08V16.7273C132.08 17.3636 132.258 17.8712 132.614 18.25C132.974 18.6288 133.433 18.8182 133.989 18.8182C134.323 18.8182 134.662 18.733 135.007 18.5625C135.355 18.392 135.647 18.1307 135.882 17.7784C136.12 17.4261 136.239 16.9773 136.239 16.4318ZM141.217 14.75V20H139.876V11.2727H141.172V12.6364H141.285C141.49 12.1932 141.801 11.8371 142.217 11.5682C142.634 11.2955 143.172 11.1591 143.831 11.1591C144.422 11.1591 144.939 11.2803 145.382 11.5227C145.825 11.7614 146.17 12.125 146.416 12.6136C146.662 13.0985 146.785 13.7121 146.785 14.4545V20H145.445V14.5455C145.445 13.8598 145.266 13.3258 144.91 12.9432C144.554 12.5568 144.066 12.3636 143.445 12.3636C143.016 12.3636 142.634 12.4564 142.297 12.642C141.963 12.8277 141.7 13.0985 141.507 13.4545C141.314 13.8106 141.217 14.2424 141.217 14.75ZM152.371 20.1818C151.644 20.1818 151.002 19.9981 150.445 19.6307C149.888 19.2595 149.453 18.7367 149.138 18.0625C148.824 17.3845 148.667 16.5833 148.667 15.6591C148.667 14.7424 148.824 13.947 149.138 13.2727C149.453 12.5985 149.89 12.0777 150.451 11.7102C151.011 11.3428 151.659 11.1591 152.394 11.1591C152.962 11.1591 153.411 11.2538 153.74 11.4432C154.074 11.6288 154.328 11.8409 154.502 12.0795C154.68 12.3144 154.818 12.5076 154.917 12.6591H155.03V8.36364H156.371V20H155.076V18.6591H154.917C154.818 18.8182 154.678 19.0189 154.496 19.2614C154.314 19.5 154.055 19.714 153.718 19.9034C153.381 20.089 152.932 20.1818 152.371 20.1818ZM152.553 18.9773C153.091 18.9773 153.545 18.8371 153.917 18.5568C154.288 18.2727 154.57 17.8807 154.763 17.3807C154.956 16.8769 155.053 16.2955 155.053 15.6364C155.053 14.9848 154.958 14.4148 154.769 13.9261C154.579 13.4337 154.299 13.0511 153.928 12.7784C153.557 12.5019 153.098 12.3636 152.553 12.3636C151.985 12.3636 151.511 12.5095 151.133 12.8011C150.758 13.089 150.475 13.4811 150.286 13.9773C150.1 14.4697 150.008 15.0227 150.008 15.6364C150.008 16.2576 150.102 16.822 150.292 17.3295C150.485 17.8333 150.769 18.2348 151.144 18.5341C151.523 18.8295 151.992 18.9773 152.553 18.9773ZM162.739 9.61364V8.36364H171.466V9.61364H167.807V20H166.398V9.61364H162.739ZM173.299 20V11.2727H174.64V20H173.299ZM173.981 9.81818C173.719 9.81818 173.494 9.72917 173.305 9.55114C173.119 9.37311 173.026 9.15909 173.026 8.90909C173.026 8.65909 173.119 8.44508 173.305 8.26705C173.494 8.08902 173.719 8 173.981 8C174.242 8 174.466 8.08902 174.651 8.26705C174.841 8.44508 174.935 8.65909 174.935 8.90909C174.935 9.15909 174.841 9.37311 174.651 9.55114C174.466 9.72917 174.242 9.81818 173.981 9.81818ZM176.936 20V11.2727H178.231V12.6364H178.345C178.527 12.1705 178.82 11.8087 179.225 11.5511C179.631 11.2898 180.118 11.1591 180.686 11.1591C181.261 11.1591 181.741 11.2898 182.123 11.5511C182.51 11.8087 182.811 12.1705 183.027 12.6364H183.118C183.341 12.1856 183.676 11.8277 184.123 11.5625C184.57 11.2936 185.106 11.1591 185.731 11.1591C186.511 11.1591 187.15 11.4034 187.646 11.892C188.142 12.3769 188.39 13.1326 188.39 14.1591V20H187.049V14.1591C187.049 13.5152 186.873 13.0549 186.521 12.7784C186.169 12.5019 185.754 12.3636 185.277 12.3636C184.663 12.3636 184.188 12.5492 183.85 12.9205C183.513 13.2879 183.345 13.7538 183.345 14.3182V20H181.981V14.0227C181.981 13.5265 181.82 13.1269 181.498 12.8239C181.176 12.517 180.761 12.3636 180.254 12.3636C179.905 12.3636 179.58 12.4564 179.277 12.642C178.977 12.8277 178.735 13.0852 178.549 13.4148C178.368 13.7405 178.277 14.1174 178.277 14.5455V20H176.936ZM194.341 20.1818C193.5 20.1818 192.775 19.9962 192.165 19.625C191.559 19.25 191.091 18.7273 190.761 18.0568C190.436 17.3826 190.273 16.5985 190.273 15.7045C190.273 14.8106 190.436 14.0227 190.761 13.3409C191.091 12.6553 191.549 12.1212 192.136 11.7386C192.727 11.3523 193.417 11.1591 194.205 11.1591C194.659 11.1591 195.108 11.2348 195.551 11.3864C195.994 11.5379 196.398 11.7841 196.761 12.125C197.125 12.4621 197.415 12.9091 197.631 13.4659C197.847 14.0227 197.955 14.7083 197.955 15.5227V16.0909H191.227V14.9318H196.591C196.591 14.4394 196.493 14 196.296 13.6136C196.102 13.2273 195.826 12.9223 195.466 12.6989C195.11 12.4754 194.69 12.3636 194.205 12.3636C193.671 12.3636 193.208 12.4962 192.818 12.7614C192.432 13.0227 192.135 13.3636 191.926 13.7841C191.718 14.2045 191.614 14.6553 191.614 15.1364V15.9091C191.614 16.5682 191.727 17.1269 191.955 17.5852C192.186 18.0398 192.506 18.3864 192.915 18.625C193.324 18.8598 193.799 18.9773 194.341 18.9773C194.693 18.9773 195.011 18.928 195.296 18.8295C195.583 18.7273 195.832 18.5758 196.04 18.375C196.248 18.1705 196.409 17.9167 196.523 17.6136L197.818 17.9773C197.682 18.4167 197.453 18.803 197.131 19.1364C196.809 19.4659 196.411 19.7235 195.938 19.9091C195.464 20.0909 194.932 20.1818 194.341 20.1818Z" fill="#757575"/>
</svg>
