<svg width="195" height="28" viewBox="0 0 195 28" fill="none" xmlns="http://www.w3.org/2000/svg">
<circle cx="9" cy="14" r="9" fill="#5EC269"/>
<path d="M13.2304 11.1156C13.4209 11.285 13.4381 11.5767 13.2688 11.7672L8.34568 17.3057C8.25809 17.4042 8.13255 17.4606 8.00072 17.4606C7.86889 17.4606 7.74335 17.4042 7.65576 17.3057L5.19422 14.5364C5.02488 14.3459 5.04204 14.0542 5.23255 13.8848C5.42307 13.7155 5.71479 13.7327 5.88414 13.9232L8.00072 16.3043L12.5788 11.1539C12.7482 10.9634 13.0399 10.9463 13.2304 11.1156Z" fill="white"/>
<path d="M27.2243 9.61364V8.36364H35.9516V9.61364H32.2925V20H30.8834V9.61364H27.2243ZM36.8782 20V11.2727H38.1737V12.5909H38.2646C38.4237 12.1591 38.7115 11.8087 39.1282 11.5398C39.5449 11.2708 40.0146 11.1364 40.5373 11.1364C40.6358 11.1364 40.7589 11.1383 40.9066 11.142C41.0543 11.1458 41.1661 11.1515 41.2418 11.1591V12.5227C41.1964 12.5114 41.0922 12.4943 40.9293 12.4716C40.7703 12.4451 40.6017 12.4318 40.4237 12.4318C39.9994 12.4318 39.6206 12.5208 39.2873 12.6989C38.9578 12.8731 38.6964 13.1155 38.5032 13.4261C38.3138 13.733 38.2191 14.0833 38.2191 14.4773V20H36.8782ZM48.1713 16.4318V11.2727H49.5122V20H48.1713V18.5227H48.0804C47.8759 18.9659 47.5577 19.3428 47.1259 19.6534C46.6941 19.9602 46.1486 20.1136 45.4895 20.1136C44.9441 20.1136 44.4592 19.9943 44.035 19.7557C43.6107 19.5133 43.2774 19.1496 43.035 18.6648C42.7925 18.1761 42.6713 17.5606 42.6713 16.8182V11.2727H44.0122V16.7273C44.0122 17.3636 44.1903 17.8712 44.5463 18.25C44.9062 18.6288 45.3645 18.8182 45.9213 18.8182C46.2547 18.8182 46.5937 18.733 46.9384 18.5625C47.2869 18.392 47.5785 18.1307 47.8134 17.7784C48.052 17.4261 48.1713 16.9773 48.1713 16.4318ZM57.99 13.2273L56.7855 13.5682C56.7097 13.3674 56.598 13.1723 56.4503 12.983C56.3063 12.7898 56.1093 12.6307 55.8593 12.5057C55.6093 12.3807 55.2893 12.3182 54.8991 12.3182C54.365 12.3182 53.92 12.4413 53.5639 12.6875C53.2116 12.9299 53.0355 13.2386 53.0355 13.6136C53.0355 13.947 53.1567 14.2102 53.3991 14.4034C53.6415 14.5966 54.0203 14.7576 54.5355 14.8864L55.8309 15.2045C56.6112 15.3939 57.1927 15.6837 57.5753 16.0739C57.9578 16.4602 58.1491 16.9583 58.1491 17.5682C58.1491 18.0682 58.0052 18.5152 57.7173 18.9091C57.4332 19.303 57.0355 19.6136 56.5241 19.8409C56.0128 20.0682 55.4181 20.1818 54.74 20.1818C53.8499 20.1818 53.1131 19.9886 52.5298 19.6023C51.9465 19.2159 51.5771 18.6515 51.4218 17.9091L52.6946 17.5909C52.8158 18.0606 53.045 18.4129 53.3821 18.6477C53.723 18.8826 54.1681 19 54.7173 19C55.3423 19 55.8385 18.8674 56.2059 18.6023C56.5771 18.3333 56.7628 18.0114 56.7628 17.6364C56.7628 17.3333 56.6567 17.0795 56.4446 16.875C56.2325 16.6667 55.9067 16.5114 55.4673 16.4091L54.0128 16.0682C53.2135 15.8788 52.6264 15.5852 52.2514 15.1875C51.8802 14.786 51.6946 14.2841 51.6946 13.6818C51.6946 13.1894 51.8328 12.7538 52.1093 12.375C52.3896 11.9962 52.7703 11.6989 53.2514 11.483C53.7362 11.267 54.2855 11.1591 54.8991 11.1591C55.7628 11.1591 56.4408 11.3485 56.9332 11.7273C57.4294 12.1061 57.7817 12.6061 57.99 13.2273ZM63.803 11.2727V12.4091H59.2803V11.2727H63.803ZM60.5985 9.18182H61.9394V17.5C61.9394 17.8788 61.9943 18.1629 62.1042 18.3523C62.2178 18.5379 62.3618 18.6629 62.536 18.7273C62.714 18.7879 62.9015 18.8182 63.0985 18.8182C63.2462 18.8182 63.3674 18.8106 63.4621 18.7955C63.5568 18.7765 63.6326 18.7614 63.6894 18.75L63.9621 19.9545C63.8712 19.9886 63.7443 20.0227 63.5814 20.0568C63.4186 20.0947 63.2121 20.1136 62.9621 20.1136C62.5833 20.1136 62.2121 20.0322 61.8485 19.8693C61.4886 19.7064 61.1894 19.4583 60.9508 19.125C60.7159 18.7917 60.5985 18.3712 60.5985 17.8636V9.18182ZM69.2254 20.1818C68.3845 20.1818 67.6591 19.9962 67.0493 19.625C66.4432 19.25 65.9754 18.7273 65.6459 18.0568C65.3201 17.3826 65.1572 16.5985 65.1572 15.7045C65.1572 14.8106 65.3201 14.0227 65.6459 13.3409C65.9754 12.6553 66.4338 12.1212 67.0209 11.7386C67.6118 11.3523 68.3012 11.1591 69.0891 11.1591C69.5436 11.1591 69.9925 11.2348 70.4357 11.3864C70.8788 11.5379 71.2822 11.7841 71.6459 12.125C72.0095 12.4621 72.2993 12.9091 72.5152 13.4659C72.7311 14.0227 72.8391 14.7083 72.8391 15.5227V16.0909H66.1118V14.9318H71.4754C71.4754 14.4394 71.3769 14 71.18 13.6136C70.9868 13.2273 70.7103 12.9223 70.3504 12.6989C69.9944 12.4754 69.5739 12.3636 69.0891 12.3636C68.555 12.3636 68.0928 12.4962 67.7027 12.7614C67.3163 13.0227 67.019 13.3636 66.8107 13.7841C66.6023 14.2045 66.4982 14.6553 66.4982 15.1364V15.9091C66.4982 16.5682 66.6118 17.1269 66.8391 17.5852C67.0701 18.0398 67.3902 18.3864 67.7993 18.625C68.2084 18.8598 68.6838 18.9773 69.2254 18.9773C69.5777 18.9773 69.8959 18.928 70.18 18.8295C70.4678 18.7273 70.716 18.5758 70.9243 18.375C71.1326 18.1705 71.2936 17.9167 71.4072 17.6136L72.7027 17.9773C72.5663 18.4167 72.3372 18.803 72.0152 19.1364C71.6932 19.4659 71.2955 19.7235 70.822 19.9091C70.3485 20.0909 69.8163 20.1818 69.2254 20.1818ZM78.0143 20.1818C77.287 20.1818 76.645 19.9981 76.0882 19.6307C75.5313 19.2595 75.0957 18.7367 74.7813 18.0625C74.4669 17.3845 74.3097 16.5833 74.3097 15.6591C74.3097 14.7424 74.4669 13.947 74.7813 13.2727C75.0957 12.5985 75.5332 12.0777 76.0938 11.7102C76.6544 11.3428 77.3022 11.1591 78.037 11.1591C78.6052 11.1591 79.0541 11.2538 79.3836 11.4432C79.7169 11.6288 79.9707 11.8409 80.145 12.0795C80.323 12.3144 80.4613 12.5076 80.5597 12.6591H80.6734V8.36364H82.0143V20H80.7188V18.6591H80.5597C80.4613 18.8182 80.3211 19.0189 80.1393 19.2614C79.9575 19.5 79.698 19.714 79.3609 19.9034C79.0238 20.089 78.5749 20.1818 78.0143 20.1818ZM78.1961 18.9773C78.734 18.9773 79.1885 18.8371 79.5597 18.5568C79.931 18.2727 80.2132 17.8807 80.4063 17.3807C80.5995 16.8769 80.6961 16.2955 80.6961 15.6364C80.6961 14.9848 80.6014 14.4148 80.412 13.9261C80.2226 13.4337 79.9423 13.0511 79.5711 12.7784C79.1999 12.5019 78.7416 12.3636 78.1961 12.3636C77.6279 12.3636 77.1544 12.5095 76.7757 12.8011C76.4007 13.089 76.1185 13.4811 75.9291 13.9773C75.7435 14.4697 75.6507 15.0227 75.6507 15.6364C75.6507 16.2576 75.7453 16.822 75.9347 17.3295C76.1279 17.8333 76.412 18.2348 76.787 18.5341C77.1658 18.8295 77.6355 18.9773 78.1961 18.9773ZM89.0182 20V8.36364H90.3591V12.6591H90.4727C90.5712 12.5076 90.7075 12.3144 90.8818 12.0795C91.0598 11.8409 91.3136 11.6288 91.6432 11.4432C91.9765 11.2538 92.4272 11.1591 92.9954 11.1591C93.7303 11.1591 94.378 11.3428 94.9386 11.7102C95.4992 12.0777 95.9367 12.5985 96.2511 13.2727C96.5655 13.947 96.7227 14.7424 96.7227 15.6591C96.7227 16.5833 96.5655 17.3845 96.2511 18.0625C95.9367 18.7367 95.5011 19.2595 94.9443 19.6307C94.3875 19.9981 93.7454 20.1818 93.0182 20.1818C92.4575 20.1818 92.0087 20.089 91.6716 19.9034C91.3344 19.714 91.075 19.5 90.8932 19.2614C90.7113 19.0189 90.5712 18.8182 90.4727 18.6591H90.3136V20H89.0182ZM90.3363 15.6364C90.3363 16.2955 90.4329 16.8769 90.6261 17.3807C90.8193 17.8807 91.1015 18.2727 91.4727 18.5568C91.8439 18.8371 92.2985 18.9773 92.8363 18.9773C93.3969 18.9773 93.8647 18.8295 94.2397 18.5341C94.6185 18.2348 94.9026 17.8333 95.092 17.3295C95.2852 16.822 95.3818 16.2576 95.3818 15.6364C95.3818 15.0227 95.2871 14.4697 95.0977 13.9773C94.9121 13.4811 94.6299 13.089 94.2511 12.8011C93.8761 12.5095 93.4045 12.3636 92.8363 12.3636C92.2909 12.3636 91.8325 12.5019 91.4613 12.7784C91.0901 13.0511 90.8098 13.4337 90.6204 13.9261C90.431 14.4148 90.3363 14.9848 90.3363 15.6364ZM99.165 23.2727C98.9377 23.2727 98.735 23.2538 98.557 23.2159C98.379 23.1818 98.2559 23.1477 98.1877 23.1136L98.5286 21.9318C98.8544 22.0152 99.1422 22.0455 99.3922 22.0227C99.6422 22 99.8638 21.8883 100.057 21.6875C100.254 21.4905 100.434 21.1705 100.597 20.7273L100.847 20.0455L97.6195 11.2727H99.0741L101.483 18.2273H101.574L103.983 11.2727H105.438L101.733 21.2727C101.566 21.7235 101.36 22.0966 101.114 22.392C100.868 22.6913 100.582 22.9129 100.256 23.0568C99.9339 23.2008 99.5703 23.2727 99.165 23.2727ZM110.933 9.61364V8.36364H119.66V9.61364H116.001V20H114.592V9.61364H110.933ZM123.773 20.1818C122.985 20.1818 122.294 19.9943 121.699 19.6193C121.108 19.2443 120.646 18.7197 120.313 18.0455C119.983 17.3712 119.818 16.5833 119.818 15.6818C119.818 14.7727 119.983 13.9792 120.313 13.3011C120.646 12.6231 121.108 12.0966 121.699 11.7216C122.294 11.3466 122.985 11.1591 123.773 11.1591C124.561 11.1591 125.25 11.3466 125.841 11.7216C126.436 12.0966 126.898 12.6231 127.228 13.3011C127.561 13.9792 127.728 14.7727 127.728 15.6818C127.728 16.5833 127.561 17.3712 127.228 18.0455C126.898 18.7197 126.436 19.2443 125.841 19.6193C125.25 19.9943 124.561 20.1818 123.773 20.1818ZM123.773 18.9773C124.372 18.9773 124.864 18.8239 125.25 18.517C125.637 18.2102 125.923 17.8068 126.108 17.3068C126.294 16.8068 126.387 16.2652 126.387 15.6818C126.387 15.0985 126.294 14.5549 126.108 14.0511C125.923 13.5473 125.637 13.1402 125.25 12.8295C124.864 12.5189 124.372 12.3636 123.773 12.3636C123.175 12.3636 122.682 12.5189 122.296 12.8295C121.909 13.1402 121.623 13.5473 121.438 14.0511C121.252 14.5549 121.159 15.0985 121.159 15.6818C121.159 16.2652 121.252 16.8068 121.438 17.3068C121.623 17.8068 121.909 18.2102 122.296 18.517C122.682 18.8239 123.175 18.9773 123.773 18.9773ZM129.614 23.2727V11.2727H130.91V12.6591H131.069C131.167 12.5076 131.304 12.3144 131.478 12.0795C131.656 11.8409 131.91 11.6288 132.239 11.4432C132.573 11.2538 133.024 11.1591 133.592 11.1591C134.327 11.1591 134.974 11.3428 135.535 11.7102C136.096 12.0777 136.533 12.5985 136.847 13.2727C137.162 13.947 137.319 14.7424 137.319 15.6591C137.319 16.5833 137.162 17.3845 136.847 18.0625C136.533 18.7367 136.097 19.2595 135.541 19.6307C134.984 19.9981 134.342 20.1818 133.614 20.1818C133.054 20.1818 132.605 20.089 132.268 19.9034C131.931 19.714 131.671 19.5 131.489 19.2614C131.308 19.0189 131.167 18.8182 131.069 18.6591H130.955V23.2727H129.614ZM130.933 15.6364C130.933 16.2955 131.029 16.8769 131.222 17.3807C131.416 17.8807 131.698 18.2727 132.069 18.5568C132.44 18.8371 132.895 18.9773 133.433 18.9773C133.993 18.9773 134.461 18.8295 134.836 18.5341C135.215 18.2348 135.499 17.8333 135.688 17.3295C135.882 16.822 135.978 16.2576 135.978 15.6364C135.978 15.0227 135.883 14.4697 135.694 13.9773C135.508 13.4811 135.226 13.089 134.847 12.8011C134.472 12.5095 134.001 12.3636 133.433 12.3636C132.887 12.3636 132.429 12.5019 132.058 12.7784C131.686 13.0511 131.406 13.4337 131.217 13.9261C131.027 14.4148 130.933 14.9848 130.933 15.6364ZM143.726 20V8.36364H147.794C148.605 8.36364 149.274 8.50379 149.8 8.78409C150.327 9.06061 150.719 9.43371 150.976 9.90341C151.234 10.3693 151.363 10.8864 151.363 11.4545C151.363 11.9545 151.274 12.3674 151.096 12.6932C150.921 13.0189 150.69 13.2765 150.402 13.4659C150.118 13.6553 149.81 13.7955 149.476 13.8864V14C149.832 14.0227 150.19 14.1477 150.55 14.375C150.91 14.6023 151.211 14.928 151.454 15.3523C151.696 15.7765 151.817 16.2955 151.817 16.9091C151.817 17.4924 151.685 18.017 151.419 18.483C151.154 18.9489 150.736 19.3182 150.164 19.5909C149.592 19.8636 148.847 20 147.931 20H143.726ZM145.135 18.75H147.931C148.851 18.75 149.505 18.572 149.891 18.2159C150.281 17.8561 150.476 17.4205 150.476 16.9091C150.476 16.5152 150.376 16.1515 150.175 15.8182C149.974 15.4811 149.688 15.2121 149.317 15.0114C148.946 14.8068 148.507 14.7045 147.999 14.7045H145.135V18.75ZM145.135 13.4773H147.749C148.173 13.4773 148.556 13.3939 148.897 13.2273C149.241 13.0606 149.514 12.8258 149.715 12.5227C149.919 12.2197 150.022 11.8636 150.022 11.4545C150.022 10.9432 149.844 10.5095 149.488 10.1534C149.132 9.79356 148.567 9.61364 147.794 9.61364H145.135V13.4773ZM153.791 20V11.2727H155.086V12.5909H155.177C155.336 12.1591 155.624 11.8087 156.041 11.5398C156.457 11.2708 156.927 11.1364 157.45 11.1364C157.548 11.1364 157.671 11.1383 157.819 11.142C157.967 11.1458 158.079 11.1515 158.154 11.1591V12.5227C158.109 12.5114 158.005 12.4943 157.842 12.4716C157.683 12.4451 157.514 12.4318 157.336 12.4318C156.912 12.4318 156.533 12.5208 156.2 12.6989C155.87 12.8731 155.609 13.1155 155.416 13.4261C155.226 13.733 155.132 14.0833 155.132 14.4773V20H153.791ZM162.152 20.2045C161.599 20.2045 161.097 20.1004 160.646 19.892C160.196 19.6799 159.838 19.375 159.572 18.9773C159.307 18.5758 159.175 18.0909 159.175 17.5227C159.175 17.0227 159.273 16.6174 159.47 16.3068C159.667 15.9924 159.93 15.7462 160.26 15.5682C160.59 15.3902 160.953 15.2576 161.351 15.1705C161.752 15.0795 162.156 15.0076 162.561 14.9545C163.091 14.8864 163.521 14.8352 163.851 14.8011C164.184 14.7633 164.427 14.7008 164.578 14.6136C164.733 14.5265 164.811 14.375 164.811 14.1591V14.1136C164.811 13.553 164.658 13.1174 164.351 12.8068C164.048 12.4962 163.588 12.3409 162.97 12.3409C162.33 12.3409 161.828 12.4811 161.465 12.7614C161.101 13.0417 160.845 13.3409 160.697 13.6591L159.425 13.2045C159.652 12.6742 159.955 12.2614 160.334 11.9659C160.716 11.6667 161.133 11.4583 161.584 11.3409C162.038 11.2197 162.485 11.1591 162.925 11.1591C163.205 11.1591 163.527 11.1932 163.891 11.2614C164.258 11.3258 164.612 11.4602 164.953 11.6648C165.298 11.8693 165.584 12.178 165.811 12.5909C166.038 13.0038 166.152 13.5568 166.152 14.25V20H164.811V18.8182H164.743C164.652 19.0076 164.501 19.2102 164.288 19.4261C164.076 19.642 163.794 19.8258 163.442 19.9773C163.09 20.1288 162.66 20.2045 162.152 20.2045ZM162.357 19C162.887 19 163.334 18.8958 163.697 18.6875C164.065 18.4792 164.341 18.2102 164.527 17.8807C164.716 17.5511 164.811 17.2045 164.811 16.8409V15.6136C164.754 15.6818 164.629 15.7443 164.436 15.8011C164.247 15.8542 164.027 15.9015 163.777 15.9432C163.531 15.9811 163.29 16.0152 163.055 16.0455C162.824 16.072 162.637 16.0947 162.493 16.1136C162.144 16.1591 161.819 16.233 161.516 16.3352C161.216 16.4337 160.974 16.5833 160.788 16.7841C160.607 16.9811 160.516 17.25 160.516 17.5909C160.516 18.0568 160.688 18.4091 161.033 18.6477C161.381 18.8826 161.822 19 162.357 19ZM169.78 14.75V20H168.439V11.2727H169.735V12.6364H169.849C170.053 12.1932 170.364 11.8371 170.78 11.5682C171.197 11.2955 171.735 11.1591 172.394 11.1591C172.985 11.1591 173.502 11.2803 173.945 11.5227C174.388 11.7614 174.733 12.125 174.979 12.6136C175.225 13.0985 175.349 13.7121 175.349 14.4545V20H174.008V14.5455C174.008 13.8598 173.83 13.3258 173.474 12.9432C173.117 12.5568 172.629 12.3636 172.008 12.3636C171.58 12.3636 171.197 12.4564 170.86 12.642C170.527 12.8277 170.263 13.0985 170.07 13.4545C169.877 13.8106 169.78 14.2424 169.78 14.75ZM180.934 20.1818C180.207 20.1818 179.565 19.9981 179.008 19.6307C178.451 19.2595 178.016 18.7367 177.701 18.0625C177.387 17.3845 177.23 16.5833 177.23 15.6591C177.23 14.7424 177.387 13.947 177.701 13.2727C178.016 12.5985 178.453 12.0777 179.014 11.7102C179.574 11.3428 180.222 11.1591 180.957 11.1591C181.525 11.1591 181.974 11.2538 182.304 11.4432C182.637 11.6288 182.891 11.8409 183.065 12.0795C183.243 12.3144 183.381 12.5076 183.48 12.6591H183.593V8.36364H184.934V20H183.639V18.6591H183.48C183.381 18.8182 183.241 19.0189 183.059 19.2614C182.877 19.5 182.618 19.714 182.281 19.9034C181.944 20.089 181.495 20.1818 180.934 20.1818ZM181.116 18.9773C181.654 18.9773 182.109 18.8371 182.48 18.5568C182.851 18.2727 183.133 17.8807 183.326 17.3807C183.52 16.8769 183.616 16.2955 183.616 15.6364C183.616 14.9848 183.521 14.4148 183.332 13.9261C183.143 13.4337 182.862 13.0511 182.491 12.7784C182.12 12.5019 181.662 12.3636 181.116 12.3636C180.548 12.3636 180.074 12.5095 179.696 12.8011C179.321 13.089 179.038 13.4811 178.849 13.9773C178.663 14.4697 178.571 15.0227 178.571 15.6364C178.571 16.2576 178.665 16.822 178.855 17.3295C179.048 17.8333 179.332 18.2348 179.707 18.5341C180.086 18.8295 180.555 18.9773 181.116 18.9773ZM193.598 13.2273L192.394 13.5682C192.318 13.3674 192.206 13.1723 192.058 12.983C191.914 12.7898 191.717 12.6307 191.467 12.5057C191.217 12.3807 190.897 12.3182 190.507 12.3182C189.973 12.3182 189.528 12.4413 189.172 12.6875C188.82 12.9299 188.644 13.2386 188.644 13.6136C188.644 13.947 188.765 14.2102 189.007 14.4034C189.25 14.5966 189.628 14.7576 190.144 14.8864L191.439 15.2045C192.219 15.3939 192.801 15.6837 193.183 16.0739C193.566 16.4602 193.757 16.9583 193.757 17.5682C193.757 18.0682 193.613 18.5152 193.325 18.9091C193.041 19.303 192.644 19.6136 192.132 19.8409C191.621 20.0682 191.026 20.1818 190.348 20.1818C189.458 20.1818 188.721 19.9886 188.138 19.6023C187.555 19.2159 187.185 18.6515 187.03 17.9091L188.303 17.5909C188.424 18.0606 188.653 18.4129 188.99 18.6477C189.331 18.8826 189.776 19 190.325 19C190.95 19 191.447 18.8674 191.814 18.6023C192.185 18.3333 192.371 18.0114 192.371 17.6364C192.371 17.3333 192.265 17.0795 192.053 16.875C191.841 16.6667 191.515 16.5114 191.075 16.4091L189.621 16.0682C188.822 15.8788 188.235 15.5852 187.86 15.1875C187.488 14.786 187.303 14.2841 187.303 13.6818C187.303 13.1894 187.441 12.7538 187.717 12.375C187.998 11.9962 188.378 11.6989 188.86 11.483C189.344 11.267 189.894 11.1591 190.507 11.1591C191.371 11.1591 192.049 11.3485 192.541 11.7273C193.038 12.1061 193.39 12.6061 193.598 13.2273Z" fill="#757575"/>
</svg>
