<svg width="212" height="28" viewBox="0 0 212 28" fill="none" xmlns="http://www.w3.org/2000/svg">
<circle cx="9" cy="14" r="9" fill="#5EC269"/>
<path d="M13.2304 11.1156C13.4209 11.285 13.4381 11.5767 13.2688 11.7672L8.34568 17.3057C8.25809 17.4042 8.13255 17.4606 8.00072 17.4606C7.86889 17.4606 7.74335 17.4042 7.65576 17.3057L5.19422 14.5364C5.02488 14.3459 5.04204 14.0542 5.23255 13.8848C5.42307 13.7155 5.71479 13.7327 5.88414 13.9232L8.00072 16.3043L12.5788 11.1539C12.7482 10.9634 13.0399 10.9463 13.2304 11.1156Z" fill="white"/>
<path d="M27.7707 20V8.36364H31.7025C32.6154 8.36364 33.3616 8.52841 33.9411 8.85795C34.5244 9.18371 34.9563 9.625 35.2366 10.1818C35.5169 10.7386 35.657 11.3598 35.657 12.0455C35.657 12.7311 35.5169 13.3542 35.2366 13.9148C34.96 14.4754 34.532 14.9223 33.9525 15.2557C33.3729 15.5852 32.6305 15.75 31.7252 15.75H28.907V14.5H31.6797C32.3047 14.5 32.8066 14.392 33.1854 14.1761C33.5642 13.9602 33.8388 13.6686 34.0093 13.3011C34.1835 12.9299 34.2707 12.5114 34.2707 12.0455C34.2707 11.5795 34.1835 11.1629 34.0093 10.7955C33.8388 10.428 33.5623 10.1402 33.1797 9.93182C32.7972 9.7197 32.2896 9.61364 31.657 9.61364H29.1797V20H27.7707ZM40.1533 20.2045C39.6002 20.2045 39.0983 20.1004 38.6476 19.892C38.1968 19.6799 37.8389 19.375 37.5737 18.9773C37.3086 18.5758 37.176 18.0909 37.176 17.5227C37.176 17.0227 37.2745 16.6174 37.4715 16.3068C37.6684 15.9924 37.9317 15.7462 38.2612 15.5682C38.5908 15.3902 38.9544 15.2576 39.3521 15.1705C39.7536 15.0795 40.1571 15.0076 40.5624 14.9545C41.0927 14.8864 41.5226 14.8352 41.8521 14.8011C42.1855 14.7633 42.4279 14.7008 42.5794 14.6136C42.7347 14.5265 42.8124 14.375 42.8124 14.1591V14.1136C42.8124 13.553 42.659 13.1174 42.3521 12.8068C42.0491 12.4962 41.5889 12.3409 40.9715 12.3409C40.3313 12.3409 39.8294 12.4811 39.4658 12.7614C39.1021 13.0417 38.8465 13.3409 38.6987 13.6591L37.426 13.2045C37.6533 12.6742 37.9563 12.2614 38.3351 11.9659C38.7177 11.6667 39.1343 11.4583 39.5851 11.3409C40.0396 11.2197 40.4866 11.1591 40.926 11.1591C41.2063 11.1591 41.5283 11.1932 41.8919 11.2614C42.2593 11.3258 42.6135 11.4602 42.9544 11.6648C43.2991 11.8693 43.5851 12.178 43.8124 12.5909C44.0396 13.0038 44.1533 13.5568 44.1533 14.25V20H42.8124V18.8182H42.7442C42.6533 19.0076 42.5018 19.2102 42.2896 19.4261C42.0775 19.642 41.7953 19.8258 41.443 19.9773C41.0908 20.1288 40.6608 20.2045 40.1533 20.2045ZM40.3578 19C40.8881 19 41.3351 18.8958 41.6987 18.6875C42.0661 18.4792 42.3427 18.2102 42.5283 17.8807C42.7177 17.5511 42.8124 17.2045 42.8124 16.8409V15.6136C42.7555 15.6818 42.6305 15.7443 42.4374 15.8011C42.248 15.8542 42.0283 15.9015 41.7783 15.9432C41.5321 15.9811 41.2915 16.0152 41.0567 16.0455C40.8256 16.072 40.6381 16.0947 40.4942 16.1136C40.1457 16.1591 39.8199 16.233 39.5169 16.3352C39.2177 16.4337 38.9752 16.5833 38.7896 16.7841C38.6078 16.9811 38.5169 17.25 38.5169 17.5909C38.5169 18.0568 38.6893 18.4091 39.034 18.6477C39.3824 18.8826 39.8237 19 40.3578 19ZM51.9407 16.4318V11.2727H53.2816V20H51.9407V18.5227H51.8498C51.6453 18.9659 51.3271 19.3428 50.8953 19.6534C50.4634 19.9602 49.918 20.1136 49.2589 20.1136C48.7134 20.1136 48.2286 19.9943 47.8043 19.7557C47.3801 19.5133 47.0468 19.1496 46.8043 18.6648C46.5619 18.1761 46.4407 17.5606 46.4407 16.8182V11.2727H47.7816V16.7273C47.7816 17.3636 47.9597 17.8712 48.3157 18.25C48.6756 18.6288 49.1339 18.8182 49.6907 18.8182C50.024 18.8182 50.3631 18.733 50.7078 18.5625C51.0562 18.392 51.3479 18.1307 51.5828 17.7784C51.8214 17.4261 51.9407 16.9773 51.9407 16.4318ZM61.7594 13.2273L60.5549 13.5682C60.4791 13.3674 60.3674 13.1723 60.2196 12.983C60.0757 12.7898 59.8787 12.6307 59.6287 12.5057C59.3787 12.3807 59.0586 12.3182 58.6685 12.3182C58.1344 12.3182 57.6893 12.4413 57.3333 12.6875C56.981 12.9299 56.8049 13.2386 56.8049 13.6136C56.8049 13.947 56.9261 14.2102 57.1685 14.4034C57.4109 14.5966 57.7897 14.7576 58.3049 14.8864L59.6003 15.2045C60.3806 15.3939 60.9621 15.6837 61.3446 16.0739C61.7272 16.4602 61.9185 16.9583 61.9185 17.5682C61.9185 18.0682 61.7746 18.5152 61.4867 18.9091C61.2026 19.303 60.8049 19.6136 60.2935 19.8409C59.7821 20.0682 59.1874 20.1818 58.5094 20.1818C57.6193 20.1818 56.8825 19.9886 56.2992 19.6023C55.7158 19.2159 55.3465 18.6515 55.1912 17.9091L56.464 17.5909C56.5852 18.0606 56.8143 18.4129 57.1515 18.6477C57.4924 18.8826 57.9374 19 58.4867 19C59.1117 19 59.6079 18.8674 59.9753 18.6023C60.3465 18.3333 60.5321 18.0114 60.5321 17.6364C60.5321 17.3333 60.4261 17.0795 60.214 16.875C60.0018 16.6667 59.6761 16.5114 59.2367 16.4091L57.7821 16.0682C56.9829 15.8788 56.3958 15.5852 56.0208 15.1875C55.6496 14.786 55.464 14.2841 55.464 13.6818C55.464 13.1894 55.6022 12.7538 55.8787 12.375C56.159 11.9962 56.5397 11.6989 57.0208 11.483C57.5056 11.267 58.0549 11.1591 58.6685 11.1591C59.5321 11.1591 60.2102 11.3485 60.7026 11.7273C61.1988 12.1061 61.5511 12.6061 61.7594 13.2273ZM67.4361 20.1818C66.5951 20.1818 65.8698 19.9962 65.2599 19.625C64.6539 19.25 64.1861 18.7273 63.8565 18.0568C63.5308 17.3826 63.3679 16.5985 63.3679 15.7045C63.3679 14.8106 63.5308 14.0227 63.8565 13.3409C64.1861 12.6553 64.6444 12.1212 65.2315 11.7386C65.8224 11.3523 66.5118 11.1591 67.2997 11.1591C67.7542 11.1591 68.2031 11.2348 68.6463 11.3864C69.0895 11.5379 69.4929 11.7841 69.8565 12.125C70.2201 12.4621 70.5099 12.9091 70.7258 13.4659C70.9417 14.0227 71.0497 14.7083 71.0497 15.5227V16.0909H64.3224V14.9318H69.6861C69.6861 14.4394 69.5876 14 69.3906 13.6136C69.1974 13.2273 68.9209 12.9223 68.5611 12.6989C68.205 12.4754 67.7845 12.3636 67.2997 12.3636C66.7656 12.3636 66.3035 12.4962 65.9133 12.7614C65.527 13.0227 65.2296 13.3636 65.0213 13.7841C64.8129 14.2045 64.7088 14.6553 64.7088 15.1364V15.9091C64.7088 16.5682 64.8224 17.1269 65.0497 17.5852C65.2808 18.0398 65.6008 18.3864 66.0099 18.625C66.419 18.8598 66.8944 18.9773 67.4361 18.9773C67.7883 18.9773 68.1065 18.928 68.3906 18.8295C68.6785 18.7273 68.9266 18.5758 69.1349 18.375C69.3433 18.1705 69.5042 17.9167 69.6179 17.6136L70.9133 17.9773C70.777 18.4167 70.5478 18.803 70.2258 19.1364C69.9039 19.4659 69.5061 19.7235 69.0326 19.9091C68.5592 20.0909 68.027 20.1818 67.4361 20.1818ZM80.8149 20.1818C80.027 20.1818 79.3358 19.9943 78.7411 19.6193C78.1501 19.2443 77.688 18.7197 77.3547 18.0455C77.0251 17.3712 76.8604 16.5833 76.8604 15.6818C76.8604 14.7727 77.0251 13.9792 77.3547 13.3011C77.688 12.6231 78.1501 12.0966 78.7411 11.7216C79.3358 11.3466 80.027 11.1591 80.8149 11.1591C81.6028 11.1591 82.2922 11.3466 82.8831 11.7216C83.4778 12.0966 83.9399 12.6231 84.2695 13.3011C84.6028 13.9792 84.7695 14.7727 84.7695 15.6818C84.7695 16.5833 84.6028 17.3712 84.2695 18.0455C83.9399 18.7197 83.4778 19.2443 82.8831 19.6193C82.2922 19.9943 81.6028 20.1818 80.8149 20.1818ZM80.8149 18.9773C81.4134 18.9773 81.9058 18.8239 82.2922 18.517C82.6786 18.2102 82.9645 17.8068 83.1501 17.3068C83.3358 16.8068 83.4286 16.2652 83.4286 15.6818C83.4286 15.0985 83.3358 14.5549 83.1501 14.0511C82.9645 13.5473 82.6786 13.1402 82.2922 12.8295C81.9058 12.5189 81.4134 12.3636 80.8149 12.3636C80.2164 12.3636 79.724 12.5189 79.3376 12.8295C78.9513 13.1402 78.6653 13.5473 78.4797 14.0511C78.2941 14.5549 78.2013 15.0985 78.2013 15.6818C78.2013 16.2652 78.2941 16.8068 78.4797 17.3068C78.6653 17.8068 78.9513 18.2102 79.3376 18.517C79.724 18.8239 80.2164 18.9773 80.8149 18.9773ZM86.6563 20V11.2727H87.9518V12.5909H88.0427C88.2018 12.1591 88.4897 11.8087 88.9063 11.5398C89.323 11.2708 89.7927 11.1364 90.3154 11.1364C90.4139 11.1364 90.537 11.1383 90.6847 11.142C90.8325 11.1458 90.9442 11.1515 91.02 11.1591V12.5227C90.9745 12.5114 90.8704 12.4943 90.7075 12.4716C90.5484 12.4451 90.3798 12.4318 90.2018 12.4318C89.7776 12.4318 89.3988 12.5208 89.0654 12.6989C88.7359 12.8731 88.4745 13.1155 88.2813 13.4261C88.0919 13.733 87.9972 14.0833 87.9972 14.4773V20H86.6563ZM106.335 12H104.926C104.842 11.5947 104.697 11.2386 104.488 10.9318C104.284 10.625 104.034 10.3674 103.738 10.1591C103.447 9.94697 103.123 9.78788 102.767 9.68182C102.411 9.57576 102.039 9.52273 101.653 9.52273C100.949 9.52273 100.31 9.70076 99.7383 10.0568C99.1701 10.4129 98.7175 10.9375 98.3804 11.6307C98.047 12.3239 97.8804 13.1742 97.8804 14.1818C97.8804 15.1894 98.047 16.0398 98.3804 16.733C98.7175 17.4261 99.1701 17.9508 99.7383 18.3068C100.31 18.6629 100.949 18.8409 101.653 18.8409C102.039 18.8409 102.411 18.7879 102.767 18.6818C103.123 18.5758 103.447 18.4186 103.738 18.2102C104.034 17.9981 104.284 17.7386 104.488 17.4318C104.697 17.1212 104.842 16.7652 104.926 16.3636H106.335C106.229 16.9583 106.036 17.4905 105.755 17.9602C105.475 18.4299 105.127 18.8295 104.71 19.1591C104.293 19.4848 103.825 19.733 103.307 19.9034C102.791 20.0739 102.24 20.1591 101.653 20.1591C100.661 20.1591 99.7781 19.9167 99.0054 19.4318C98.2326 18.947 97.6247 18.2576 97.1815 17.3636C96.7383 16.4697 96.5167 15.4091 96.5167 14.1818C96.5167 12.9545 96.7383 11.8939 97.1815 11C97.6247 10.1061 98.2326 9.41667 99.0054 8.93182C99.7781 8.44697 100.661 8.20455 101.653 8.20455C102.24 8.20455 102.791 8.28977 103.307 8.46023C103.825 8.63068 104.293 8.88068 104.71 9.21023C105.127 9.53598 105.475 9.93371 105.755 10.4034C106.036 10.8693 106.229 11.4015 106.335 12ZM110.838 20.2045C110.285 20.2045 109.783 20.1004 109.333 19.892C108.882 19.6799 108.524 19.375 108.259 18.9773C107.994 18.5758 107.861 18.0909 107.861 17.5227C107.861 17.0227 107.959 16.6174 108.156 16.3068C108.353 15.9924 108.617 15.7462 108.946 15.5682C109.276 15.3902 109.639 15.2576 110.037 15.1705C110.439 15.0795 110.842 15.0076 111.247 14.9545C111.778 14.8864 112.208 14.8352 112.537 14.8011C112.87 14.7633 113.113 14.7008 113.264 14.6136C113.42 14.5265 113.497 14.375 113.497 14.1591V14.1136C113.497 13.553 113.344 13.1174 113.037 12.8068C112.734 12.4962 112.274 12.3409 111.656 12.3409C111.016 12.3409 110.514 12.4811 110.151 12.7614C109.787 13.0417 109.531 13.3409 109.384 13.6591L108.111 13.2045C108.338 12.6742 108.641 12.2614 109.02 11.9659C109.403 11.6667 109.819 11.4583 110.27 11.3409C110.725 11.2197 111.172 11.1591 111.611 11.1591C111.891 11.1591 112.213 11.1932 112.577 11.2614C112.944 11.3258 113.298 11.4602 113.639 11.6648C113.984 11.8693 114.27 12.178 114.497 12.5909C114.725 13.0038 114.838 13.5568 114.838 14.25V20H113.497V18.8182H113.429C113.338 19.0076 113.187 19.2102 112.975 19.4261C112.763 19.642 112.48 19.8258 112.128 19.9773C111.776 20.1288 111.346 20.2045 110.838 20.2045ZM111.043 19C111.573 19 112.02 18.8958 112.384 18.6875C112.751 18.4792 113.028 18.2102 113.213 17.8807C113.403 17.5511 113.497 17.2045 113.497 16.8409V15.6136C113.441 15.6818 113.316 15.7443 113.122 15.8011C112.933 15.8542 112.713 15.9015 112.463 15.9432C112.217 15.9811 111.977 16.0152 111.742 16.0455C111.511 16.072 111.323 16.0947 111.179 16.1136C110.831 16.1591 110.505 16.233 110.202 16.3352C109.903 16.4337 109.66 16.5833 109.475 16.7841C109.293 16.9811 109.202 17.25 109.202 17.5909C109.202 18.0568 109.374 18.4091 109.719 18.6477C110.067 18.8826 110.509 19 111.043 19ZM118.467 14.75V20H117.126V11.2727H118.421V12.6364H118.535C118.739 12.1932 119.05 11.8371 119.467 11.5682C119.883 11.2955 120.421 11.1591 121.08 11.1591C121.671 11.1591 122.188 11.2803 122.631 11.5227C123.075 11.7614 123.419 12.125 123.665 12.6136C123.912 13.0985 124.035 13.7121 124.035 14.4545V20H122.694V14.5455C122.694 13.8598 122.516 13.3258 122.16 12.9432C121.804 12.5568 121.315 12.3636 120.694 12.3636C120.266 12.3636 119.883 12.4564 119.546 12.642C119.213 12.8277 118.95 13.0985 118.756 13.4545C118.563 13.8106 118.467 14.2424 118.467 14.75ZM129.871 20.1818C129.052 20.1818 128.348 19.9886 127.757 19.6023C127.166 19.2159 126.711 18.6837 126.393 18.0057C126.075 17.3277 125.916 16.553 125.916 15.6818C125.916 14.7955 126.079 14.0133 126.405 13.3352C126.734 12.6534 127.193 12.1212 127.78 11.7386C128.371 11.3523 129.06 11.1591 129.848 11.1591C130.461 11.1591 131.014 11.2727 131.507 11.5C131.999 11.7273 132.403 12.0455 132.717 12.4545C133.032 12.8636 133.227 13.3409 133.302 13.8864H131.961C131.859 13.4886 131.632 13.1364 131.28 12.8295C130.931 12.5189 130.461 12.3636 129.871 12.3636C129.348 12.3636 128.889 12.5 128.496 12.7727C128.105 13.0417 127.8 13.4223 127.581 13.9148C127.365 14.4034 127.257 14.9773 127.257 15.6364C127.257 16.3106 127.363 16.8977 127.575 17.3977C127.791 17.8977 128.094 18.286 128.484 18.5625C128.878 18.839 129.34 18.9773 129.871 18.9773C130.219 18.9773 130.535 18.9167 130.819 18.7955C131.103 18.6742 131.344 18.5 131.541 18.2727C131.738 18.0455 131.878 17.7727 131.961 17.4545H133.302C133.227 17.9697 133.039 18.4337 132.74 18.8466C132.444 19.2557 132.052 19.5814 131.564 19.8239C131.079 20.0625 130.514 20.1818 129.871 20.1818ZM138.762 20.1818C137.921 20.1818 137.195 19.9962 136.586 19.625C135.979 19.25 135.512 18.7273 135.182 18.0568C134.856 17.3826 134.693 16.5985 134.693 15.7045C134.693 14.8106 134.856 14.0227 135.182 13.3409C135.512 12.6553 135.97 12.1212 136.557 11.7386C137.148 11.3523 137.837 11.1591 138.625 11.1591C139.08 11.1591 139.529 11.2348 139.972 11.3864C140.415 11.5379 140.818 11.7841 141.182 12.125C141.546 12.4621 141.836 12.9091 142.051 13.4659C142.267 14.0227 142.375 14.7083 142.375 15.5227V16.0909H135.648V14.9318H141.012C141.012 14.4394 140.913 14 140.716 13.6136C140.523 13.2273 140.247 12.9223 139.887 12.6989C139.531 12.4754 139.11 12.3636 138.625 12.3636C138.091 12.3636 137.629 12.4962 137.239 12.7614C136.853 13.0227 136.555 13.3636 136.347 13.7841C136.139 14.2045 136.034 14.6553 136.034 15.1364V15.9091C136.034 16.5682 136.148 17.1269 136.375 17.5852C136.606 18.0398 136.926 18.3864 137.336 18.625C137.745 18.8598 138.22 18.9773 138.762 18.9773C139.114 18.9773 139.432 18.928 139.716 18.8295C140.004 18.7273 140.252 18.5758 140.461 18.375C140.669 18.1705 140.83 17.9167 140.943 17.6136L142.239 17.9773C142.103 18.4167 141.873 18.803 141.551 19.1364C141.229 19.4659 140.832 19.7235 140.358 19.9091C139.885 20.0909 139.353 20.1818 138.762 20.1818ZM145.596 8.36364V20H144.255V8.36364H145.596ZM152.891 20H151.414L155.687 8.36364H157.141L161.414 20H159.937L156.459 10.2045H156.368L152.891 20ZM153.437 15.4545H159.391V16.7045H153.437V15.4545ZM164.225 14.75V20H162.884V11.2727H164.18V12.6364H164.294C164.498 12.1932 164.809 11.8371 165.225 11.5682C165.642 11.2955 166.18 11.1591 166.839 11.1591C167.43 11.1591 167.947 11.2803 168.39 11.5227C168.833 11.7614 169.178 12.125 169.424 12.6136C169.67 13.0985 169.794 13.7121 169.794 14.4545V20H168.453V14.5455C168.453 13.8598 168.275 13.3258 167.919 12.9432C167.562 12.5568 167.074 12.3636 166.453 12.3636C166.025 12.3636 165.642 12.4564 165.305 12.642C164.972 12.8277 164.708 13.0985 164.515 13.4545C164.322 13.8106 164.225 14.2424 164.225 14.75ZM172.635 23.2727C172.408 23.2727 172.205 23.2538 172.027 23.2159C171.849 23.1818 171.726 23.1477 171.658 23.1136L171.999 21.9318C172.324 22.0152 172.612 22.0455 172.862 22.0227C173.112 22 173.334 21.8883 173.527 21.6875C173.724 21.4905 173.904 21.1705 174.067 20.7273L174.317 20.0455L171.09 11.2727H172.544L174.953 18.2273H175.044L177.453 11.2727H178.908L175.203 21.2727C175.036 21.7235 174.83 22.0966 174.584 22.392C174.338 22.6913 174.052 22.9129 173.726 23.0568C173.404 23.2008 173.04 23.2727 172.635 23.2727ZM184.313 11.2727V12.4091H179.79V11.2727H184.313ZM181.108 9.18182H182.449V17.5C182.449 17.8788 182.504 18.1629 182.614 18.3523C182.728 18.5379 182.872 18.6629 183.046 18.7273C183.224 18.7879 183.412 18.8182 183.608 18.8182C183.756 18.8182 183.877 18.8106 183.972 18.7955C184.067 18.7765 184.143 18.7614 184.199 18.75L184.472 19.9545C184.381 19.9886 184.254 20.0227 184.091 20.0568C183.929 20.0947 183.722 20.1136 183.472 20.1136C183.093 20.1136 182.722 20.0322 182.358 19.8693C181.999 19.7064 181.699 19.4583 181.461 19.125C181.226 18.7917 181.108 18.3712 181.108 17.8636V9.18182ZM186.17 20V11.2727H187.511V20H186.17ZM186.852 9.81818C186.591 9.81818 186.365 9.72917 186.176 9.55114C185.99 9.37311 185.897 9.15909 185.897 8.90909C185.897 8.65909 185.99 8.44508 186.176 8.26705C186.365 8.08902 186.591 8 186.852 8C187.113 8 187.337 8.08902 187.522 8.26705C187.712 8.44508 187.806 8.65909 187.806 8.90909C187.806 9.15909 187.712 9.37311 187.522 9.55114C187.337 9.72917 187.113 9.81818 186.852 9.81818ZM189.807 20V11.2727H191.102V12.6364H191.216C191.398 12.1705 191.691 11.8087 192.097 11.5511C192.502 11.2898 192.989 11.1591 193.557 11.1591C194.133 11.1591 194.612 11.2898 194.994 11.5511C195.381 11.8087 195.682 12.1705 195.898 12.6364H195.989C196.212 12.1856 196.547 11.8277 196.994 11.5625C197.441 11.2936 197.977 11.1591 198.602 11.1591C199.383 11.1591 200.021 11.4034 200.517 11.892C201.013 12.3769 201.262 13.1326 201.262 14.1591V20H199.921V14.1591C199.921 13.5152 199.744 13.0549 199.392 12.7784C199.04 12.5019 198.625 12.3636 198.148 12.3636C197.534 12.3636 197.059 12.5492 196.722 12.9205C196.385 13.2879 196.216 13.7538 196.216 14.3182V20H194.852V14.0227C194.852 13.5265 194.691 13.1269 194.369 12.8239C194.047 12.517 193.633 12.3636 193.125 12.3636C192.777 12.3636 192.451 12.4564 192.148 12.642C191.849 12.8277 191.606 13.0852 191.421 13.4148C191.239 13.7405 191.148 14.1174 191.148 14.5455V20H189.807ZM207.212 20.1818C206.371 20.1818 205.646 19.9962 205.036 19.625C204.43 19.25 203.962 18.7273 203.633 18.0568C203.307 17.3826 203.144 16.5985 203.144 15.7045C203.144 14.8106 203.307 14.0227 203.633 13.3409C203.962 12.6553 204.421 12.1212 205.008 11.7386C205.599 11.3523 206.288 11.1591 207.076 11.1591C207.53 11.1591 207.979 11.2348 208.423 11.3864C208.866 11.5379 209.269 11.7841 209.633 12.125C209.996 12.4621 210.286 12.9091 210.502 13.4659C210.718 14.0227 210.826 14.7083 210.826 15.5227V16.0909H204.099V14.9318H209.462C209.462 14.4394 209.364 14 209.167 13.6136C208.974 13.2273 208.697 12.9223 208.337 12.6989C207.981 12.4754 207.561 12.3636 207.076 12.3636C206.542 12.3636 206.08 12.4962 205.69 12.7614C205.303 13.0227 205.006 13.3636 204.798 13.7841C204.589 14.2045 204.485 14.6553 204.485 15.1364V15.9091C204.485 16.5682 204.599 17.1269 204.826 17.5852C205.057 18.0398 205.377 18.3864 205.786 18.625C206.195 18.8598 206.671 18.9773 207.212 18.9773C207.565 18.9773 207.883 18.928 208.167 18.8295C208.455 18.7273 208.703 18.5758 208.911 18.375C209.119 18.1705 209.28 17.9167 209.394 17.6136L210.69 17.9773C210.553 18.4167 210.324 18.803 210.002 19.1364C209.68 19.4659 209.282 19.7235 208.809 19.9091C208.335 20.0909 207.803 20.1818 207.212 20.1818Z" fill="#757575"/>
</svg>
