<svg xmlns="http://www.w3.org/2000/svg" xmlns:xlink="http://www.w3.org/1999/xlink" width="248" height="200" viewBox="0 0 248 200">
    <defs>
        <path id="a" d="M0 .67h64.711v198.219H0z"/>
        <path id="c" d="M.24 0h10.401v10.499H.241z"/>
    </defs>
    <g fill="none" fill-rule="evenodd">
        <g transform="translate(0 -.559)">
            <mask id="b" fill="#fff">
                <use xlink:href="#a"/>
            </mask>
            <path fill="#554D56" d="M16.415 2.59c-5.119.202-11.621.6-14.837 5.267-2.103 3.053-2.294 8.18.59 10.854 1.905 1.767 3.596 1.187 5.984 1.538 7.093 1.043 6.948 6.932 7.525 12.788a972.256 972.256 0 0 1 4.506 113.528c-.157 8.289-.77 16.665-.037 24.942.892 10.061 5.79 28.288 19.142 27.348 11.297-.797 12.596-15.683 12.816-24.227.991-38.397 1.847-76.797 2.771-115.194.25-10.386-.217-21.097.896-31.43.612-5.682 2.75-8.232 6.567-12.083 1.75-1.765 2.655-3.87 2.295-6.39-.899-6.276-7.247-8.575-12.81-8.78-10.187-.38-20.597.683-30.783 1.066-2.138.08-2.148 3.413 0 3.333l22.83-.858c3.652-.136 7.66-.693 11.254.135 2.059.474 4.491 1.504 5.479 3.538 2.399 4.94-1.88 6.107-4.082 8.63-2.757 3.159-3.673 7.356-4.084 11.409-.754 7.452-.502 15.083-.682 22.568l-2.264 94.15-.56 23.26c-.156 6.495.223 13.305-1.881 19.553-2.673 7.94-10.424 10.494-16.468 3.783-5.175-5.743-6.748-14.154-7.236-21.601-.95-14.542.375-29.347.338-43.919a968.588 968.588 0 0 0-1.256-46.982c-.87-17.058-1.344-34.674-4.036-51.558-.59-3.692-1.755-8.111-5.491-9.829-3.28-1.505-9.71 1.238-9.436-5.065.26-6.015 8.602-6.27 12.95-6.442 2.138-.084 2.149-3.417 0-3.333" mask="url(#b)"/>
        </g>
        <path fill="#FECF33" d="M26.284 48.026l33.075-2.632a68.368 68.368 0 0 0-1.802 17.911c.159 4.978.862 9.926 1.1 14.9.215 4.502.047 9.012-.122 13.518l-1.368 36.672c-.212 5.69-.425 11.39-1.174 17.035-.733 5.52-1.978 10.994-2.097 16.56-.089 4.157.45 8.332-.024 12.463-.476 4.13-2.182 8.397-5.677 10.646-5.643 3.63-13.641.315-17.386-5.253-3.744-5.569-4.36-12.596-4.865-19.289-.55-7.287-1.098-14.615-.45-21.896.442-4.937 1.43-9.822 1.68-14.772.232-4.624-.184-9.25-.545-13.865a593.775 593.775 0 0 1-1.607-61.807" style="mix-blend-mode:multiply"/>
        <path fill="#6E9B02" d="M81.791 122.283a1.855 1.855 0 0 0-.3.02 1.706 1.706 0 0 0-.27-.188c-2.032-1.14-1.399-4.63 1.183-4.208 2.97.486 2.126 4.467-.613 4.376m1.5-7.59c-2.709-.594-5.507.76-6.359 3.474-.802 2.557.255 5.508 2.608 6.824.409.23.806.265 1.162.18.264.254.622.43 1.09.445 2.874.095 5.424-2.168 5.837-4.99.417-2.842-1.596-5.331-4.338-5.932"/>
        <path fill="#554D56" d="M65.68 192.16c-18.897-6.687-29.928-25.223-27.595-45.038 2.537-21.551 21.18-37.234 41.828-40.737.675-.114 1.27-.936 1.225-1.608a488.586 488.586 0 0 1-.692-52.843c-.066-2.793-1.689-3.616-3.094-4.127-.48-.239-2.405-.524-3.43-.998-1.586-.746-2.197-2.006-1.227-3.281.97-1.276 2.244-.998 4.32-.784 1.237-.021 2.476-.025 3.713-.009 4.365.006 8.73.037 13.096.053 1.714.007 6.16-.419 8.198 0 2.947.555 3.449 2.364.72 4.846-.757.65-3.163-.099-4.111 0-.78.125-1.138.93-1.223 1.607a546.504 546.504 0 0 0-4.182 56.942c-.025 1.2 1.082 1.746 2.11 1.608 9.066-1.23 18.657-2.31 27.644-.013 10.798 2.76 17.365 11.011 19.69 21.701 4.293 19.734-4.41 40.967-20.187 53.186-15.738 12.188-37.948 16.166-56.802 9.494zm63.339-85.833c-10.121-4.429-21.671-3.444-32.406-2.039a546.423 546.423 0 0 1 3.961-53.657c3.771-.9 9.026-3.597 6.774-8.136-1.012-2.037-3.184-2.613-5.235-2.906-4.44-.632-9.264-.138-13.745-.155-4.915-.02-15.93-2.302-18.632 3.81-.724 1.639-.702 3.533.43 4.97 1.156 1.467 6.901 1.42 6.923 4.388a488.479 488.479 0 0 0 .633 50.814c-19.672 3.826-37.539 18.336-42.106 38.378-4.397 19.308 3.767 40.359 21.32 50.089 19.824 10.99 46.148 8.21 64.563-4.375 17.634-12.05 27.989-33.677 25.066-55.014-1.52-11.112-6.89-21.502-17.546-26.167z"/>
        <path fill="#6E9B02" d="M43.333 150.585c23.171-2.113 40.98-2.113 53.425 0 12.446 2.112 26.91 2.112 43.393 0-8.866 24.33-25.06 38.098-48.58 41.303-30.284.017-46.364-13.75-48.238-41.303z" style="mix-blend-mode:multiply"/>
        <path fill="#6E9B02" d="M95.446 136.704c-.877 3.313-4.78 2.431-6.112.043.128-.302.146-.668-.024-1.089-.555-1.376 3.045-2.373 3.994-2.229 1.462.223 2.518 1.856 2.142 3.275m-2.962-6.57c-2.26.208-5.704 1.719-6.488 4.088-.306.263-.49.669-.428 1.226.387 3.437 2.88 6.688 6.59 6.796 3.402.1 6.667-2.618 6.7-6.113.03-3.392-2.988-6.308-6.374-5.997M90.94 65.958c-1.244-4.68-9.034-4.97-10.115-.04-.458 2.09 2.755 2.983 3.214.885.367-1.67 3.236-1.523 3.687.041.724 2.512-3.132 4.955-4.932 2.912-1.42-1.613-3.772.752-2.357 2.356 4.093 4.648 11.991-.56 10.503-6.154"/>
        <g transform="translate(85.556 16.778)">
            <mask id="d" fill="#fff">
                <use xlink:href="#c"/>
            </mask>
            <path fill="#6E9B02" d="M8.25.946C3.65-2.19-1.315 3.086.703 7.742c.851 1.964 3.723.268 2.878-1.68-.7-1.615 1.159-3.302 2.665-2.444 1.865 1.06.906 3.934-1.228 3.585-2.098-.344-3 2.868-.886 3.214 2.472.405 4.944-.705 6.04-3.034 1.105-2.344.174-5.007-1.922-6.437" mask="url(#d)"/>
        </g>
        <path fill="#ACFBFF" d="M132.333 129.86c.869 38.31 3.781 57.83 8.74 58.564 7.436 1.1 92.392 7.664 95.785 3.832 3.394-3.832 10.174-58.705 8.566-62.396-1.609-3.69-34.628-1.308-56.424 0-14.53.872-33.42.872-56.667 0z" style="mix-blend-mode:multiply"/>
        <path fill="#554D56" d="M245.693 88.697a700.673 700.673 0 0 0-125.1 1.923c-2.112.224-2.135 3.56 0 3.334a700.751 700.751 0 0 1 119.548-2.305c-7.778 6.713-7.348 20.498-7.881 29.979-.132 2.341-.261 4.684-.391 7.026l-22.361-1.962c-2.138-.186-2.125 3.147 0 3.334l22.175 1.944c-.293 5.256-.588 10.51-.879 15.766-8.579.318-17.156.373-25.74.135-2.146-.06-2.145 3.274 0 3.334a398.29 398.29 0 0 0 25.555-.13c-.326 5.84-.664 11.679-.995 17.519-8.186.362-16.369.432-24.56.205-2.146-.06-2.145 3.273 0 3.333 8.127.225 16.248.156 24.37-.198-.222 3.904-.436 7.807-.664 11.712-.156 2.656-.019 5.529-1.417 7.88-1.966 3.312-5.429 3.47-9.029 3.518-5.036.065-10.09-.143-15.127-.213-10.086-.14-20.172-.283-30.257-.424-10.063-.142-20.206.078-30.256-.426-6.946-.347-8.729-4.63-9.43-10.707-.583-5.04-1.009-10.102-1.51-15.15l-6.903-69.25c-.21-2.115-3.546-2.137-3.333 0l6.686 67.086c.781 7.847.078 18.12 3.534 25.4 3.466 7.304 11.683 5.966 18.52 6.061 22.33.314 44.663.728 66.996.94 6.996.067 13.044-1.24 14.401-9.016 1.7-9.717 1.275-20.215 1.83-30.064l.472-8.396c1.435-.466 1.5-2.656.176-3.144l.872-15.49c1.948.08 2-2.847.185-3.28l.413-7.343c.524-9.302-.55-25.884 10.542-29.658 1.808-.613 1.445-3.133-.442-3.273"/>
    </g>
</svg>
