<svg xmlns="http://www.w3.org/2000/svg" width="308" height="150" viewBox="0 0 308 150">
    <g fill="none" fill-rule="evenodd">
        <path fill="#C1BEC1" d="M32 20h120v8H32zM224 20h84v8h-84z"/>
        <path fill="#C8CF2D" d="M164 20h48v8h-48z"/>
        <path fill="#C1BEC1" d="M21 44h120v8H21zM189 44h96v8h-96zM148 92h152v8H148z"/>
        <path fill="#C8CF2D" d="M153 44h24v8h-24z"/>
        <path fill="#C1BEC1" d="M32 68h60v8H32z"/>
        <path fill="#FECF33" d="M0 0h84v8H0zM0 142h24v8H0z"/>
        <path fill="#C1BEC1" d="M104 68h72v8h-72zM260 68h36v8h-36z"/>
        <path fill="#C8CF2D" d="M188 68h60v8h-60z"/>
        <path fill="#C1BEC1" d="M40 92h60v8H40z"/>
        <path fill="#C8CF2D" d="M112 92h24v8h-24z"/>
        <path fill="#FDBD39" d="M142 116h48v8h-48z"/>
        <path fill="#C1BEC1" d="M34 116h60v8H34zM202 116h86v8h-86z"/>
        <path fill="#C8CF2D" d="M106 116h24v8h-24z"/>
    </g>
</svg>
