<svg xmlns="http://www.w3.org/2000/svg" xmlns:xlink="http://www.w3.org/1999/xlink" width="442" height="352" viewBox="0 0 442 352">
    <defs>
        <path id="a" d="M.653.714h40.865v44.351H.653z"/>
        <path id="c" d="M.12.502h387.42v163.82H.12z"/>
        <path id="e" d="M0 0h19.384v19.93H.001z"/>
    </defs>
    <g fill="none" fill-rule="evenodd">
        <path fill="#419BF9" d="M412.575 45.256a121.59 121.59 0 0 1 28.602 6.578 176.246 176.246 0 0 0-6.321 23.353 62.489 62.489 0 0 0-13.978-4.388c-4.905-.926-9.927-1.265-14.748-2.562-.452-.122-.954-.29-1.167-.709-.177-.346-.102-.76-.024-1.142l3.738-18.122c.328-1.59.816-3.395 2.278-4.1"/>
        <path fill="#554D56" d="M409.4 42.863c.014.008.028.007.043.014.021.015.013.014-.044-.014"/>
        <path fill="#554D56" d="M411.016 44.132c2.845 1.206 3.304 5.989 4.124 8.528l4.291 13.299c.46 1.422 1.014 5.783 2.26 7 .082 1.022.847 1.912 2.094 1.494 1.245-.418.673-2.414-.014-3.345-.093-1.226-1.271-2.928-1.766-4.05-1.82-4.143-3.648-8.283-5.466-12.427-1.436-3.272-3.205-6.74-2.6-10.42.678-4.135 5.041-7.18 8.545-5.052-3.114-4.086-9.308-.284-11.54 3.3-.33.528-.952.67-1.501.418-.133-.099-1.525-.913-1.406-.893-.641-.72-3.086-1.164-3.298 0-.078.428-.884 2.768 1.871 2.333l1.686-.271c.894-.1 1.86-.277 2.72.086zm-1.387-3.728c4.013-5.3 12.637-8.11 15.88-.341.397.948-.583 1.514-1.384 1.294-.195.781-1.178 1.346-1.853.576-2.785-3.176-5.982.473-6.206 3.392-.124 1.61.394 3.18.93 4.666 1.07 2.965 2.525 5.849 3.793 8.733l3.453 7.849c.825 1.876 2.09 4.028 2.23 6.115.145 2.18-1.293 4.729-3.802 4.541-3.496-.262-4.214-6.952-4.963-9.27l-5.42-16.797c-.477-1.478-.652-3.264-1.932-4.257-1.243-.964-1.81-.47-3.248-.394-1.3.067-2.33-.022-3.345-.871-1.785-1.5-2.007-4.29-.214-5.867 2.377-2.09 4.077-.59 6.081.631z"/>
        <g transform="matrix(-1 0 0 1 417.708 162.79)">
            <mask id="b" fill="#fff">
                <use xlink:href="#a"/>
            </mask>
            <path fill="#C8CF2D" d="M21.05.888c-7.483.16-14.603 5.13-18.002 12.16-3.4 7.03-3.107 15.805.416 22.766 1.075 2.125 2.463 4.127 4.327 5.519 1.225.914 2.622 1.542 4.04 2.057 4.56 1.658 9.545 2.214 14.246 1.08 4.702-1.134 9.087-4.047 11.695-8.324 2.021-3.313 2.909-7.25 3.453-11.148.25-1.777.434-3.595.147-5.367-.33-2.042-1.272-3.92-2.365-5.64C34.444 6.814 26.874 1.852 18.75.713" mask="url(#b)"/>
        </g>
        <path fill="#F2F2F2" d="M379.38 216.72l.298-3.08a1.96 1.96 0 0 1 .356-.964c-.084-.398-.045-.837.14-1.157l.097-.17a1.45 1.45 0 0 1 .579-.575c.49-1.08.814-2.34 1.379-3.345.797-1.425 1.783-2.735 2.786-4.007-3.58-2.205-5.15-6.45-5.795-10.788-.288-1.94 2.53-2.777 2.82-.82.527 3.549 1.583 7.626 4.91 9.226 1.947-2.372 3.837-4.775 4.896-7.774.652-1.843 3.479-1.046 2.82.82-1.222 3.457-3.248 6.22-5.518 8.985-1.34 1.632-2.734 3.235-3.87 5.037-1.013 1.608-1.358 3.602-2.394 5.128-.087.13-.183.235-.285.331 0 .024.005.048.002.073l-.233 2.407c.187-.053.375-.102.56-.166 0-.223.04-.456.146-.695 2.954-6.738 6.96-12.31 11.136-18.28 1.106-1.578 3.644-.043 2.526 1.556-1.558 2.227-3.091 4.396-4.554 6.59 3.287 2.218 7.226 2.393 10.665.333-1.825-3.18-3.643-6.365-5.494-9.513-.994-1.69 1.534-3.24 2.525-1.555 4.151 7.06 8.135 14.291 12.422 21.28-1.116-3.513-3.542-7.217-4.798-9.853l-5.94-12.46c-.841-1.768 1.68-3.33 2.526-1.555l8.484 17.798c1.83 3.842 4.248 7.647 2.88 12.035-.407 1.306-1.956 1.47-2.672.369-2.941-4.527-5.7-9.205-8.415-13.91-4.337 2.64-9.665 2.513-13.83-.426-1.717 2.723-3.3 5.54-4.674 8.582.297.662.126 1.688-.567 2.007-1.661.767-3.338 1.218-5.151 1.34-1.572.105-1.819-2.028-.764-2.804"/>
        <path fill="#554D56" d="M395.01 185.86c.551 1.146 1.908 2.226 3.141 2.95 1.404-1.036 3.89-3.3 4.175-4.074.16-.438-.128-1.91-.165-2.568-.113-2.042-.911-2.127-2.788-2.306-.918.57-2.328.176-2.179-1.215.152-1.416-.146-2.054-.768-2.354.176.584.349 1.169.484 1.78.232 1.047-.696 2.336-1.798 1.896-.967-.385-.313 5.452-.102 5.89m-1.459-9.027a19.397 19.397 0 0 0-.563-1.593c-.408-1.01.042-2.357 1.263-2.32 1.412.042 3.906-.428 5.092.73.74.726.91 1.99.899 3.178 1.497.056 3.074.07 4.072 1.43 1.032 1.405.81 3.819.859 5.48.07 2.446-.61 2.987-2.344 4.66-1.16 1.12-2.852 3.663-4.6 3.725-1.536.056-4.044-2.389-5.143-3.364-1.515-1.345-1.356-2.828-1.404-4.84-.055-2.221-.19-6.248 1.869-7.086"/>
        <path fill="#554D56" d="M398.718 181.176c1.05-.067 2.115.65 2.521 1.788.616 1.718-.658 3.662-2.314 3.924-1.757.278-3.4-1.371-3.174-3.244.179-1.482 1.577-2.624 2.967-2.468"/>
        <g fill="#C1BEC1">
            <path d="M145.23 12.754a.983.983 0 0 1-.242-.66c-.776.174-1.552.348-2.328.52-.566.127-1.688.128-2.102.472-.42-.053-.531.074-.333.382.08.388.288.707.629.957 1.494 2.058 3.189 4.002 4.81 5.97 1.644-.883 3.286-1.767 4.93-2.652a31.72 31.72 0 0 1-5.364-4.99m22.666 4.211c-.051.492-.402 1.031-.975.986a126.063 126.063 0 0 0-13.55-.314c.108.398-.009.842-.433 1.072l-6.552 3.526c-.203.423-.653.707-1.077.58l-.134.073c-1.022.55-1.947-.832-1.223-1.524-1.132-1.401-2.265-2.802-3.396-4.204-.808-1-2.673-2.51-2.765-3.908-.066-1.015.715-1.56 1.558-1.878 2.167-.817 4.724-1.082 6.985-1.589 1.222-.272 1.756 1.586.554 1.882a30.484 30.484 0 0 0 4.293 4.09c.04-.008.08-.018.122-.02 4.922-.225 9.829-.152 14.74.198l1.53-14.694c.13-1.242 2.093-1.267 1.961-.011l-1.638 15.735"/>
            <path d="M145.758 24.303a66.67 66.67 0 0 0-.753 9.714c-.008 1.261-1.97 1.275-1.962.011.02-3.436.302-6.84.82-10.236.192-1.244 2.084-.727 1.895.511"/>
            <path d="M137.815 45.24c2.404.587 7.724 2.11 8.558.03.455-1.135.13-2.989.162-4.202l.082-3.043a44.495 44.495 0 0 0-9.105-.265c.25 2.49.35 4.978.303 7.48m-1.376-9.357a46.23 46.23 0 0 1 10.23.184v-.054c.035-1.26 1.996-1.275 1.963-.01l-.01.392c.655.31.532 1.257-.042 1.649-.048 1.924-.094 3.847-.156 5.77-.048 1.438-.103 2.964-1.366 3.895-.992.73-2.257.7-3.426.553-2.362-.297-4.72-.86-7.064-1.293-.406-.075-.738-.54-.725-.943a62.662 62.662 0 0 0-.38-9.157c-.064-.56.497-.942.976-.986M121.654 11.506c4.512 1.022 9.032 1.298 13.635.868 1.256-.118 1.26 1.845.01 1.961-4.78.447-9.478.125-14.156-.935-1.23-.28-.72-2.173.511-1.894M158.06 59.969l1.23 6.183 3.621.176c1.49.072 3.555.54 4.99.242 1.724-.357 2.244-3.587 2.548-6.23a.956.956 0 0 1-.179.013l-6.46-.204a1.13 1.13 0 0 1-.545-.017l-5.204-.163zm-7.71-16.902l13.573 2.761c.398.081.746.534.725.942-.198 3.814-.24 7.624-.143 11.44l5.755.182a.97.97 0 0 1 .4.093c.038-.306.076-.588.118-.821.225-1.24 2.118-.726 1.894.511-.424 2.337-.812 4.684-1.27 7.014-.219 1.113-.272 2.439-1.368 3.076-1.194.696-3.08.22-4.34.16l-7.209-.352c-.405-.019-.864-.282-.95-.714-.54-2.714-1.08-5.429-1.618-8.143-.118-.597.26-1.268.94-1.246l5.685.178c-.089-3.53-.052-7.053.112-10.58L149.84 44.96c-1.236-.252-.723-2.145.512-1.894zM150.893 39.791c-1.233.191-1.776-1.696-.53-1.888 4.957-.77 10.008-.278 14.998-.087l16.689.644c1.257.048 1.275 2.01.01 1.961l-15.405-.593c-5.19-.2-10.603-.837-15.762-.037"/>
        </g>
        <g>
            <path fill="#FFF" d="M218.67 108.869c1.859 12.525 8.243 24.014 19.875 29.719 5.777 2.833 12.144 4.143 18.537 4.46 6.056.298 12.376-1.394 18.274.384 4.61 1.39 8.738 4.05 13.253 5.709 6.48 2.38 13.371 2.72 20.171 1.825 13.275-1.747 28.048-6.376 36.16-17.84 3.009-4.252 4.428-9.08 5.558-14.104 1.505-6.687 2.543-13.52 2.683-20.382.164-7.995-.923-16.112-3.96-23.54-2.815-6.885-7.428-12.992-12.06-18.75-8.994-11.178-20.372-20.496-34.328-24.472-6.939-1.977-13.98-2.285-21.14-2.353-6.128-.058-12.247.127-18.322.988-7.22 1.022-14.464 3.011-20.736 6.846-6.084 3.724-10.854 9.244-14.433 15.382-7.808 13.39-10.77 29.683-10.443 45.06.078 3.709.404 7.394.911 11.068.328 2.378-.35-2.363 0 0"/>
            <path fill="#554D56" d="M249.21 138.303c6.532 1.4 12.921.958 19.518.586 4.607-.261 8.863 1.154 12.985 3.078 4.408 2.057 8.667 4.196 13.485 5.135 7.51 1.462 15.378.167 22.693-1.715 11.135-2.865 22.656-8.66 27.019-20.064 1.853-4.843 2.747-10.259 3.536-15.364 1.077-6.964 1.43-14.15.52-21.155-1.883-14.46-10.775-26.752-20.738-36.932-10.089-10.308-22.86-17.2-37.344-18.356-11.594-.925-24.22-.714-35.447 2.445-6.748 1.898-12.95 5.13-17.81 10.27-4.846 5.126-8.317 11.508-10.765 18.1-5.092 13.71-6.592 29.061-4.595 43.542.475 3.198 1.18 6.355 2.266 9.402 3.998 11.221 13.2 18.57 24.678 21.028m-21.009-85.562c3.579-6.137 8.349-11.658 14.433-15.381 6.272-3.836 13.517-5.825 20.736-6.847 6.075-.861 12.194-1.046 18.322-.988 7.16.069 14.201.376 21.14 2.353 13.956 3.975 25.334 13.294 34.328 24.472 4.632 5.758 9.245 11.865 12.06 18.75 3.037 7.428 4.124 15.546 3.96 23.54-.14 6.862-1.178 13.695-2.683 20.382-1.13 5.025-2.55 9.852-5.557 14.104-8.113 11.465-22.886 16.093-36.16 17.84-6.8.896-13.692.555-20.172-1.824-4.515-1.659-8.643-4.321-13.253-5.71-5.898-1.778-12.218-.085-18.274-.385-6.393-.316-12.76-1.626-18.536-4.46-11.633-5.704-18.017-17.193-19.876-29.718-.507-3.674-.832-7.36-.91-11.069-.327-15.376 2.634-31.67 10.442-45.06M253.783 17.902c-3.494 2.055-6.847 4.398-10.061 6.867-5.077 3.9-10.356 8.365-13.352 14.153-.885 1.709 1.69 3.227 2.577 1.513 2.932-5.666 8.243-10.054 13.251-13.815 2.918-2.19 5.945-4.28 9.091-6.13 1.657-.975.157-3.566-1.506-2.588"/>
            <path fill="#554D56" d="M244.53 30.126a163.977 163.977 0 0 0-7.171 9.525c-2.84 4.064-6.615 8.92-7.192 14.016-.217 1.914 2.769 1.898 2.984 0 .228-2.019 1.454-4.012 2.435-5.736 1.419-2.493 3.02-4.882 4.67-7.223a154.042 154.042 0 0 1 6.384-8.463c1.204-1.482-.895-3.615-2.11-2.12M259.946 18.136c-5.71 5.998-12.253 13.792-13.811 22.143-.352 1.885 2.523 2.693 2.877.797 1.466-7.861 7.67-15.175 13.045-20.821 1.327-1.394-.78-3.517-2.11-2.119M267.174 13.943a124.928 124.928 0 0 0-7.722 12.576c-1.653 3.083-3.21 6.277-4.29 9.615-.79 2.451-1.538 5.429-.572 7.94.684 1.78 3.57 1.006 2.877-.798-.883-2.299.103-5.055.881-7.249 1.164-3.271 2.772-6.383 4.454-9.41 2.128-3.826 4.438-7.575 6.948-11.162 1.107-1.581-1.479-3.08-2.576-1.512M267.911 44.276c-1.945-5.136.27-11.493 2.022-16.394 1.211-3.39 2.628-6.737 4.293-9.928l-2.344.303c5.619 5.663 12.129 12.884 14.04 20.82.451 1.875 3.33 1.08 2.877-.796-2.03-8.433-8.836-16.125-14.806-22.144-.653-.658-1.894-.557-2.343.304-1.871 3.584-3.453 7.364-4.784 11.18-1.833 5.258-3.908 11.969-1.832 17.452.676 1.785 3.562 1.01 2.877-.797"/>
            <path fill="#554D56" d="M272.44 19.196c.242 7.138.473 14.35 0 21.481-.128 1.926 2.857 1.918 2.985 0 .472-7.132.242-14.343 0-21.481-.066-1.925-3.05-1.933-2.984 0M282.824 23.253c5.273 5.335 9.6 12.42 11.055 19.821.372 1.89 3.25 1.09 2.878-.796-1.552-7.883-6.21-15.466-11.822-21.144-1.356-1.371-3.466.748-2.11 2.12M282.824 15.759c3.198 2.948 6.27 6.046 9.25 9.216 4.603 4.899 9.683 10.204 12.4 16.46.766 1.763 3.337.238 2.576-1.514-2.731-6.287-7.85-11.694-12.464-16.635-3.102-3.323-6.31-6.565-9.651-9.646-1.413-1.304-3.528.811-2.11 2.119"/>
            <path fill="#554D56" d="M290.586 18.491c9.467 4.654 18.19 13.32 21.198 23.584.54 1.847 3.421 1.06 2.877-.797-3.218-10.983-12.416-20.384-22.568-25.375-1.719-.844-3.233 1.74-1.507 2.588"/>
            <path fill="#554D56" d="M301.226 20.255c6.23 4.972 12.54 10.808 16.676 17.682.992 1.648 3.574.144 2.576-1.513-4.274-7.107-10.704-13.15-17.142-18.288-1.489-1.188-3.614.92-2.11 2.119M321.617 37.241c4.376 5.385 7.307 12.493 8.568 19.321.35 1.895 3.227 1.093 2.878-.796-1.361-7.37-4.59-14.804-9.336-20.644-1.215-1.495-3.315.636-2.11 2.12"/>
            <path fill="#554D56" d="M308.491 20.49c7.148 3.242 12.993 10.189 17.37 16.448 1.094 1.567 3.682.07 2.576-1.513-4.66-6.665-10.83-14.073-18.44-17.524-1.737-.787-3.255 1.796-1.506 2.588M323.411 25.486c8.064 5.75 15.167 14.141 21.58 21.747 1.243 1.474 3.346-.655 2.11-2.12-6.628-7.86-13.747-16.2-22.183-22.216-1.57-1.119-3.061 1.48-1.507 2.589M346.25 41.434c2.853 4.289 6.02 8.398 9.311 12.356 5.39 6.484 11.495 13.243 19.077 17.157 1.704.88 3.216-1.705 1.505-2.587-7.359-3.8-13.24-10.396-18.473-16.69-3.127-3.762-6.13-7.67-8.842-11.748-1.063-1.597-3.648-.097-2.578 1.512M350.23 58.42c7.674 11.354 17.789 21.568 28.883 29.513 1.566 1.122 3.058-1.476 1.507-2.588-10.653-7.63-20.443-17.532-27.814-28.438-1.073-1.587-3.659-.09-2.577 1.513"/>
            <path fill="#554D56" d="M328.083 36.242c6.47 6.855 11.682 15.217 16.065 23.517 3.288 6.226 6.455 12.094 11.059 17.474 3.74 4.37 7.937 8.348 12.398 11.967 2.263 1.836 4.583 3.645 7.032 5.228 1.619 1.047 3.117-1.547 1.506-2.589-6.522-4.216-12.495-9.619-17.664-15.397-4.748-5.308-8.068-11.104-11.331-17.388a129.747 129.747 0 0 0-10.865-17.432c-1.911-2.58-3.885-5.163-6.09-7.499-1.325-1.403-3.432.718-2.11 2.119M347.245 72.908c2.292 4.02 4.8 7.93 7.428 11.734 3.93 5.696 8.235 11.81 13.996 15.78 1.587 1.095 3.082-1.502 1.506-2.588-5.622-3.876-9.814-10.114-13.6-15.69-2.375-3.496-4.658-7.074-6.753-10.749-.954-1.674-3.534-.166-2.577 1.513M356.113 103.279c1.835 3.478 3.973 6.831 6.287 10.005 3.208 4.401 7.137 9.426 12.51 11.167 1.832.593 2.617-2.3.793-2.891-5.034-1.631-8.832-7.032-11.719-11.184-1.92-2.76-3.723-5.633-5.293-8.61-.9-1.705-3.477-.191-2.578 1.513M346.62 101.963c-.86-2.367 3.039-3.374 3.891-1.031 1.71 4.706 3.896 9.294 6.349 13.68 3.187 5.697 8.385 15.016 15.917 15.952 2.543.315 2.567 4.2 0 3.88-8.687-1.077-14.375-9.333-18.365-16.073-3.081-5.203-5.736-10.75-7.792-16.408zM343.461 119.25c-1.19-2.22 2.294-4.181 3.484-1.96 2.013 3.755 4.36 7.38 6.887 10.832 3.25 4.44 8.575 11.926 14.91 12.146 2.592.09 2.596 3.973 0 3.882-7.185-.25-12.685-6.732-16.666-11.793-3.233-4.11-6.156-8.522-8.615-13.107zM340.75 127.674c-1.03-2.27 2.447-4.244 3.483-1.959 3.81 8.39 10.245 19.145 19.643 22.4 2.43.84 1.374 4.591-1.073 3.744-10.52-3.645-17.764-14.734-22.053-24.185zM334.675 135.173c-.973-2.32 2.93-3.32 3.89-1.032 3.345 7.98 10.1 19.05 19.438 22.584 2.394.904 1.345 4.658-1.072 3.743-10.837-4.1-18.06-15.288-22.256-25.295z"/>
            <path fill="#554D56" d="M352.068 88.037a109.111 109.111 0 0 0 3.813 8.912c1.725 3.59 3.778 8.303 7.318 10.467 1.644 1.007 3.146-1.585 1.505-2.587-3.137-1.918-4.98-6.714-6.482-9.89a100.287 100.287 0 0 1-3.276-7.7c-.67-1.788-3.556-1.013-2.878.798"/>
            <g fill="#554D56">
                <path d="M212.316 57.265c-1.15 5.409-1.982 10.9-2.665 16.385-1.16 9.332-1.985 19.054-.32 28.374.34 1.896 3.215 1.093 2.878-.796-1.612-9.02-.697-18.551.426-27.578.65-5.22 1.465-10.443 2.558-15.589.4-1.88-2.477-2.685-2.877-.796"/>
                <path d="M215.247 102.625c14.732 1.222 29.788.375 44.514-.892 1.708-8.483 3.237-17.062 3.638-25.72.132-2.843.133-5.696-.09-8.536-.104-1.307-.183-2.693-.486-3.972-.235-.984-.152-.71-.935-1.162-1.097-.63-2.415-1.021-3.6-1.46-7.162-2.654-14.759-4.043-22.4-3.653-6.667.343-14.227 1.918-19.89 5.724-1.6 1.077-3.092-1.52-1.504-2.589 2.401-1.614 5.243-2.722 7.965-3.638 5.699-1.916 11.79-2.727 17.79-2.53a57.98 57.98 0 0 1 11.713 1.614 63.486 63.486 0 0 1 7.12 2.181c1.63.605 4.525 1.3 5.808 2.491 1.5 1.393 1.337 5.874 1.46 7.81.206 3.223.137 6.461-.078 9.682-.577 8.596-2.121 17.118-3.832 25.548-.137.678-.815 1.046-1.438 1.101-15.121 1.326-30.61 2.254-45.755.999-1.904-.157-1.915-3.156 0-2.998M326.14 106.723c.157-.396.326-.876.524-1.482.814-2.488 1.378-5.061 1.843-7.636 2.072-11.488 2.112-23.35 1.662-34.985-9.402-4.535-20.047-5.76-30.38-5.383-4.903.18-9.896.639-14.708 1.696-4.093 14.84-5.763 30.627-6.144 45.975 15.304 3.185 31.662 3.42 47.204 1.815m-43.7-49.458c.002-.01.007-.018.01-.027.097-.467.42-.876 1.032-1.02 15.746-3.705 34.305-3.196 48.894 4.148.475.239.719.788.74 1.294.436 10.682.398 21.45-1.011 32.063-.563 4.24-1.287 8.526-2.654 12.589-.62 1.837-.903 3.164-3.02 3.38-16.288 1.66-33.397 1.375-49.415-2.124-.626-.136-1.108-.82-1.095-1.445.332-16.276 2.068-33.137 6.519-48.858"/>
                <path d="M265.733 82.47c3.936-1.943 9.2-1.16 13.205.15 1.83.6 2.614-2.294.793-2.89-4.833-1.581-10.766-2.186-15.504.15-1.724.852-.213 3.438 1.506 2.59"/>
            </g>
            <path fill="#554D56" d="M279.087 105.633c1.461 1.689 10.924 5.182 12.548.033 2.146-6.802-4.672-13.954-8.094-13.205-3.113.681-7.335 9.843-4.454 13.172zM234.137 102.018c-3.98 6.994-14.134 3.512-14.423-1.999a8.498 8.498 0 0 1 11.688-9.065c3.577 1.96 4.835 7.372 2.735 11.064M271.5 142.227c.981 3.467 2.332 7.869 1.49 11.457-.438 1.876 2.439 2.677 2.878.797.973-4.155-.354-9.034-1.49-13.051-.524-1.853-3.403-1.066-2.878.797"/>
            <path fill="#FFF" d="M312.92 160.065l-37.614-8.748-38.488-1.748-3.499 54.233 89.056 21.072 1.967-3.541-3.716-38.074-4.115-21.54z"/>
            <path fill="#554D56" d="M254.444 151.136c.743.18 6.097.565 10.895.848 5.03.296 9.934.878 14.926 1.621 9.607 1.432 19.643 2.835 28.784 6.261 1.383.519 2.969 1.101 4.113 2.073 1.01.857 1.211 2.191 1.55 3.454 1.932 7.167 3.128 14.578 4.23 21.91 2.494 16.578 3.619 33.444 3.73 50.21.013 1.927 2.997 1.932 2.984 0-.101-15.331-1.072-30.743-3.114-45.934-1.141-8.487-2.494-17.006-4.53-25.33-.892-3.649-1.631-6.188-5.1-7.958-4.115-2.1-8.793-3.183-13.265-4.198-5.408-1.228-10.875-2.187-16.352-3.038-5.585-.866-11.145-1.667-16.783-2a61843 61843 0 0 1-16.55-.974c-1.274-.075 3.739 2.874 4.482 3.055M335.98 86.568c-2.935 16.162 3.355 30.837 14.05 32.78 10.695 1.942 21.744-9.584 24.68-25.745 2.936-16.16-3.355-30.838-14.05-32.78-10.694-1.943-21.744 9.583-24.68 25.745"/>
            <path fill="#554D56" d="M361.07 114.19c8.147 1.48 16.565-7.3 18.801-19.611 2.237-12.312-2.555-23.492-10.702-24.972-8.147-1.48-16.565 7.301-18.802 19.612-2.236 12.311 2.556 23.491 10.704 24.972zM354.402 64.167s-19.613-44.936-56.353-48.435c-7.872-.875-29.741-1.75-40.238 2.625 0-3.5 3.499-6.124 12.247-7.873 20.12-4.374 35.864-1.75 54.233 5.248 29.742 9.622 43.738 50.735 43.738 50.735l-13.627-2.3zM299.763 60.492c-3.975 1.635-8.072 2.804-12.332 3.404-2.189.308-5.437 1.219-7.058-.768-1.06-1.297.786-3.164 1.855-1.855 1.26 1.543 7.438-.38 8.92-.726 2.72-.634 5.336-1.524 7.918-2.586 1.56-.641 2.24 1.896.697 2.53M269.021 56.574c-3.676-3.79-8.156-6.277-13.308-7.42-1.648-.365-.95-2.895.698-2.53 5.564 1.235 10.497 4.004 14.466 8.094 1.177 1.213-.677 3.071-1.856 1.856M304.263 181.548c2.762 17.127-15.41 28.518-29.803 32.038-1.433.35-2.045-1.86-.61-2.211 12.938-3.164 30.738-13.488 28.202-29.218-.233-1.443 1.976-2.064 2.21-.609M310.644 123.455c-3.952 6.112-11.002 11.066-18.571 10.142-1.445-.178-1.464-2.473 0-2.293 6.789.828 13.04-3.512 16.591-9.006.799-1.236 2.784-.087 1.98 1.157"/>
        </g>
        <g>
            <path fill="#FFF" d="M131.687 176.741L2.545 227.343l271.108 121.443 112.656-108.563z"/>
            <g transform="matrix(-1 0 0 1 388.26 187.185)">
                <mask id="d" fill="#fff">
                    <use xlink:href="#c"/>
                </mask>
                <path fill="#554D56" d="M386.449 37.004l-11.926-4.493A1434622.587 1434622.587 0 0 1 289.843.604c-1.804-.68-2.576 2.22-.794 2.891l11.926 4.493 51.919 19.562 29.23 11.014c-.336.176-.664.347-.981.492-2.332 1.065-4.663 2.132-6.995 3.198l-22.42 10.252a1837619.39 1837619.39 0 0 1-67.955 31.072l-78.566 35.925c-21.64 9.897-43.282 19.792-64.923 29.688l-25.97 11.875c-4.379-4.203-8.757-8.406-13.134-12.61L40.646 90.343 4.524 55.663l13.02-3.708 68.052-19.376L128.33 20.41c1.847-.526 1.057-3.418-.794-2.89l-15.54 4.425-68.052 19.376L1.211 53.49c-1.06.302-1.48 1.716-.658 2.506l13.882 13.327 60.533 58.115 37.983 36.467c.516.495 1.184.52 1.809.234.158-.072.316-.152.477-.218 11.192-4.591 22.094-10.103 33.093-15.132l67.956-31.074 78.565-35.924 64.924-29.688 27.03-12.36c1.283-.586.708-2.339-.356-2.74" mask="url(#d)"/>
            </g>
            <g fill="#C1BEC1">
                <path d="M266.026 275.547c-1.575.125-2.652-.784-4.13-1.167-2.147-.556-4.322.025-6.02 1.414-.37.303-.9-.225-.527-.53 1.256-1.027 2.664-1.68 4.295-1.814 2.315-.192 4.203 1.521 6.382 1.348.479-.04.475.71 0 .749M249.81 293.393c1.43-.194 2.816-.002 4.101.581.058-.503.172-1.007.24-1.46l.609-4.056c.03-.203.28-.307.458-.261l2.732.706c.466.12.267.843-.198.722l-2.328-.601-.467 3.11c-.101.677-.295 1.523-.256 2.248a.023.023 0 0 0 .006.003c.226.137.21.39.086.553.168.561.586.97 1.485 1.022.221.013 1.296.148 1.484.041.146-.083.236-.263.295-.48a.401.401 0 0 1 .084-.46c.041-.398.028-.816.043-1.045a19.886 19.886 0 0 0-.179-4.077c-.066-.473.652-.674.72-.199.247 1.751.277 3.478.1 5.211 2.329-.089 4.556-.598 6.644-1.686 1.545-.805 2.84-1.916 4.547-2.369.466-.123.662.6.198.723-2.144.57-3.843 2.181-5.905 2.994-1.806.713-3.663 1.027-5.586 1.088-.036.262-.06.525-.107.789-.027.156-.21.279-.36.275-.631-.018-1.443.052-2.196-.024.08.939.14 1.882.133 2.826-.004.434.05.935-.266 1.28-.623.683-2.386.34-3.145.056-2.425-.906-2.198-3.885-1.814-5.965.088-.474.806-.271.719.2-.301 1.628-.637 4.11 1.184 4.978.497.237 1.016.28 1.563.297.776.022.895-.082 1.013-.846.143-.93-.05-2.027-.141-2.967-.58-.173-1.059-.509-1.29-1.151a2.45 2.45 0 0 1-.13-.662 6.504 6.504 0 0 0-3.878-.671c-.47.064-.672-.658-.199-.723"/>
                <path d="M260.727 302.127c.158.98.239 1.543 1.33 1.849.39.109 1.6.31 1.888.052.382-.344.053-2.084-.034-2.567-.133-.74-.364-1.479-.773-2.114-.771-1.197-1.926-1.407-3.125-1.656l.714 4.436zm-1.764-5.475c2.159.726 4.033.58 5.14 2.91.419.882.583 1.843.665 2.81.05.589.339 1.779-.148 2.285-.442.461-1.28.198-1.815.143-.667-.067-1.622-.003-2.165-.496-.58-.528-.564-1.552-.676-2.254-.238-1.47-.474-2.94-.711-4.411a.386.386 0 0 1 .004-.123 7.06 7.06 0 0 1-.492-.142c-.453-.152-.257-.875.198-.722z"/>
                <path d="M268.194 306.042v6.753a14.214 14.214 0 0 1 3.653 1.963c-.342-1.148-.341-2.603-.432-3.675-.178-2.107-.191-4.214-.097-6.325a.358.358 0 0 1 .106-.24c-1.127.454-2.23.927-3.36 1.245.076.06.13.15.13.28m3.862 3.46c.039.79.098 1.58.179 2.367.05.51.112 1.016.187 1.521.122.404.125.8.028 1.188l3.67-1.342c1.544-.565 1.85-1.075 1.89-2.717.057-2.31.152-4.62.267-6.929l-.004-.027c-.003-.023.002-.044.002-.066-1.435-.236-2.872-.284-4.397.145-.74.21-1.454.476-2.158.756.182.005.355.124.344.36a49.383 49.383 0 0 0-.008 4.745m8.35 2.066c.14.743.206 2.7.708 3.113.045.037 1.005.15 1.182.185.428.084.856.172 1.285.246.357-3.343.53-6.69.518-10.05-.887-.26-1.807-.641-2.405-.791-.903-.226-1.782-.456-2.657-.637.42 2.65.871 5.297 1.37 7.934m-16.676-6.444c3.652 1.05 6.595-1.236 9.949-2.205 1.617-.467 3.116-.43 4.637-.18l.002-.046c.026-.48.771-.481.746 0l-.007.182c.632.128 1.274.283 1.932.447 1.02.254 4.016 1.517 4.842.917.603-.439.323-1.358.316-2.076-.015-1.525.338-2.015-1.384-2.806-2.739-1.258-5.798-1.907-8.571-3.186a.3.3 0 0 1-.186-.237c-.128.042-.258.08-.386.122.061 1.865.285 3.703.677 5.53.101.47-.618.67-.719.199a32.207 32.207 0 0 1-.692-5.5 117.746 117.746 0 0 1-10.578 2.786c-.47.1-.668-.623-.199-.723 4.102-.875 8.14-1.965 12.126-3.27.328-.108.517.232.432.49 2.413 1.108 4.878 2.066 7.424 2.817 1.018.301 2.161.304 2.697 1.281.404.738.405 3.955.103 4.719-.217.549-.262.654-.864.86-.314.109-.732.082-1.185-.003a91.126 91.126 0 0 1-.526 9.973c.915.103 1.829.082 2.737-.27.731-.283 1.704-.702 1.95-1.597.193-.709-.254-1.972-.392-2.681-.35-1.793-.627-3.43-.114-5.222.133-.464.853-.266.72.198-.677 2.36.225 4.479.459 6.812.062.62.312 1.946-.241 2.504-.73.737-2.856.95-3.77 1.102-.578.096-1.13.212-1.722.143-.745-.087-2.526-.842-2.997-.581-.198.11-.5.02-.548-.224a282.757 282.757 0 0 1-1.528-8.292 290.613 290.613 0 0 0-.163 5.714c-.003.176-.115.304-.274.362l-5.43 1.987.013.098c.023.174-.138.305-.275.362l-.165.069c-.148.06-.348-.044-.42-.173-.025-.042-.04-.09-.062-.134-.093.167-.282.262-.476.114a13.763 13.763 0 0 0-3.425-1.923v.686c0 .483-.747.482-.747 0v-.936c-.15-.048-.296-.108-.45-.15-.462-.132-.264-.855.198-.724.086.025.167.06.252.085v-6.504c0-.05.013-.09.027-.13-1.247.28-2.538.339-3.941-.064-.461-.133-.264-.855.198-.722"/>
                <path d="M293.884 301.492c.023.112.043.22.058.328a.316.316 0 0 1 .254-.085c1.627.138 3.213.423 4.775.842a33.324 33.324 0 0 1-.282-5.536c.016-.481.762-.482.746 0-.062 1.82.026 3.624.266 5.427 1.549-.233 4.648-.472 4.796-1.875.08-.757-.376-1.977-.52-2.728l-.079-.416c-.039.006-.084.01-.122.017-.47.084-.67-.639-.197-.723.057-.01.12-.017.18-.026l-.168-.878a15.033 15.033 0 0 1-3.411 1.058c-.47.086-.67-.637-.198-.722a14.32 14.32 0 0 0 3.698-1.189c.2-.096.5-.032.548.224l.27 1.407c.399-.051.8-.114 1.152-.242 1.057-.385 1.168-.607 1.424-1.648.338-1.371.427-2.855.593-4.275-2.95.28-5.803.903-8.589 1.87.124 1.392.172 2.92-.406 3.666-.418.539-1.513.545-2.06.663l-2.392.517c.008.047.02.094.029.141.044.275-.163.542-.46.462-.343-.094-.685-.193-1.029-.287a.684.684 0 0 0-.038.008c-.01.002-.02 0-.03 0 .414 1.32.91 2.654 1.192 4zm4.285-8.837c-.203.076-.407.148-.608.228-.448.177-.64-.548-.2-.723.256-.1.514-.193.77-.288-.155-1.395-.801-1.226-2.438-1.018l-3.241.413a25.508 25.508 0 0 1 1.622 5.167l2.34-.506c1.018-.22 1.1-.062 1.532-1.049.318-.728.233-1.457.223-2.224zm-6.244-8.488c-.229-.201-1.32-.063-2.471.197-.915.736-1.871 1.417-2.697 1.642-.26.07-.448.097-.622.084-.292 1.566 1.639 4.012 2.468 5.092.46-.204.925-.394 1.416-.537.196-.058 1.437-.222 1.57-.34.502-.447 1.012-5.546.336-6.138zm-1.22-.839a3.59 3.59 0 0 0 .07-.021l-.013-.026-.058.047zm6.044-2.85c1 .182 3.327.114 4.093.836.175.165.277.331.335.5.027-.017.05-.038.083-.05l1.295-.488-5.696-2.254c-.385-.153-.339-.714.099-.736 2.78-.144 5.45-.648 8.087-1.479-.37-.19-.733-.39-1.134-.543-2.309-.886-3.35-.258-5.266.577-2.002.873-3.982 1.804-5.971 2.705-.435.197-.814-.449-.377-.647 1.477-.669 2.953-1.398 4.443-2.087a.31.31 0 0 1-.158-.234l-.487-2.798a2257.7 2257.7 0 0 1-5.542 2.928c.064.9.143 1.8.254 2.696l5.942 1.075zm3.228 8.302c.975-.271 1.997-.515 2.908-.909 1.445-.624 1.046-.97.934-2.321-.067-.816.006-1.818-.214-2.614.2-.614.036-.97-.497-1.07l-1.65.62a.31.31 0 0 1-.237-.002c-.035.266-.11.555-.161.884-.289 1.812-.709 3.614-1.083 5.412zm-9.497-6.697a19.975 19.975 0 0 0-6.797-1.634c-.23-.015-.347-.197-.356-.377a.34.34 0 0 1-.313-.096l-2.702-2.63c.007.057.01.113.017.17.046.392-.44.454-.652.205a.353.353 0 0 1-.166.11 177.33 177.33 0 0 1-5.663 1.631c.04.001.083.005.13.024.63.26 1.258.524 1.882.793.205-.11.493-.04.538.213l.03-.007c.21-.046.361.076.426.232 1.81.8 3.6 1.643 5.359 2.552.697.36 1.375.775 2.085 1.107.362.27.755.46 1.18.573l3.102-.962c.678-.47 1.337-1.011 1.983-1.52-.027-.129-.058-.256-.083-.384zm-.338-2.07c-.172-.107-.177-.341-.065-.505a52.66 52.66 0 0 1-.232-2.426l-.35.185c-.425.224-.802-.423-.376-.647l.669-.354c-.064-.999-.113-1.998-.165-2.998-.269.003-.52-.37-.288-.653.074-.089.16-.163.24-.245-.143-2.619-.348-5.233-.947-7.821a.376.376 0 0 1-.18.322c-1.175.695-2.463 1.321-3.838 1.458.047 4.556.389 9.08 1.041 13.589 1.608.251 3.16.685 4.674 1.3a34.19 34.19 0 0 1-.183-1.205zm-5.906-16.552c-1.003.235-2.011.75-2.986 1.203.207.102.42.216.648.33 1.987.992 3.798.522 5.614-.458-1.018-.63-2.125-1.345-3.276-1.075zm-9.985 24.218a.355.355 0 0 1 .148.016c4.27 1.406 8.64 3.239 13.185 3.345a15.139 15.139 0 0 1-2.368-5.296l-.058-.03c-2.948-1.454-5.81-2.99-8.779-4.361a30.795 30.795 0 0 0 .162 4.642.352.352 0 0 1-.017.159l.456-.148c.458-.149.652.575.198.723l-2.927.95zm-6.057-8.536a97.241 97.241 0 0 1 2.583-.81c-.1-3.27.113-6.507.656-9.741a5.212 5.212 0 0 0-.277-.19c-.958-.597-1.907-1.093-2.962-1.462v12.203zm3.338-11.389c1.722.735 4.233-1.115 5.818-1.916a.369.369 0 0 1 .146-.04c-1.44-.188-3.03-.007-4.396-.413-1.653-.492-2.162-.278-3.54.66-.22.15-.428.275-.639.388.893.406 1.678.925 2.61 1.321zm-16.896 12.756c.006.022.018.04.021.065l.012.15.294-.06a.412.412 0 0 1-.327-.155zm5.974-2.432a18.328 18.328 0 0 0-5.067-1.284c.078.737.078 1.47-.003 2.201a44.51 44.51 0 0 0 5.07-.917zm26.265 26.963l3.857-1.38c.485-.173 1.268-.282 1.654-.592 1.157-.927.66-1.81.363-2.793-.17-.558-.275-1.23-.532-1.757-.509-1.043-.684-.868-1.937-.637-1.261.232-2.476.6-3.675 1.052-.45.17-.643-.554-.199-.722a22.057 22.057 0 0 1 4.686-1.195 254.223 254.223 0 0 1-11.554-3.565c-.454-.152-.258-.876.198-.723a253.639 253.639 0 0 0 13.05 3.984l.563-.122a24.45 24.45 0 0 0-1.75-5.442c-.01-.023-.007-.043-.014-.065a12.347 12.347 0 0 0-3.372 1.095c-.308.15-.583-.136-.56-.39-4.65-.085-9.08-1.932-13.452-3.37-.345-.114-.315-.556-.081-.698-.904.292-1.808.586-2.71.88a.364.364 0 0 1 .088.212c.102 1.497.07 2.986-.09 4.477 3.036-.678 6.076-1.34 9.12-1.981.47-.1.668.623.199.722a778.093 778.093 0 0 0-19.217 4.302c-.468.11-.665-.613-.198-.723a763.984 763.984 0 0 1 9.335-2.152l-.001-.002a25.47 25.47 0 0 0 .105-4.643l-7.208 2.339c-.46.148-.654-.575-.199-.724l12.692-4.115a.383.383 0 0 1-.242-.318 30.94 30.94 0 0 1-.165-4.56 132.291 132.291 0 0 0-8.508 2.198c-.972.29-2.309.957-3.322.969-.075.001-.158-.016-.24-.026a.377.377 0 0 1 .025.121l.003 3.092c0 .543.136 1.337-.144 1.847-.495.903-1.75.395-2.518.25-1.129-.21-1.915-.135-2.14-1.324-.342-1.803-.232-3.827-.342-5.66-.03-.483.716-.48.746 0l.201 3.345c.055.913-.183 2.357.757 2.735.353.142 1.343.389 1.709.32.997-.19.987-.664.986-1.513l-.004-3.092c0-.118.044-.205.11-.265-.94-.327-2.041-1.036-2.884-1.283-.393-.115-.305-.654.015-.727a.394.394 0 0 1 .242-.345 100.5 100.5 0 0 1 7.145-2.696c-.007-.028-.019-.052-.019-.085v-.51l-.004.002a597.994 597.994 0 0 1-12.582 2.66.366.366 0 0 1-.13 0c.172 1.989.216 3.975.116 5.972-.016.301-.302.444-.562.324-1.264-.582-2.518-.77-3.888-.634-.189.018-.39-.187-.374-.375l.628-6.904c.016-.186.16-.395.373-.375 1.056.1 1.897.448 2.717 1.126.372.307-.159.834-.528.53a3.762 3.762 0 0 0-1.856-.852l-.553 6.086c1.16-.06 2.24.123 3.313.538.08-2.109.016-4.207-.206-6.309-.042-.4.466-.458.666-.192a.378.378 0 0 1 0-.18c.03-.118.046-.236.072-.354-.219.022-.435.055-.653.074-.48.042-.475-.707 0-.749.265-.023.526-.063.79-.09a9.232 9.232 0 0 0-.047-2.79c-.076-.446.555-.642.694-.264a19.51 19.51 0 0 1 5.865 1.522c.158.068.208.195.19.32a46.313 46.313 0 0 0 2.405-.7c.46-.15.654.575.2.721a45.633 45.633 0 0 1-8.669 1.866c-.04.215-.073.429-.127.642a.332.332 0 0 1-.18.232c4.052-.815 8.094-1.67 12.129-2.567a.355.355 0 0 1 .201.014v-11.643c0-.226.166-.342.34-.356l.007-.005c1.649-.43 2.616-2.334 4.462-1.953 1.099.226 1.648.88 2.869.943.666.035 1.334-.055 2-.038.962.026 1.752.196 2.582.694.412.247.036.895-.377.647-.51-.305-1.08-.46-1.677-.55.264.1.394.503.073.665-1.255.636-2.51 1.276-3.768 1.906-.406.203-1.114.672-1.604.632-.082-.007-.153-.031-.227-.053a48.359 48.359 0 0 0-.61 9.148c.448-.13.894-.27 1.345-.393.465-.128.66.596.198.723-.51.14-1.015.296-1.522.445.01.22.006.439.018.66.027.482-.719.478-.746 0-.008-.15-.004-.296-.012-.444a99.97 99.97 0 0 0-9.909 3.542c.822.321 1.66.749 2.476.914 1.46.293 3.064-.514 4.455-.915a131.778 131.778 0 0 1 7.288-1.855c-.443-.195-.879-.4-1.33-.586-.34-.14-.296-.604-.052-.72-.436.076-.611-.603-.162-.724 1.926-.52 3.841-1.072 5.75-1.656a.327.327 0 0 1 .23.012c-.021-.192-.036-.384-.056-.576a5.169 5.169 0 0 1-.114-.11c-.19-.185-.113-.425.05-.55a58.715 58.715 0 0 1-.153-8.93c.03-.478.775-.48.745 0a58.72 58.72 0 0 0 .184 9.24l3.342 3.252a.34.34 0 0 1 .11.258c.01 0 .02-.006.03-.005.409.027.81.067 1.21.115-.632-4.464-.98-8.945-1.028-13.457a4.644 4.644 0 0 1-1.514-.312c-.837-.324-1.962-1.235-2.91-.859-.447.178-.64-.547-.199-.722.362-.145.679-.175.98-.14.018-.011.032-.027.053-.036 1.323-.545 3.212-1.784 4.664-1.775 1.201.007 2.511 1.143 3.51 1.711a.356.356 0 0 1 .173.294l-.016-.076c-.11-.47.61-.668.72-.199.588 2.495.803 5.018.947 7.543a4.2 4.2 0 0 1 1.504-.63c.469-.095.668.628.198.722a3.573 3.573 0 0 0-1.651.798c.056 1.073.106 2.146.173 3.216 1.846-.973 3.692-1.947 5.536-2.925a.398.398 0 0 1 .162-.174l-3.147-1.045c-.454-.15-.258-.874.2-.722l4.099 1.361c.289.097.387.526.09.685l-.65.343.516 2.964a.383.383 0 0 1-.014.184c.912-.412 1.826-.81 2.753-1.152 2.672-.986 3.701.312 6.17 1.096.362.115.346.602 0 .722-.262.092-.526.16-.788.244l.263 4.403c.029.483-.717.48-.745 0-.084-1.392-.168-2.784-.25-4.176a32.854 32.854 0 0 1-6.124 1.197l4.765 1.885c.077.03.128.082.17.138l.233-.087c.245-.093.454.14.472.36.12 1.453.238 2.905.36 4.357.051.633.414 1.729.061 2.297-.692 1.113-3.92 1.479-5.044 1.825-.288.089-.512-.194-.459-.46l.868-4.317c.152-.761.513-1.619.247-2.385-.316-.91-.477-.726-1.446-.903l-7.88-1.425c.066.463.14.924.227 1.386.204.093.408.182.611.281.273.135.207.498 0 .648-.113.08-.237.179-.36.274.02.076.032.151.05.226.009.037.005.07.005.102l.67-.209c.25-.076.453.13.473.362.213 2.414.253 4.813.125 7.232l5.806-.74c.202-.025.371.192.373.375.003.374.055.88.111 1.44a37.353 37.353 0 0 1 9.082-1.9c.27-.022.39.257.36.475-.183 1.332-.363 2.662-.545 3.994-.085.621-.033 1.548-.34 2.108-.502.914-1.818 1.026-2.923 1.128l.37 1.939c.12.633.541 1.644.23 2.294-.31.647-1.097.705-1.707.835-.999.216-2.002.414-3.004.615.208.07.417.127.623.202.449.162.254.886-.198.722a26.284 26.284 0 0 0-6.757-1.486.37.37 0 0 1-.228-.106 1.365 1.365 0 0 1-.351.817c-.618.697-1.856.891-2.686 1.188l-3.857 1.38c-.454.161-.648-.562-.199-.723z"/>
            </g>
            <path fill="#C1BEC1" d="M282.065 258.992a943.388 943.388 0 0 0 34.604-32.04c.69-.672 1.746.387 1.055 1.06a945.551 945.551 0 0 1-33.735 31.266 336.808 336.808 0 0 1 41.449 19.67 621.025 621.025 0 0 1 26.337-26.296c-5.747 1.948-11.473 3.953-17.122 6.168-2.328.913-4.669 2.136-7.052 3.117.727.606 1.506 1.107 2.542 1.039.961-.064.953 1.436 0 1.498-1.777.117-2.84-.915-4.1-1.944-.755.266-1.513.505-2.279.681a7.326 7.326 0 0 1-1.379.169.57.57 0 0 1-.457.345c-1.842.272-3.638.691-5.4 1.248a23.746 23.746 0 0 0 7.24 2.006c.946.108.954 1.607 0 1.499a24.75 24.75 0 0 1-9.096-2.863c-.076.029-.153.052-.23.081-.466.18-.949-.293-.947-.752a31.814 31.814 0 0 1-3.3-2.3c-1.263-1-2.642-1.45-4.11-2.022-.242-.094-.353-.447-.583-.54-1.072-.437-1.62.086-2.48-.258-.41-.165-.754-.3-1.03-.714-.509-.771-.29-4.741-2.986-2.54-.74.602-1.8-.452-1.055-1.06 1.228-1.002 2.89-1.145 4.144-.052.789.688.484 1.597 1.027 2.27.602.747 1.716.184 2.613.614 2.812 1.35 5.027 3.106 7.63 4.866.282.19.57.364.859.54l1.816-2.47c.516-.702.945-1.643 1.872-1.78a.898.898 0 0 1 .453.047l.545-.212a37.038 37.038 0 0 1-2.091-.702c-2.429-.917-4.912-1.87-7.224-3.056-2.393-1.228-3.832-4.21-6.724-3.838-.95.123-.94-1.378 0-1.498 1.814-.234 3.222-.135 4.464 1.295 1.203 1.386 2.046 2.291 3.71 3.076a79.914 79.914 0 0 0 4.46 1.912c1.831.731 3.7 1.34 5.56 1.975 2.026-.786 4.05-1.57 6.075-2.357-2.322-1.023-4.984-.125-7.246-1.567-1.902-1.213-3.263-3.616-5.512-4.215-2.127-.567-4.127.613-5.918-1.059-.705-.658.352-1.716 1.056-1.059 1.385 1.293 4.265.199 6 .945 1.51.649 2.606 1.95 3.802 3.023 1.203 1.08 2.275 1.748 3.914 1.899 1.007.092 2.015-.003 3.016.18.79.144 1.64.698 2.497 1.228l26.252-10.185c-.262-.542.356-1.339 1.055-.982 1.043.533 1.846 1.235 2.426 2.088a627.806 627.806 0 0 1 6.227-5.613 242.592 242.592 0 0 0-50.682-14.81c-.945-.168-.542-1.613.397-1.446a242.6 242.6 0 0 1 51.864 15.299c.472.198.798.837.33 1.252a624.043 624.043 0 0 0-7.434 6.702c.188.519.323 1.074.4 1.669.042.332-.27.63-.548.723-1.283.428-2.564.858-3.846 1.288a620.885 620.885 0 0 0-29.082 28.912c-.23.245-.62.278-.904.118a334.035 334.035 0 0 0-42.81-20.285c-.48-.187-.79-.846-.329-1.253"/>
        </g>
        <g>
            <path fill="#FFF" d="M156.937 191.586c2.456 2.177 5.758 3.317 9.014 3.3 3.993-.018 7.812-1.544 11.217-3.538 2.953-1.731 6.498-3.913 7.656-7.348 1.81-5.364-2.117-16.326-8.506-16.994-2.154-.226-4.055.974-6.157 1.073-2.492.117-3.907-2.122-6.25-2.605-2.841-.584-5.73.658-7.363 2.982a.85.85 0 0 0-.161.158c-1.967 2.602.393 5.105 2.082 7.027 1.14 1.298 2.05 2.83 1.155 4.577-.711 1.385-1.975 1.57-3.3 1.864-1.14.253-2.115.616-2.574 1.782-1.045 2.658 1.327 6.075 3.187 7.722m-55.993-38.048a5046.045 5046.045 0 0 0-.867-31.54 924.075 924.075 0 0 0-.393-10.986c-.044-.98-.09-1.959-.15-2.938.724.065 1.591.107 1.792.152 1.84.41 3.648.967 5.44 1.54 4.31 1.378 8.56 2.938 12.838 4.406 3.661 1.256 7.362 2.561 11.16 3.34 3.257.668 6.518.883 9.765 1.706 11.393 2.884 22.495 6.914 33.744 10.304 13.705 4.13 27.7 6.985 41.597 10.366 3.18.774 6.387 1.558 9.592 2.392l19.165 6.003c3.315 1.293 6.56 2.74 9.7 4.39.061.393.125.784.18 1.177l1.063 13.836c.149 5.545.057 11.108.03 16.572-.055 10.707-.41 21.407-.542 32.113-.203 16.438 3.856 32.756 3.352 49.213a44.33 44.33 0 0 1-.032.685c-.54-.03-1.086-.087-1.56-.156-4.081-.59-8.116-1.755-12.081-2.858-10.023-2.788-19.934-6.004-29.79-9.335-18.59-6.286-36.8-13.785-55.042-21.011-16.68-6.606-34.04-10.84-51.46-15.03l-1.697-.407c-.983-.233-1.761.155-2.245.778l-5.395-1.941c1.106-11.216 1.939-22.47 2.264-33.715.28-9.678-.183-19.38-.428-29.056"/>
            <path fill="#FFF" d="M162.813 166.834c2.16.113 3.082 1.644 4.927 2.416 3.591 1.504 7.174-2.254 10.624.106 3.399 2.325 5.292 7.749 5.375 11.72.104 5.026-5.209 7.994-9.146 9.977-3.94 1.985-8.552 3.152-12.85 1.633-1.774-.627-3.445-1.67-4.693-3.093-1.366-1.558-3.287-4.97-.329-6.066 1.522-.564 2.616-.44 3.722-1.85.65-.826 1.064-1.896 1.082-2.957.052-3.13-5.336-5.941-4.192-8.753.031-.037.068-.063.094-.11 1.09-1.959 3.128-3.14 5.386-3.023"/>
            <path fill="#C1BEC1" d="M258.27 267.268c-.346.872-.035 1.796.579 2.407-.611-.611-.925-1.536-.58-2.407m2.377-33.556c.897 9.447 1.937 18.94 2.207 28.433a471.472 471.472 0 0 0 9.93-11.08c6.906-7.943 14.049-16.134 19.406-25.27-5.494-3.573-12.281-5.385-18.492-7.017-4.44-1.167-8.939-2.194-13.466-2.965a2.194 2.194 0 0 1-.681-.238 96.623 96.623 0 0 0 .075 4.897l1.006 13.083.015.157M93.59 226.07c1.172-10.951 2.172-21.929 2.824-32.924.664-11.17.484-22.258.207-33.435-.298-12.007-.6-24.016-.97-36.022-.132-4.34-.265-8.679-.459-13.015-.092-2.054-.896-5.075.992-6.519 2.333-1.784 6.4-.31 8.872.394 4.608 1.311 9.112 2.986 13.633 4.56 4.35 1.515 8.743 3.14 13.264 4.068 3.704.76 7.407 1.071 11.095 2.052 13.368 3.555 26.385 8.353 39.705 12.085 13.935 3.903 28.188 6.548 42.182 10.227 6.902 1.813 13.774 3.807 20.46 6.317 3.017 1.133 6.005 2.369 8.909 3.77 1.198.58 3.261 1.222 3.977 2.436.457.775.449 1.946.565 2.818 1.387 10.356 1.282 20.949 1.228 31.377-.046 9.222-.298 18.44-.465 27.66a2.26 2.26 0 0 1 1.81-.44c4.717.803 9.404 1.878 14.025 3.112 7.066 1.887 14.94 4.059 20.827 8.605.98.756 1.445 1.913.803 3.075-5.528 10.012-13.275 18.92-20.728 27.515-4.66 5.374-9.424 10.67-14.344 15.807-1.98 1.957-5.432 1.04-7.502.665-9.116-1.658-18.064-4.658-26.881-7.457-7.406-2.351-14.812-4.747-22.11-7.422-10.68-3.916-21.276-8.055-31.856-12.239l-39.106-14.075c-3.288-.858-6.583-1.67-9.843-2.51a1055.52 1055.52 0 0 0-19.147-4.746c-1.822-.432-1.95-2.405-1.055-3.558.484-.623 1.262-1.01 2.245-.777.566.133 1.13.27 1.697.406 17.42 4.19 34.78 8.423 51.46 15.03 18.243 7.226 36.451 14.726 55.043 21.01 9.855 3.333 19.766 6.548 29.789 9.335 3.965 1.103 8 2.27 12.081 2.859.474.069 1.02.125 1.56.156.014-.267.027-.539.032-.684.504-16.458-3.555-32.776-3.352-49.215.133-10.705.487-21.406.542-32.112.027-5.465.119-11.027-.03-16.572l-1.063-13.835c-.055-.394-.119-.785-.18-1.177-3.14-1.65-6.385-3.097-9.7-4.391l-19.165-6.003a636.398 636.398 0 0 0-9.592-2.392c-13.896-3.382-27.892-6.235-41.597-10.366-11.249-3.39-22.351-7.42-33.744-10.305-3.247-.822-6.508-1.037-9.765-1.705-3.798-.78-7.499-2.084-11.16-3.34-4.279-1.467-8.527-3.028-12.837-4.406-1.793-.573-3.6-1.131-5.44-1.54-.202-.045-1.069-.086-1.794-.151.06.978.107 1.957.151 2.937.16 3.66.277 7.323.393 10.986a5045.8 5045.8 0 0 1 .867 31.54c.245 9.676.708 19.379.428 29.057-.325 11.244-1.158 22.498-2.264 33.714a820.22 820.22 0 0 1-1.659 15.321c-.334 2.843-4.813 2.868-4.475 0 .217-1.852.418-3.706.617-5.56z"/>
            <path fill="#C1BEC1" d="M157.05 189.593c1.248 1.422 2.919 2.466 4.693 3.093 4.298 1.519 8.91.352 12.85-1.633 3.937-1.984 9.25-4.95 9.146-9.977-.082-3.972-1.977-9.396-5.375-11.72-3.45-2.36-7.032 1.398-10.624-.106-1.845-.772-2.767-2.302-4.927-2.416-2.258-.118-4.296 1.064-5.386 3.022-.026.048-.063.073-.094.11-1.145 2.813 4.244 5.624 4.192 8.754-.018 1.062-.431 2.13-1.082 2.958-1.106 1.408-2.2 1.285-3.722 1.849-2.958 1.097-1.037 4.508.329 6.066m-3.3-5.729c.458-1.166 1.434-1.529 2.575-1.782 1.323-.294 2.588-.478 3.298-1.865.897-1.747-.014-3.279-1.155-4.576-1.688-1.923-4.048-4.425-2.08-7.027a.808.808 0 0 1 .16-.158c1.633-2.323 4.522-3.566 7.364-2.982 2.342.482 3.758 2.722 6.248 2.605 2.102-.098 4.005-1.299 6.158-1.073 6.388.668 10.316 11.63 8.506 16.994-1.158 3.435-4.702 5.616-7.656 7.348-3.405 1.994-7.225 3.52-11.217 3.539-3.256.015-6.559-1.124-9.014-3.3-1.86-1.649-4.232-5.065-3.187-7.723"/>
        </g>
        <g transform="translate(220 162)">
            <mask id="f" fill="#fff">
                <use xlink:href="#e"/>
            </mask>
            <path fill="#C1BEC1" d="M14.154 14.26l-.136-.051c-.381-.139-.742-.268-1.088-.436-.426-.207-.824-.483-1.21-.78 2.637-.976 5.054-2.694 6.932-4.979.003.466-.051.926-.178 1.36-.55 1.883-2.081 3.23-3.506 4.3-.258.193-.532.39-.814.585zm-3.77-.855c.163-.044.322-.1.483-.15.54.456 1.114.865 1.748 1.173.259.125.522.228.786.329-.743.466-1.541.888-2.376 1.175-.223-.84-.438-1.68-.64-2.527zm-2.012 2.894c-1.197-.111-2.404-.806-3.227-1.857a4.922 4.922 0 0 1-.394-.613l.013-.02c.597.08 1.198.13 1.799.13 1.044 0 2.088-.136 3.117-.363.204.857.422 1.707.647 2.555-.641.155-1.295.23-1.955.168zm-4.147-5.061c.168-1.153.793-2.09 1.6-2.915l1.173 1.165c-.882.982-1.74 2.15-2.603 3.537a3.935 3.935 0 0 1-.17-1.787zM2.38 3.65c-.13-.506.288-1.05.734-1.18.513-.149 1.09.046 1.642.277 1.36.58 2.348 1.237 3.106 2.071l.1-.091c.04.261.08.525.122.788a56.86 56.86 0 0 0-.897.678c-.463.354-.922.721-1.354 1.112L2.92 4.41c-.264-.261-.471-.485-.54-.76zM8.68 1.01a.824.824 0 0 1 .666-.28c.373.013.768.232 1.004.555.408.563.573 1.405.487 2.505l.068.006c-.76.34-1.474.772-2.16 1.25-.102-.66-.215-1.317-.305-1.978-.107-.794-.154-1.593.24-2.058zm-.172 7.003c-.343.292-.683.6-1.016.94L6.35 7.82c.408-.365.84-.712 1.279-1.046l.582-.442c.093.563.194 1.122.297 1.682zm.462 2.412l-.962-.959c.217-.222.436-.434.657-.633.1.53.196 1.063.305 1.591zm.122 1.146l.165.164c.084.381.174.762.263 1.143a13.732 13.732 0 0 1-3.123.329 89.478 89.478 0 0 1 2.695-1.636zm-.537-.534a89.836 89.836 0 0 0-3.34 2.046c.762-1.197 1.523-2.216 2.299-3.082l1.04 1.035zm1.702 1.665l-.032.008-.01-.046.042.038zM19.17 9.58c.462-1.583.168-3.423-.787-4.921-.804-1.263-1.978-2.093-3.22-2.28l-.107.723c1.035.153 2.025.864 2.715 1.95.448.703.728 1.489.835 2.278l-.192-.15c-1.928 2.5-4.531 4.32-7.351 5.273a28.023 28.023 0 0 1-1.147-1.09c-.017-.075-.036-.15-.052-.226a87.2 87.2 0 0 1 8.479-4.243l-.285-.67a87.505 87.505 0 0 0-8.355 4.168c-.146-.697-.272-1.399-.403-2.098.237-.19.476-.368.719-.535 2.312-1.582 4.99-2.049 7.16-1.245l.25-.684c-2.428-.899-5.278-.415-7.818 1.327-.156.109-.31.228-.464.343-.097-.55-.187-1.098-.277-1.65.874-.63 1.779-1.21 2.754-1.583.906-.35 2.662-.792 4.238.136l.367-.63c-1.31-.772-2.96-.855-4.663-.256.039-1.116-.163-2.018-.63-2.66C10.566.35 9.966.024 9.374 0a1.515 1.515 0 0 0-1.245.536c-.58.683-.538 1.667-.408 2.63.028.198.065.397.092.595-.738-.65-1.648-1.207-2.774-1.684-.674-.286-1.402-.521-2.126-.307-.777.227-1.475 1.13-1.236 2.06.126.493.477.842.734 1.097l2.896 2.88c-.9.918-1.604 1.978-1.8 3.324-.026.178-.016.357-.02.537l-.177-.324c-1.254.69-1.911 1.486-2.82 2.587l-.49.591 2.55.72-.812.996c-.141.174-.472.582-.362 1.052a.738.738 0 0 0 .424.523c.117.05.244.072.373.072.293 0 .6-.111.834-.244l1.892-1.084-.36-.633-1.891 1.084c-.255.145-.51.168-.565.116-.03-.122.157-.35.217-.424l1.514-1.859-2.541-.716c.698-.84 1.286-1.476 2.197-2.02.068.98.446 1.943 1.105 2.787.942 1.204 2.336 2.002 3.728 2.133.19.017.38.026.569.026.559 0 1.107-.084 1.644-.215.134.488.255.982.395 1.466.192.665.475 1.372 1.12 1.576.11.035.222.051.329.051.522 0 .984-.38 1.27-.787.546-.78.726-1.858.469-2.81l-.701.19c.199.738.058 1.602-.362 2.201-.202.29-.524.543-.787.46-.321-.102-.51-.633-.641-1.084-.141-.487-.262-.982-.394-1.47 1.089-.37 2.113-.94 3.037-1.557.523.201 1.014.426 1.43.787l.232.207c.412.372.939.846 1.509.846.178 0 .362-.047.546-.159.662-.399.728-1.413.375-2.072-.332-.619-.91-.96-1.372-1.235l-.368.629c.49.29.883.544 1.102.952.207.387.15.944-.111 1.103-.29.178-.68-.14-1.195-.607l-.244-.216c-.37-.32-.777-.541-1.195-.727.149-.108.3-.217.443-.324 1.52-1.141 3.158-2.59 3.767-4.678z" mask="url(#f)"/>
        </g>
    </g>
</svg>
