<svg xmlns="http://www.w3.org/2000/svg" xmlns:xlink="http://www.w3.org/1999/xlink" width="1080" zoomAndPan="magnify" viewBox="0 0 810 809.999993" height="1080" preserveAspectRatio="xMidYMid meet" version="1.0"><defs><g/></defs><g fill="#000000" fill-opacity="1"><g transform="translate(185.005675, 357.410947)"><g><path d="M 78.171875 -134.625 L 132.515625 0 L 99.546875 0 L 89.59375 -26.921875 L 38.34375 -26.921875 L 28.390625 0 L -4.5625 0 L 49.765625 -134.625 Z M 79.140625 -53.859375 L 64.125 -93.015625 L 63.8125 -93.015625 L 48.796875 -53.859375 Z M 79.140625 -53.859375 "/></g></g></g><g fill="#000000" fill-opacity="1"><g transform="translate(301.516565, 357.410947)"><g><path d="M 9.796875 -134.625 L 58.90625 -134.625 C 72.613281 -134.625 83.707031 -131.085938 92.1875 -124.015625 C 100.675781 -116.953125 104.921875 -106.671875 104.921875 -93.171875 C 104.921875 -79.679688 100.625 -69.101562 92.03125 -61.4375 C 83.4375 -53.769531 72.394531 -49.9375 58.90625 -49.9375 L 40.46875 -49.9375 L 40.46875 0 L 9.796875 0 Z M 40.46875 -74.40625 L 49.125 -74.40625 C 55.976562 -74.40625 61.609375 -75.789062 66.015625 -78.5625 C 70.421875 -81.34375 72.625 -85.890625 72.625 -92.203125 C 72.625 -98.617188 70.421875 -103.210938 66.015625 -105.984375 C 61.609375 -108.765625 55.976562 -110.15625 49.125 -110.15625 L 40.46875 -110.15625 Z M 40.46875 -74.40625 "/></g></g></g><g fill="#000000" fill-opacity="1"><g transform="translate(398.771854, 357.410947)"><g><path d="M 40.46875 -83.546875 L 40.46875 0 L 9.796875 0 L 9.796875 -134.625 L 40.46875 -134.625 L 94 -51.078125 L 94.328125 -51.078125 L 94.328125 -134.625 L 125 -134.625 L 125 0 L 94.328125 0 L 40.796875 -83.546875 Z M 40.46875 -83.546875 "/></g></g></g><g fill="#000000" fill-opacity="1"><g transform="translate(522.136435, 357.410947)"><g><path d="M 78.171875 -134.625 L 132.515625 0 L 99.546875 0 L 89.59375 -26.921875 L 38.34375 -26.921875 L 28.390625 0 L -4.5625 0 L 49.765625 -134.625 Z M 79.140625 -53.859375 L 64.125 -93.015625 L 63.8125 -93.015625 L 48.796875 -53.859375 Z M 79.140625 -53.859375 "/></g></g></g><g fill="#ffa511" fill-opacity="1"><g transform="translate(64.352578, 519.232618)"><g><path d="M 81.4375 -27.734375 C 86.113281 -27.734375 90.65625 -28.441406 95.0625 -29.859375 C 99.46875 -31.273438 102.703125 -32.632812 104.765625 -33.9375 L 107.859375 -36.0625 L 120.921875 -9.953125 C 120.484375 -9.628906 119.882812 -9.191406 119.125 -8.640625 C 118.363281 -8.097656 116.59375 -7.09375 113.8125 -5.625 C 111.039062 -4.15625 108.078125 -2.875 104.921875 -1.78125 C 101.773438 -0.695312 97.644531 0.273438 92.53125 1.140625 C 87.414062 2.015625 82.140625 2.453125 76.703125 2.453125 C 64.191406 2.453125 52.332031 -0.617188 41.125 -6.765625 C 29.914062 -12.921875 20.882812 -21.378906 14.03125 -32.140625 C 7.175781 -42.910156 3.75 -54.550781 3.75 -67.0625 C 3.75 -76.53125 5.757812 -85.613281 9.78125 -94.3125 C 13.8125 -103.019531 19.171875 -110.472656 25.859375 -116.671875 C 32.554688 -122.878906 40.363281 -127.832031 49.28125 -131.53125 C 58.195312 -135.226562 67.335938 -137.078125 76.703125 -137.078125 C 85.398438 -137.078125 93.421875 -136.039062 100.765625 -133.96875 C 108.109375 -131.90625 113.304688 -129.84375 116.359375 -127.78125 L 120.921875 -124.671875 L 107.859375 -98.5625 C 107.097656 -99.21875 105.957031 -100.003906 104.4375 -100.921875 C 102.914062 -101.847656 99.867188 -103.070312 95.296875 -104.59375 C 90.734375 -106.125 86.113281 -106.890625 81.4375 -106.890625 C 74.03125 -106.890625 67.390625 -105.691406 61.515625 -103.296875 C 55.640625 -100.898438 50.988281 -97.742188 47.5625 -93.828125 C 44.132812 -89.910156 41.523438 -85.691406 39.734375 -81.171875 C 37.941406 -76.660156 37.046875 -72.066406 37.046875 -67.390625 C 37.046875 -57.171875 40.878906 -48.003906 48.546875 -39.890625 C 56.210938 -31.785156 67.175781 -27.734375 81.4375 -27.734375 Z M 81.4375 -27.734375 "/></g></g></g><g fill="#ffa511" fill-opacity="1"><g transform="translate(175.804769, 519.232618)"><g><path d="M 3.75 -67.390625 C 3.75 -86.867188 10.382812 -103.351562 23.65625 -116.84375 C 36.9375 -130.332031 52.929688 -137.078125 71.640625 -137.078125 C 90.460938 -137.078125 106.453125 -130.359375 119.609375 -116.921875 C 132.773438 -103.484375 139.359375 -86.972656 139.359375 -67.390625 C 139.359375 -47.703125 132.882812 -31.140625 119.9375 -17.703125 C 107 -4.265625 90.898438 2.453125 71.640625 2.453125 C 51.953125 2.453125 35.710938 -4.207031 22.921875 -17.53125 C 10.140625 -30.863281 3.75 -47.484375 3.75 -67.390625 Z M 36.875 -67.390625 C 36.875 -60.328125 37.960938 -53.882812 40.140625 -48.0625 C 42.316406 -42.238281 46.125 -37.3125 51.5625 -33.28125 C 57.007812 -29.257812 63.703125 -27.25 71.640625 -27.25 C 83.066406 -27.25 91.6875 -31.164062 97.5 -39 C 103.320312 -46.832031 106.234375 -56.296875 106.234375 -67.390625 C 106.234375 -78.378906 103.269531 -87.816406 97.34375 -95.703125 C 91.414062 -103.597656 82.847656 -107.546875 71.640625 -107.546875 C 60.546875 -107.546875 51.976562 -103.597656 45.9375 -95.703125 C 39.894531 -87.816406 36.875 -78.378906 36.875 -67.390625 Z M 36.875 -67.390625 "/></g></g></g><g fill="#ffa511" fill-opacity="1"><g transform="translate(307.491631, 519.232618)"><g><path d="M 40.46875 -134.625 L 40.46875 -26.921875 L 86.8125 -26.921875 L 86.8125 0 L 9.796875 0 L 9.796875 -134.625 Z M 40.46875 -134.625 "/></g></g></g><g fill="#ffa511" fill-opacity="1"><g transform="translate(388.265441, 519.232618)"><g><path d="M 40.46875 -134.625 L 40.46875 -26.921875 L 86.8125 -26.921875 L 86.8125 0 L 9.796875 0 L 9.796875 -134.625 Z M 40.46875 -134.625 "/></g></g></g><g fill="#ffa511" fill-opacity="1"><g transform="translate(469.039235, 519.232618)"><g><path d="M 86.8125 -134.625 L 86.8125 -107.703125 L 40.46875 -107.703125 L 40.46875 -80.9375 L 84.859375 -80.9375 L 84.859375 -54.015625 L 40.46875 -54.015625 L 40.46875 -26.921875 L 86.8125 -26.921875 L 86.8125 0 L 9.796875 0 L 9.796875 -134.625 Z M 86.8125 -134.625 "/></g></g></g><g fill="#ffa511" fill-opacity="1"><g transform="translate(552.260768, 519.232618)"><g><path d="M 131.53125 -75.390625 L 131.53125 -46.1875 C 128.050781 -30.1875 120.4375 -18.078125 108.6875 -9.859375 C 96.9375 -1.648438 83.828125 2.453125 69.359375 2.453125 C 51.191406 2.453125 35.710938 -4.34375 22.921875 -17.9375 C 10.140625 -31.539062 3.75 -47.972656 3.75 -67.234375 C 3.75 -86.816406 10.003906 -103.351562 22.515625 -116.84375 C 35.023438 -130.332031 50.640625 -137.078125 69.359375 -137.078125 C 91.222656 -137.078125 108.519531 -129.40625 121.25 -114.0625 L 101.171875 -92.03125 C 93.992188 -103.5625 83.988281 -109.328125 71.15625 -109.328125 C 61.6875 -109.328125 53.601562 -105.21875 46.90625 -97 C 40.21875 -88.789062 36.875 -78.867188 36.875 -67.234375 C 36.875 -55.804688 40.21875 -46.039062 46.90625 -37.9375 C 53.601562 -29.832031 61.6875 -25.78125 71.15625 -25.78125 C 78.988281 -25.78125 85.8125 -28.144531 91.625 -32.875 C 97.445312 -37.613281 100.359375 -43.898438 100.359375 -51.734375 L 69.359375 -51.734375 L 69.359375 -75.390625 Z M 131.53125 -75.390625 "/></g></g></g><g fill="#ffa511" fill-opacity="1"><g transform="translate(676.114901, 519.232618)"><g><path d="M 86.8125 -134.625 L 86.8125 -107.703125 L 40.46875 -107.703125 L 40.46875 -80.9375 L 84.859375 -80.9375 L 84.859375 -54.015625 L 40.46875 -54.015625 L 40.46875 -26.921875 L 86.8125 -26.921875 L 86.8125 0 L 9.796875 0 L 9.796875 -134.625 Z M 86.8125 -134.625 "/></g></g></g></svg>