<svg width="192" height="54" viewBox="0 0 192 54" fill="none" xmlns="http://www.w3.org/2000/svg">
<rect y="3" width="48" height="48" rx="10.875" fill="black"/>
<path fill-rule="evenodd" clip-rule="evenodd" d="M9.96834 13.5747C12.6112 12.0551 15.9856 12.9656 17.5052 15.6085L28.5452 34.8085C30.0649 37.4513 29.1543 40.8257 26.5115 42.3454C23.8686 43.865 20.4942 42.9545 18.9746 40.3116L7.93458 21.1116C6.41494 18.4687 7.32548 15.0944 9.96834 13.5747Z" fill="url(#paint0_linear_2837_119)"/>
<path d="M38.7426 13.3198C41.0478 13.3198 42.4917 15.8117 41.3454 17.8117L35.2428 28.4588C34.0902 30.4697 31.1898 30.4697 30.0372 28.4588L23.9346 17.8117C22.7882 15.8117 24.2321 13.3198 26.5373 13.3198H38.7426Z" fill="#00FFD4"/>
<rect x="0.5" y="3.5" width="47" height="47" rx="10.375" stroke="white" stroke-opacity="0.2"/>
<path d="M87.264 14.98L77.868 40H73.116L63.684 14.98H68.076L75.492 35.788L82.944 14.98H87.264ZM114.708 19.84C116.268 19.84 117.66 20.164 118.884 20.812C120.132 21.46 121.104 22.42 121.8 23.692C122.52 24.964 122.88 26.5 122.88 28.3V40H118.812V28.912C118.812 27.136 118.368 25.78 117.48 24.844C116.592 23.884 115.38 23.404 113.844 23.404C112.308 23.404 111.084 23.884 110.172 24.844C109.284 25.78 108.84 27.136 108.84 28.912V40H104.772V28.912C104.772 27.136 104.328 25.78 103.44 24.844C102.552 23.884 101.34 23.404 99.8041 23.404C98.2681 23.404 97.0441 23.884 96.1321 24.844C95.2441 25.78 94.8001 27.136 94.8001 28.912V40H90.6961V20.164H94.8001V22.432C95.4721 21.616 96.3241 20.98 97.3561 20.524C98.3881 20.068 99.4921 19.84 100.668 19.84C102.252 19.84 103.668 20.176 104.916 20.848C106.164 21.52 107.124 22.492 107.796 23.764C108.396 22.564 109.332 21.616 110.604 20.92C111.876 20.2 113.244 19.84 114.708 19.84ZM126.734 29.992C126.734 28 127.142 26.236 127.958 24.7C128.798 23.164 129.926 21.976 131.342 21.136C132.782 20.272 134.366 19.84 136.094 19.84C137.654 19.84 139.01 20.152 140.162 20.776C141.338 21.376 142.274 22.132 142.97 23.044V20.164H147.11V40H142.97V37.048C142.274 37.984 141.326 38.764 140.126 39.388C138.926 40.012 137.558 40.324 136.022 40.324C134.318 40.324 132.758 39.892 131.342 39.028C129.926 38.14 128.798 36.916 127.958 35.356C127.142 33.772 126.734 31.984 126.734 29.992ZM142.97 30.064C142.97 28.696 142.682 27.508 142.106 26.5C141.554 25.492 140.822 24.724 139.91 24.196C138.998 23.668 138.014 23.404 136.958 23.404C135.902 23.404 134.918 23.668 134.006 24.196C133.094 24.7 132.35 25.456 131.774 26.464C131.222 27.448 130.946 28.624 130.946 29.992C130.946 31.36 131.222 32.56 131.774 33.592C132.35 34.624 133.094 35.416 134.006 35.968C134.942 36.496 135.926 36.76 136.958 36.76C138.014 36.76 138.998 36.496 139.91 35.968C140.822 35.44 141.554 34.672 142.106 33.664C142.682 32.632 142.97 31.432 142.97 30.064ZM160.349 30.1L169.493 40H163.949L156.605 31.468V40H152.501V13.36H156.605V28.84L163.805 20.164H169.493L160.349 30.1ZM190.614 29.596C190.614 30.34 190.566 31.012 190.47 31.612H175.314C175.434 33.196 176.022 34.468 177.078 35.428C178.134 36.388 179.43 36.868 180.966 36.868C183.174 36.868 184.734 35.944 185.646 34.096H190.074C189.474 35.92 188.382 37.42 186.798 38.596C185.238 39.748 183.294 40.324 180.966 40.324C179.07 40.324 177.366 39.904 175.854 39.064C174.366 38.2 173.19 37 172.326 35.464C171.486 33.904 171.066 32.104 171.066 30.064C171.066 28.024 171.474 26.236 172.29 24.7C173.13 23.14 174.294 21.94 175.782 21.1C177.294 20.26 179.022 19.84 180.966 19.84C182.838 19.84 184.506 20.248 185.97 21.064C187.434 21.88 188.574 23.032 189.39 24.52C190.206 25.984 190.614 27.676 190.614 29.596ZM186.33 28.3C186.306 26.788 185.766 25.576 184.71 24.664C183.654 23.752 182.346 23.296 180.786 23.296C179.37 23.296 178.158 23.752 177.15 24.664C176.142 25.552 175.542 26.764 175.35 28.3H186.33Z" fill="white"/>
<defs>
<linearGradient id="paint0_linear_2837_119" x1="11.1652" y1="15.2381" x2="23.8691" y2="38.8544" gradientUnits="userSpaceOnUse">
<stop offset="0.385417" stop-color="white"/>
<stop offset="1" stop-color="#A199FF"/>
</linearGradient>
</defs>
</svg>
