<svg width="190" height="64" viewBox="0 0 190 64" fill="none" xmlns="http://www.w3.org/2000/svg">
<rect width="190" height="64" rx="8" fill="black"/>
<path d="M47.5315 32.406C47.546 31.2792 47.8462 30.1744 48.404 29.1944C48.9618 28.2143 49.7591 27.3909 50.7218 26.8007C50.1102 25.9298 49.3034 25.213 48.3655 24.7073C47.4275 24.2017 46.3843 23.9211 45.3186 23.8879C43.0452 23.6499 40.8413 25.2444 39.6829 25.2444C38.502 25.2444 36.7184 23.9115 34.7977 23.9509C33.5554 23.9909 32.3446 24.3512 31.2834 24.9965C30.2222 25.6419 29.3468 26.5504 28.7423 27.6335C26.1241 32.1539 28.0771 38.7973 30.5851 42.4512C31.8399 44.2404 33.3065 46.2391 35.2254 46.1682C37.1032 46.0905 37.8045 44.9741 40.0712 44.9741C42.3168 44.9741 42.9748 46.1682 44.9326 46.1231C46.9476 46.0905 48.2171 44.3259 49.4279 42.5198C50.3295 41.2449 51.0233 39.8359 51.4835 38.3449C50.3129 37.8512 49.3139 37.0247 48.6111 35.9686C47.9083 34.9125 47.5328 33.6735 47.5315 32.406Z" fill="white"/>
<path d="M43.8335 21.4848C44.9321 20.1696 45.4734 18.4792 45.3423 16.7725C43.6639 16.9483 42.1134 17.7482 40.9999 19.013C40.4555 19.6308 40.0386 20.3496 39.7729 21.1282C39.5072 21.9069 39.398 22.7301 39.4516 23.5508C40.2911 23.5595 41.1217 23.378 41.8807 23.0201C42.6397 22.6623 43.3074 22.1373 43.8335 21.4848Z" fill="white"/>
<path d="M71.268 41.6383H64.86L63.3211 46.1695H60.6069L66.6765 29.4052H69.4965L75.566 46.1695H72.8056L71.268 41.6383ZM65.5237 39.5474H70.6031L68.0991 32.1936H68.029L65.5237 39.5474Z" fill="white"/>
<path d="M88.6743 40.0592C88.6743 43.8574 86.6356 46.2977 83.5592 46.2977C82.7799 46.3383 82.0048 46.1593 81.3228 45.7811C80.6408 45.4029 80.0793 44.8409 79.7028 44.1593H79.6445V50.2132H77.1287V33.9473H79.5639V35.9802H79.6102C80.0041 35.3018 80.575 34.7427 81.2623 34.3622C81.9495 33.9817 82.7273 33.7941 83.5129 33.8194C86.6237 33.8194 88.6743 36.2715 88.6743 40.0592ZM86.0883 40.0592C86.0883 37.5846 84.8059 35.9578 82.8492 35.9578C80.927 35.9578 79.634 37.6189 79.634 40.0592C79.634 42.5219 80.927 44.1712 82.8492 44.1712C84.8059 44.1712 86.0883 42.5562 86.0883 40.0592Z" fill="white"/>
<path d="M102.165 40.0592C102.165 43.8574 100.126 46.2976 97.0497 46.2976C96.2704 46.3383 95.4953 46.1593 94.8133 45.7811C94.1313 45.4029 93.5698 44.8408 93.1932 44.1592H93.135V50.2132H90.6191V33.9473H93.0544V35.9802H93.1006C93.4945 35.3018 94.0655 34.7427 94.7527 34.3622C95.4399 33.9817 96.2177 33.7941 97.0034 33.8194C100.114 33.8194 102.165 36.2715 102.165 40.0592ZM99.5788 40.0592C99.5788 37.5846 98.2964 35.9578 96.3397 35.9578C94.4175 35.9578 93.1245 37.6189 93.1245 40.0592C93.1245 42.5219 94.4175 44.1711 96.3397 44.1711C98.2964 44.1711 99.5788 42.5561 99.5788 40.0592H99.5788Z" fill="white"/>
<path d="M111.081 41.4988C111.267 43.1612 112.886 44.2528 115.1 44.2528C117.22 44.2528 118.746 43.1612 118.746 41.6622C118.746 40.361 117.826 39.5818 115.647 39.0479L113.468 38.5245C110.381 37.7809 108.948 36.3413 108.948 34.0051C108.948 31.1127 111.476 29.1259 115.065 29.1259C118.618 29.1259 121.053 31.1127 121.135 34.0051H118.595C118.443 32.3321 117.056 31.3223 115.03 31.3223C113.003 31.3223 111.616 32.344 111.616 33.8311C111.616 35.0163 112.502 35.7137 114.669 36.2476L116.521 36.7012C119.97 37.5146 121.403 38.8963 121.403 41.3484C121.403 44.4847 118.898 46.4491 114.913 46.4491C111.185 46.4491 108.668 44.5309 108.505 41.4986L111.081 41.4988Z" fill="white"/>
<path d="M126.833 31.0547V33.9472H129.164V35.9339H126.833V42.6721C126.833 43.7188 127.3 44.2066 128.324 44.2066C128.601 44.2018 128.877 44.1824 129.152 44.1486V46.1235C128.691 46.2093 128.223 46.2482 127.754 46.2395C125.273 46.2395 124.305 45.3101 124.305 42.9396V35.9339H122.523V33.9472H124.305V31.0547H126.833Z" fill="white"/>
<path d="M130.514 40.0589C130.514 36.2133 132.785 33.7967 136.327 33.7967C139.88 33.7967 142.141 36.2132 142.141 40.0589C142.141 43.9151 139.892 46.3211 136.327 46.3211C132.762 46.3211 130.514 43.9151 130.514 40.0589ZM139.578 40.0589C139.578 37.4209 138.365 35.8639 136.327 35.8639C134.288 35.8639 133.077 37.4328 133.077 40.0589C133.077 42.7075 134.288 44.2526 136.327 44.2526C138.365 44.2526 139.578 42.7075 139.578 40.0589H139.578Z" fill="white"/>
<path d="M144.215 33.9475H146.615V36.0278H146.673C146.835 35.3781 147.217 34.8039 147.754 34.4017C148.291 33.9996 148.95 33.794 149.621 33.8196C149.911 33.8186 150.2 33.85 150.483 33.9132V36.2598C150.117 36.1483 149.735 36.0971 149.353 36.1082C148.987 36.0935 148.623 36.1577 148.285 36.2966C147.947 36.4355 147.642 36.6458 147.393 36.9129C147.144 37.1801 146.956 37.4978 146.842 37.8443C146.728 38.1908 146.69 38.5579 146.731 38.9203V46.17H144.215L144.215 33.9475Z" fill="white"/>
<path d="M162.083 42.5796C161.745 44.7984 159.578 46.3211 156.805 46.3211C153.24 46.3211 151.027 43.9389 151.027 40.1169C151.027 36.2832 153.252 33.7967 156.7 33.7967C160.091 33.7967 162.223 36.1197 162.223 39.8256V40.6852H153.566V40.8368C153.526 41.2866 153.583 41.7397 153.732 42.1661C153.881 42.5925 154.12 42.9824 154.432 43.3098C154.743 43.6372 155.122 43.8948 155.541 44.0653C155.96 44.2358 156.411 44.3154 156.864 44.2988C157.458 44.3543 158.055 44.217 158.565 43.9073C159.075 43.5975 159.471 43.1319 159.694 42.5796L162.083 42.5796ZM153.578 38.9317H159.706C159.729 38.5273 159.667 38.1225 159.525 37.7429C159.384 37.3633 159.165 37.017 158.883 36.7257C158.6 36.4344 158.261 36.2044 157.885 36.0502C157.509 35.896 157.106 35.8209 156.7 35.8296C156.29 35.8272 155.884 35.9057 155.505 36.0606C155.126 36.2155 154.781 36.4437 154.491 36.7322C154.201 37.0206 153.971 37.3634 153.814 37.7409C153.657 38.1185 153.577 38.5232 153.578 38.9318V38.9317Z" fill="white"/>
<path d="M65.2084 16.7862C65.7359 16.7484 66.2652 16.8279 66.7581 17.0188C67.251 17.2097 67.6953 17.5074 68.0589 17.8903C68.4225 18.2732 68.6964 18.7318 68.8608 19.233C69.0251 19.7342 69.0759 20.2655 69.0094 20.7887C69.0094 23.3621 67.6146 24.8414 65.2084 24.8414H62.2906V16.7862H65.2084ZM63.5453 23.7022H65.0683C65.4452 23.7247 65.8224 23.663 66.1724 23.5218C66.5224 23.3806 66.8364 23.1633 67.0916 22.8858C67.3468 22.6083 67.5367 22.2775 67.6475 21.9176C67.7583 21.5576 67.7873 21.1776 67.7322 20.8051C67.7833 20.4341 67.7514 20.0564 67.6389 19.6991C67.5264 19.3418 67.336 19.0137 67.0814 18.7384C66.8268 18.4631 66.5143 18.2474 66.1662 18.1067C65.8182 17.966 65.4433 17.9037 65.0683 17.9245H63.5453V23.7022Z" fill="white"/>
<path d="M70.4266 21.7993C70.3882 21.3998 70.4341 20.9967 70.5611 20.6159C70.6881 20.2351 70.8936 19.885 71.1643 19.588C71.435 19.2911 71.7649 19.0538 72.1329 18.8914C72.5009 18.729 72.8989 18.6452 73.3014 18.6452C73.7038 18.6452 74.1018 18.729 74.4699 18.8914C74.8379 19.0538 75.1678 19.2911 75.4385 19.588C75.7092 19.885 75.9146 20.2351 76.0417 20.6159C76.1687 20.9967 76.2145 21.3998 76.1762 21.7993C76.2153 22.1992 76.17 22.6028 76.0433 22.9842C75.9166 23.3656 75.7112 23.7164 75.4405 24.0139C75.1697 24.3115 74.8396 24.5493 74.4712 24.712C74.1028 24.8747 73.7043 24.9588 73.3014 24.9588C72.8985 24.9588 72.5 24.8747 72.1316 24.712C71.7632 24.5493 71.433 24.3115 71.1623 24.0139C70.8915 23.7164 70.6862 23.3656 70.5595 22.9842C70.4328 22.6028 70.3875 22.1992 70.4266 21.7993ZM74.9387 21.7993C74.9387 20.4816 74.3451 19.711 73.3034 19.711C72.2576 19.711 71.6693 20.4816 71.6693 21.7993C71.6693 23.1275 72.2577 23.8922 73.3034 23.8922C74.3452 23.8922 74.9388 23.1223 74.9388 21.7993H74.9387Z" fill="white"/>
<path d="M83.8192 24.8416H82.5711L81.3112 20.3645H81.216L79.9614 24.8416H78.7253L77.0449 18.7627H78.2652L79.3572 23.4013H79.4471L80.7004 18.7627H81.8546L83.1079 23.4013H83.2031L84.2898 18.7627H85.4929L83.8192 24.8416Z" fill="white"/>
<path d="M86.906 18.7626H88.0641V19.7283H88.154C88.3065 19.3814 88.5638 19.0907 88.8899 18.8965C89.216 18.7024 89.5947 18.6145 89.9732 18.6452C90.2698 18.623 90.5676 18.6676 90.8446 18.7757C91.1216 18.8838 91.3706 19.0527 91.5733 19.2699C91.7759 19.487 91.927 19.7468 92.0152 20.0301C92.1035 20.3134 92.1267 20.6128 92.0832 20.9062V24.8415H90.8801V21.2075C90.8801 20.2306 90.4544 19.7447 89.5647 19.7447C89.3633 19.7354 89.1623 19.7696 88.9754 19.8449C88.7885 19.9203 88.6201 20.0351 88.4819 20.1814C88.3436 20.3277 88.2387 20.5021 88.1744 20.6927C88.11 20.8832 88.0877 21.0853 88.1091 21.2852V24.8415H86.906L86.906 18.7626Z" fill="white"/>
<path d="M94.0002 16.3895H95.2033V24.8415H94.0002V16.3895Z" fill="white"/>
<path d="M96.8756 21.7994C96.8373 21.3999 96.8832 20.9968 97.0103 20.616C97.1373 20.2352 97.3428 19.885 97.6135 19.5881C97.8842 19.2911 98.2142 19.0538 98.5822 18.8914C98.9503 18.729 99.3483 18.6452 99.7508 18.6452C100.153 18.6452 100.551 18.729 100.919 18.8914C101.287 19.0538 101.617 19.2911 101.888 19.5881C102.159 19.885 102.364 20.2352 102.491 20.616C102.618 20.9968 102.664 21.3999 102.626 21.7994C102.665 22.1993 102.62 22.6029 102.493 22.9843C102.366 23.3658 102.161 23.7165 101.89 24.014C101.619 24.3116 101.289 24.5494 100.921 24.7121C100.552 24.8748 100.154 24.9589 99.7508 24.9589C99.3479 24.9589 98.9494 24.8748 98.581 24.7121C98.2125 24.5494 97.8823 24.3116 97.6116 24.014C97.3408 23.7165 97.1354 23.3658 97.0087 22.9843C96.882 22.6029 96.8366 22.1993 96.8756 21.7994ZM101.388 21.7994C101.388 20.4817 100.794 19.7111 99.7524 19.7111C98.7067 19.7111 98.1184 20.4817 98.1184 21.7994C98.1184 23.1277 98.7067 23.8923 99.7524 23.8923C100.794 23.8923 101.388 23.1224 101.388 21.7994H101.388Z" fill="white"/>
<path d="M103.893 23.1223C103.893 22.0281 104.71 21.3972 106.16 21.3076L107.811 21.2127V20.688C107.811 20.0459 107.385 19.6834 106.563 19.6834C105.892 19.6834 105.426 19.9292 105.293 20.359H104.128C104.251 19.3149 105.236 18.6452 106.619 18.6452C108.147 18.6452 109.009 19.4039 109.009 20.688V24.8415H107.851V23.9872H107.756C107.562 24.2936 107.291 24.5434 106.969 24.7111C106.648 24.8788 106.287 24.9583 105.925 24.9416C105.669 24.9682 105.41 24.9409 105.165 24.8617C104.921 24.7824 104.695 24.6529 104.504 24.4815C104.312 24.3101 104.159 24.1006 104.054 23.8665C103.948 23.6324 103.894 23.3789 103.893 23.1223ZM107.811 22.6029V22.0946L106.323 22.1896C105.483 22.2456 105.102 22.5304 105.102 23.0663C105.102 23.6134 105.578 23.9318 106.233 23.9318C106.424 23.9511 106.618 23.9318 106.802 23.875C106.986 23.8182 107.157 23.725 107.304 23.601C107.452 23.477 107.572 23.3248 107.66 23.1533C107.747 22.9818 107.798 22.7946 107.811 22.6029Z" fill="white"/>
<path d="M110.59 21.7994C110.59 19.8786 111.58 18.6617 113.121 18.6617C113.501 18.6442 113.88 18.7352 114.211 18.9241C114.542 19.1129 114.812 19.3919 114.99 19.7282H115.08V16.3895H116.283V24.8415H115.13V23.8811H115.035C114.843 24.2152 114.563 24.4907 114.226 24.6776C113.889 24.8646 113.506 24.9559 113.121 24.9417C111.57 24.9418 110.59 23.7249 110.59 21.7994ZM111.833 21.7994C111.833 23.0888 112.442 23.8647 113.462 23.8647C114.476 23.8647 115.102 23.0776 115.102 21.8047C115.102 20.5378 114.469 19.7395 113.462 19.7395C112.449 19.7395 111.833 20.5206 111.833 21.7994H111.833Z" fill="white"/>
<path d="M121.26 21.7993C121.222 21.3998 121.268 20.9967 121.395 20.6159C121.522 20.2351 121.727 19.885 121.998 19.588C122.269 19.2911 122.599 19.0538 122.967 18.8914C123.335 18.729 123.733 18.6452 124.135 18.6452C124.538 18.6452 124.936 18.729 125.304 18.8914C125.672 19.0538 126.002 19.2911 126.272 19.588C126.543 19.885 126.748 20.2351 126.876 20.6159C127.003 20.9967 127.048 21.3998 127.01 21.7993C127.049 22.1992 127.004 22.6028 126.877 22.9842C126.75 23.3656 126.545 23.7164 126.274 24.0139C126.004 24.3115 125.673 24.5493 125.305 24.712C124.937 24.8747 124.538 24.9588 124.135 24.9588C123.732 24.9588 123.334 24.8747 122.965 24.712C122.597 24.5493 122.267 24.3115 121.996 24.0139C121.725 23.7164 121.52 23.3656 121.393 22.9842C121.267 22.6028 121.221 22.1992 121.26 21.7993ZM125.773 21.7993C125.773 20.4816 125.179 19.711 124.137 19.711C123.091 19.711 122.503 20.4816 122.503 21.7993C122.503 23.1275 123.092 23.8922 124.137 23.8922C125.179 23.8922 125.773 23.1223 125.773 21.7993Z" fill="white"/>
<path d="M128.624 18.7626H129.783V19.7283H129.872C130.025 19.3814 130.282 19.0907 130.608 18.8965C130.934 18.7024 131.313 18.6145 131.692 18.6452C131.988 18.623 132.286 18.6676 132.563 18.7757C132.84 18.8838 133.089 19.0527 133.292 19.2699C133.494 19.487 133.645 19.7468 133.734 20.0301C133.822 20.3134 133.845 20.6128 133.802 20.9062V24.8415H132.599V21.2075C132.599 20.2306 132.173 19.7447 131.283 19.7447C131.082 19.7354 130.881 19.7696 130.694 19.8449C130.507 19.9203 130.338 20.0351 130.2 20.1814C130.062 20.3277 129.957 20.5021 129.893 20.6927C129.828 20.8832 129.806 21.0853 129.827 21.2852V24.8415H128.624V18.7626Z" fill="white"/>
<path d="M140.599 17.2491V18.7903H141.92V19.8008H140.599V22.9267C140.599 23.5634 140.862 23.8423 141.461 23.8423C141.615 23.8418 141.768 23.8325 141.92 23.8146V24.8139C141.704 24.8524 141.485 24.8729 141.266 24.8752C139.928 24.8752 139.395 24.4058 139.395 23.2338V19.8008H138.427V18.7903H139.395V17.2491H140.599Z" fill="white"/>
<path d="M143.564 16.3895H144.756V19.7395H144.851C145.011 19.3894 145.276 19.097 145.608 18.9021C145.941 18.7073 146.326 18.6194 146.71 18.6505C147.005 18.6345 147.3 18.6836 147.574 18.7944C147.848 18.9052 148.094 19.0748 148.294 19.2913C148.495 19.5077 148.645 19.7656 148.734 20.0466C148.823 20.3276 148.849 20.6247 148.81 20.9168V24.8415H147.605V21.2127C147.605 20.2418 147.152 19.75 146.302 19.75C146.095 19.7331 145.887 19.7615 145.692 19.8331C145.498 19.9047 145.321 20.0179 145.175 20.1647C145.029 20.3115 144.916 20.4883 144.846 20.6829C144.775 20.8775 144.748 21.0851 144.767 21.2912V24.8415H143.564L143.564 16.3895Z" fill="white"/>
<path d="M155.824 23.2002C155.661 23.7558 155.307 24.2364 154.824 24.5579C154.341 24.8794 153.76 25.0213 153.183 24.9589C152.781 24.9695 152.382 24.8927 152.013 24.7341C151.644 24.5754 151.315 24.3386 151.047 24.0401C150.779 23.7415 150.579 23.3884 150.462 23.0053C150.344 22.6221 150.312 22.2181 150.367 21.8212C150.313 21.4231 150.346 21.0182 150.463 20.6339C150.581 20.2496 150.779 19.8948 151.046 19.5937C151.312 19.2925 151.64 19.052 152.008 18.8884C152.376 18.7248 152.775 18.6418 153.178 18.6453C154.874 18.6453 155.897 19.8009 155.897 21.7098V22.1284H151.592V22.1956C151.574 22.4187 151.602 22.6432 151.675 22.8549C151.748 23.0665 151.865 23.2605 152.018 23.4244C152.171 23.5884 152.356 23.7187 152.563 23.807C152.769 23.8953 152.991 23.9396 153.216 23.9371C153.504 23.9716 153.795 23.9199 154.054 23.7887C154.312 23.6574 154.525 23.4526 154.666 23.2002L155.824 23.2002ZM151.592 21.2411H154.672C154.687 21.0371 154.659 20.8322 154.59 20.6395C154.521 20.4468 154.412 20.2707 154.271 20.1224C154.13 19.9741 153.959 19.8569 153.769 19.7783C153.58 19.6998 153.376 19.6617 153.171 19.6663C152.963 19.6637 152.756 19.7027 152.564 19.7809C152.371 19.8591 152.196 19.9751 152.049 20.1218C151.902 20.2686 151.785 20.4432 151.707 20.6355C151.629 20.8277 151.59 21.0336 151.592 21.2411H151.592Z" fill="white"/>
</svg>
