<svg width="146" height="36" fill="none" xmlns="http://www.w3.org/2000/svg">
<path d="m65.232 8.322-7.664 20.414h-3.875L46 8.322h3.582l6.048 16.977 6.078-16.977h3.524zM86.734 12.287c1.272 0 2.408.264 3.406.793 1.018.529 1.81 1.312 2.378 2.35.587 1.038.881 2.291.881 3.76v9.546h-3.318v-9.047c0-1.45-.362-2.555-1.086-3.32-.724-.782-1.713-1.174-2.966-1.174-1.252 0-2.25.392-2.995 1.175-.724.764-1.086 1.87-1.086 3.319v9.047H78.63v-9.047c0-1.45-.362-2.555-1.086-3.32-.724-.782-1.713-1.174-2.966-1.174-1.252 0-2.25.392-2.994 1.175-.725.764-1.087 1.87-1.087 3.319v9.047H67.15V12.55h3.347v1.85a5.566 5.566 0 0 1 2.085-1.556 6.607 6.607 0 0 1 2.701-.558c1.292 0 2.447.274 3.465.822a5.62 5.62 0 0 1 2.349 2.38c.489-.98 1.252-1.753 2.29-2.32a6.683 6.683 0 0 1 3.347-.882zM95.662 20.57c0-1.625.332-3.064.998-4.318.685-1.253 1.605-2.222 2.76-2.907 1.174-.706 2.466-1.058 3.876-1.058 1.272 0 2.378.255 3.317.764.96.49 1.723 1.106 2.291 1.85v-2.35h3.376v16.185h-3.376v-2.409c-.568.764-1.341 1.4-2.32 1.91-.979.508-2.094.763-3.347.763a7.186 7.186 0 0 1-3.817-1.057c-1.155-.725-2.075-1.724-2.76-2.996-.666-1.293-.998-2.752-.998-4.377zm13.242.059c0-1.116-.235-2.086-.705-2.908-.45-.823-1.047-1.45-1.791-1.88a4.723 4.723 0 0 0-2.408-.646c-.861 0-1.664.215-2.407.646-.744.411-1.351 1.028-1.82 1.85-.451.803-.676 1.763-.676 2.88 0 1.115.225 2.094.675 2.936.47.842 1.077 1.488 1.821 1.939.763.43 1.566.646 2.407.646.862 0 1.664-.215 2.408-.646.744-.43 1.341-1.058 1.791-1.88.47-.842.705-1.821.705-2.937zM122.196 20.658l7.458 8.078h-4.521l-5.99-6.962v6.962h-3.347V7h3.347v12.63l5.872-7.079h4.639l-7.458 8.107zM146 20.247c0 .607-.039 1.155-.117 1.645h-12.362c.098 1.292.578 2.33 1.439 3.113.861.784 1.918 1.175 3.171 1.175 1.801 0 3.073-.754 3.817-2.261h3.612c-.49 1.488-1.38 2.712-2.672 3.671-1.273.94-2.858 1.41-4.757 1.41-1.546 0-2.936-.343-4.169-1.028a7.683 7.683 0 0 1-2.878-2.937c-.685-1.273-1.027-2.742-1.027-4.406 0-1.665.333-3.123.998-4.377.685-1.272 1.635-2.252 2.848-2.937 1.233-.685 2.643-1.028 4.228-1.028 1.527 0 2.887.333 4.081.999a7.035 7.035 0 0 1 2.79 2.82c.665 1.194.998 2.574.998 4.141zm-3.494-1.057c-.02-1.234-.46-2.223-1.321-2.967-.862-.744-1.928-1.116-3.201-1.116-1.155 0-2.143.372-2.965 1.116-.822.725-1.312 1.713-1.468 2.967h8.955z" fill="#242428"/><path d="M12.177 0h11.64c4.122 0 5.28 0 7.054.598A7.608 7.608 0 0 1 35.4 5.126c.6 1.773.6 2.932.6 7.055v11.638c0 4.125 0 5.28-.596 7.057a7.615 7.615 0 0 1-4.528 4.528C29.1 36 27.944 36 23.82 36H12.177c-4.123 0-5.28 0-7.055-.596a7.615 7.615 0 0 1-4.529-4.528C0 29.099 0 27.944 0 23.819V12.181C0 8.058 0 6.9.598 5.126A7.608 7.608 0 0 1 5.126.598C6.89 0 8.054 0 12.176 0z" fill="#000"/><path fill-rule="evenodd" clip-rule="evenodd" d="M7.476 7.931a4.14 4.14 0 0 1 5.653 1.525l8.28 14.4a4.14 4.14 0 1 1-7.178 4.128l-8.28-14.4A4.14 4.14 0 0 1 7.476 7.93z" fill="url(#a)"/><path d="M29.057 7.74c1.729 0 2.812 1.869 1.952 3.369l-4.577 7.985c-.864 1.508-3.04 1.508-3.904 0L17.95 11.11c-.86-1.5.223-3.37 1.952-3.37h9.154z" fill="#00FFD4"/><defs><linearGradient id="a" x1="8.374" y1="9.179" x2="17.902" y2="26.891" gradientUnits="userSpaceOnUse"><stop offset=".385" stop-color="#fff"/><stop offset="1" stop-color="#A199FF"/></linearGradient></defs>
</svg>
