<svg width="190" height="64" viewBox="0 0 190 64" fill="none" xmlns="http://www.w3.org/2000/svg">
<rect width="190" height="64" rx="8" fill="black"/>
<path d="M28.2108 17.118C27.831 17.5757 27.6396 18.1601 27.6754 18.7531V44.6761C27.6397 45.2716 27.8332 45.8583 28.2162 46.3166L28.2981 46.3993L28.3056 46.3907M28.2108 17.118L42.8603 31.7146M28.2108 17.118L28.3013 17.031C28.6381 16.7725 29.0515 16.6331 29.4765 16.6346C29.9015 16.6362 30.6488 17.0396 30.6488 17.0396L47.8192 26.7674L47.8138 26.7728M47.8138 26.7728L53.5548 30.0258C55.1999 30.9508 55.1999 32.4752 53.5548 33.412L47.8278 36.6586H47.831L30.6606 46.3875C29.9658 46.9289 28.9951 46.9246 28.3056 46.3907M47.8138 26.7728L42.8603 31.7146M47.8138 26.7728L47.7836 26.7567L47.678 26.6976L42.8603 31.5502L28.3013 17.032M28.3056 46.3907L42.8603 31.8897L47.678 36.7305L47.8073 36.6714L47.8289 36.6607H47.8192L42.8603 31.7146M28.3056 46.3907L28.3045 46.3918L28.2151 46.3166L42.8603 31.7146" stroke="white" stroke-width="1.22966"/>
<path d="M94.3261 34.8323C93.3393 34.837 92.3761 35.133 91.5579 35.6831C90.7397 36.2331 90.1033 37.0125 89.7288 37.9229C89.3544 38.8334 89.2588 39.834 89.4541 40.7985C89.6494 41.763 90.1268 42.6482 90.8262 43.3425C91.5255 44.0367 92.4153 44.5088 93.3834 44.6991C94.3516 44.8895 95.3545 44.7897 96.2658 44.4122C97.177 44.0347 97.9557 43.3965 98.5036 42.5781C99.0515 41.7598 99.344 40.7979 99.3443 39.8139C99.3541 39.1551 99.2308 38.5011 98.9818 37.8908C98.7328 37.2805 98.3632 36.7264 97.8949 36.2616C97.4267 35.7967 96.8694 35.4306 96.2562 35.1851C95.6431 34.9395 94.9867 34.8196 94.3261 34.8323ZM94.3261 42.837C93.719 42.8795 93.1131 42.7388 92.5873 42.4333C92.0614 42.1278 91.6399 41.6716 91.3775 41.1241C91.1152 40.5765 91.024 39.9629 91.1161 39.363C91.2081 38.7631 91.479 38.2046 91.8935 37.7603C92.3081 37.316 92.8471 37.0063 93.4404 36.8716C94.0338 36.7368 94.6542 36.7832 95.2207 37.0047C95.7873 37.2262 96.274 37.6126 96.6175 38.1136C96.9609 38.6146 97.1453 39.207 97.1465 39.8139C97.1653 40.1982 97.1068 40.5825 96.9743 40.9439C96.8419 41.3053 96.6383 41.6367 96.3754 41.9184C96.1126 42.2001 95.7959 42.4266 95.4439 42.5843C95.0919 42.7421 94.7119 42.828 94.3261 42.837ZM83.3848 34.8334C82.3975 34.8357 81.433 35.1298 80.6133 35.6785C79.7935 36.2272 79.1552 37.0059 78.779 37.9161C78.4028 38.8264 78.3055 39.8274 78.4996 40.7928C78.6936 41.7581 79.1702 42.6444 79.8692 43.3398C80.5682 44.0351 81.4581 44.5083 82.4266 44.6995C83.3951 44.8908 84.3987 44.7914 85.3107 44.4141C86.2226 44.0368 87.0019 43.3985 87.5502 42.5797C88.0985 41.7609 88.3911 40.7984 88.3911 39.8139C88.4009 39.1551 88.2777 38.5011 88.0287 37.8908C87.7797 37.2805 87.41 36.7264 86.9418 36.2616C86.4735 35.7967 85.9162 35.4306 85.3031 35.1851C84.69 34.9395 84.0335 34.8196 83.3729 34.8323H83.3837L83.3848 34.8334ZM83.3848 42.837C82.7774 42.8819 82.1705 42.7433 81.6432 42.4394C81.1159 42.1355 80.6926 41.6803 80.4283 41.1331C80.1641 40.5859 80.0712 39.972 80.1618 39.3714C80.2523 38.7709 80.5221 38.2114 80.936 37.7658C81.35 37.3203 81.8888 37.0094 82.4824 36.8735C83.0761 36.7377 83.6969 36.7832 84.2642 37.0042C84.8315 37.2252 85.319 37.6114 85.663 38.1126C86.0071 38.6137 86.1919 39.2066 86.1934 39.8139C86.2122 40.1982 86.1536 40.5825 86.0212 40.9439C85.8888 41.3053 85.6851 41.6367 85.4223 41.9184C85.1595 42.2001 84.8427 42.4266 84.4908 42.5843C84.1388 42.7421 83.7587 42.828 83.3729 42.837H83.3837H83.3848ZM70.3513 36.3686V38.4775H75.4277C75.3485 39.4712 74.9346 40.409 74.2534 41.1385C73.7454 41.6545 73.1347 42.0587 72.4606 42.3251C71.7866 42.5916 71.064 42.7143 70.3395 42.6855C68.8433 42.6855 67.4084 42.0928 66.3504 41.0378C65.2924 39.9828 64.6981 38.5519 64.6981 37.0599C64.6981 35.5679 65.2924 34.137 66.3504 33.082C67.4084 32.027 68.8433 31.4343 70.3395 31.4343C71.7706 31.411 73.1525 31.9546 74.1823 32.9459L75.6755 31.4579C74.9803 30.7559 74.1508 30.2002 73.2363 29.8238C72.3217 29.4473 71.3407 29.2578 70.3513 29.2663C69.3077 29.2276 68.2669 29.3991 67.2912 29.7706C66.3155 30.1421 65.425 30.706 64.6729 31.4286C63.9208 32.1512 63.3225 33.0176 62.9139 33.9761C62.5052 34.9345 62.2946 35.9653 62.2946 37.0067C62.2946 38.0482 62.5052 39.079 62.9139 40.0374C63.3225 40.9958 63.9208 41.8623 64.6729 42.5849C65.425 43.3074 66.3155 43.8714 67.2912 44.2429C68.2669 44.6144 69.3077 44.7859 70.3513 44.7471C71.3573 44.7925 72.3613 44.6225 73.2958 44.2485C74.2304 43.8746 75.0737 43.3054 75.7692 42.5792C77.0004 41.2304 77.6579 39.4572 77.6028 37.6341C77.6063 37.1898 77.5666 36.7462 77.4843 36.3095L70.3513 36.3686ZM123.602 38.0091C123.296 37.1097 122.723 36.3244 121.959 35.7572C121.195 35.1899 120.276 34.8674 119.324 34.8323C118.681 34.8311 118.045 34.9613 117.455 35.2151C116.864 35.4688 116.332 35.8406 115.891 36.3075C115.451 36.7744 115.111 37.3265 114.893 37.9296C114.674 38.5327 114.583 39.174 114.623 39.8139C114.609 40.4689 114.727 41.1201 114.971 41.7285C115.214 42.337 115.579 42.8902 116.042 43.355C116.505 43.8199 117.057 44.187 117.665 44.4343C118.274 44.6816 118.926 44.8041 119.583 44.7944C121.253 44.8041 122.815 43.9758 123.743 42.5921L122.039 41.4189C121.785 41.842 121.425 42.1919 120.994 42.4345C120.564 42.677 120.077 42.8039 119.583 42.8026C119.074 42.8219 118.571 42.6879 118.139 42.4182C117.707 42.1484 117.367 41.7553 117.162 41.29L123.849 38.5365L123.601 38.0091H123.602ZM116.786 39.6732C116.762 39.3107 116.811 38.9471 116.93 38.6037C117.049 38.2603 117.235 37.944 117.478 37.6733C117.721 37.4026 118.015 37.1829 118.344 37.0271C118.674 36.8713 119.03 36.7826 119.394 36.7661C119.774 36.7411 120.152 36.8278 120.482 37.0154C120.812 37.2029 121.08 37.4831 121.252 37.8211L116.786 39.6732ZM111.356 44.5011H113.554V29.8529H111.356V44.5022V44.5011ZM107.759 35.9464H107.677C107.346 35.577 106.94 35.2817 106.487 35.0797C106.033 34.8777 105.541 34.7737 105.044 34.7743C103.758 34.8339 102.544 35.3853 101.655 36.314C100.766 37.2427 100.27 38.4773 100.27 39.7613C100.27 41.0452 100.766 42.2798 101.655 43.2085C102.544 44.1372 103.758 44.6887 105.044 44.7482C105.542 44.7566 106.036 44.656 106.491 44.4535C106.946 44.251 107.351 43.9515 107.677 43.5761H107.747V44.2905C107.747 46.2007 106.725 47.2202 105.08 47.2202C104.532 47.2072 104 47.0321 103.553 46.717C103.105 46.4019 102.761 45.9612 102.565 45.4508L100.649 46.2479C101.01 47.1227 101.624 47.87 102.414 48.3941C103.203 48.9182 104.132 49.1951 105.08 49.1894C107.655 49.1894 109.781 47.6778 109.781 43.9973V35.1256H107.759V35.9464ZM105.245 42.837C104.486 42.7716 103.779 42.4247 103.264 41.8649C102.749 41.3051 102.463 40.573 102.463 39.8134C102.463 39.0537 102.749 38.3217 103.264 37.7619C103.779 37.202 104.486 36.8552 105.245 36.7897C105.621 36.809 105.989 36.9031 106.328 37.0665C106.667 37.2298 106.969 37.4592 107.218 37.741C107.466 38.0229 107.656 38.3515 107.775 38.7075C107.894 39.0635 107.941 39.4397 107.912 39.8139C107.944 40.1897 107.9 40.568 107.781 40.9261C107.662 41.2841 107.472 41.6145 107.221 41.897C106.971 42.1796 106.665 42.4086 106.324 42.5702C105.982 42.7318 105.611 42.8225 105.233 42.837H105.244H105.245ZM133.897 29.8529H128.644V44.5022H130.842V38.948H133.909C134.536 38.9931 135.165 38.9089 135.757 38.7008C136.35 38.4927 136.893 38.1651 137.353 37.7384C137.812 37.3117 138.179 36.7951 138.43 36.2208C138.681 35.6465 138.81 35.0268 138.81 34.4005C138.81 33.7741 138.681 33.1544 138.43 32.5801C138.179 32.0058 137.812 31.4892 137.353 31.0625C136.893 30.6359 136.35 30.3082 135.757 30.1001C135.165 29.892 134.536 29.8079 133.909 29.8529H133.898H133.897ZM133.897 36.8853H130.83V31.892H133.944C134.275 31.892 134.602 31.957 134.908 32.0833C135.214 32.2096 135.492 32.3948 135.726 32.6283C135.96 32.8617 136.146 33.1388 136.273 33.4438C136.399 33.7488 136.465 34.0757 136.465 34.4058C136.465 34.736 136.399 35.0629 136.273 35.3679C136.146 35.6729 135.96 35.95 135.726 36.1834C135.492 36.4169 135.214 36.602 134.908 36.7284C134.602 36.8547 134.275 36.9197 133.944 36.9197L133.897 36.8853ZM147.448 34.7754C146.648 34.7279 145.851 34.9144 145.156 35.3122C144.461 35.7099 143.898 36.3015 143.535 37.0143L145.485 37.8221C145.677 37.4686 145.969 37.1785 146.324 36.9871C146.678 36.7958 147.081 36.7115 147.483 36.7446C147.762 36.7121 148.045 36.7354 148.315 36.813C148.585 36.8906 148.836 37.021 149.055 37.1966C149.274 37.3722 149.456 37.5894 149.589 37.8357C149.723 38.082 149.806 38.3524 149.834 38.6311V38.7836C149.128 38.4108 148.341 38.2175 147.543 38.2207C145.439 38.2207 143.311 39.3928 143.311 41.5145C143.332 41.9668 143.443 42.4104 143.639 42.819C143.835 43.2276 144.11 43.5929 144.45 43.8934C144.79 44.1938 145.186 44.4233 145.617 44.5683C146.047 44.7133 146.502 44.7708 146.954 44.7375C147.508 44.7768 148.062 44.667 148.558 44.4193C149.054 44.1717 149.475 43.7955 149.775 43.3301H149.846V44.5022H151.961V38.8653C151.961 36.2988 150.011 34.8109 147.507 34.8109L147.448 34.7754ZM147.179 42.8037C146.461 42.8037 145.462 42.4395 145.462 41.5607C145.462 40.3897 146.708 40.003 147.813 40.003C148.511 39.9859 149.201 40.1558 149.81 40.495C149.737 41.1294 149.436 41.7159 148.963 42.1464C148.49 42.577 147.877 42.8226 147.237 42.8381L147.177 42.8037H147.179ZM159.671 35.1267L157.156 41.4791H157.086L154.476 35.1267H152.126L156.039 44.0112L153.806 48.9444H156.098L162.116 35.1267H159.67H159.671ZM139.915 44.5022H142.113V29.8529H139.915V44.5022ZM67.0773 22.2608L66.4719 20.5064H63.9466L63.3358 22.2608H62.28L64.6717 15.6538H65.7792L68.1708 22.2608H67.0773ZM65.1726 16.8538L64.2084 19.647H66.2101L65.2513 16.8538H65.1726ZM73.4411 17.2749L71.642 22.2597H70.5808L68.7763 17.2749H69.8321L71.0764 21.2069H71.155L72.3939 17.2749H73.4411ZM76.0762 21.5141C76.8196 21.5141 77.3701 21.0425 77.3701 20.4248V20.008L76.1495 20.0853C75.46 20.1315 75.1487 20.3646 75.1487 20.8051C75.1487 21.2531 75.5386 21.5141 76.0752 21.5141H76.0762ZM75.8231 22.3424C74.8589 22.3424 74.1575 21.7623 74.1575 20.8502C74.1575 19.9532 74.8276 19.4354 76.0159 19.3623L77.3701 19.285V18.8552C77.3701 18.3278 77.0221 18.0302 76.3466 18.0302C75.7961 18.0302 75.4148 18.2321 75.3049 18.5845H74.3493C74.4506 17.7283 75.2585 17.1782 76.393 17.1782C77.6459 17.1782 78.3537 17.8013 78.3537 18.8542V22.2597H77.4024V21.5603H77.3249C77.0264 22.0588 76.4802 22.3424 75.8231 22.3424ZM79.7768 22.2608V17.2749H80.7583V22.2597H79.7758L79.7768 22.2608ZM80.267 16.4004C79.9007 16.4004 79.6292 16.1394 79.6292 15.801C79.6292 15.4572 79.8997 15.1961 80.267 15.1961C80.6344 15.1961 80.9059 15.4572 80.9059 15.801C80.9059 16.1394 80.6344 16.4004 80.267 16.4004ZM82.2558 22.2608V15.3283H83.2426V22.2597H82.2558V22.2608ZM86.355 21.5141C87.0983 21.5141 87.6499 21.0425 87.6499 20.4248V20.008L86.4282 20.0853C85.7387 20.1315 85.4274 20.3646 85.4274 20.8051C85.4274 21.2531 85.8174 21.5141 86.355 21.5141ZM86.1029 22.3424C85.1387 22.3424 84.4363 21.7623 84.4363 20.8502C84.4363 19.9532 85.1064 19.4354 86.2957 19.3623L87.6499 19.285V18.8552C87.6499 18.3278 87.3009 18.0302 86.6265 18.0302C86.0749 18.0302 85.6935 18.2321 85.5836 18.5845H84.6291C84.7293 17.7283 85.5373 17.1782 86.6717 17.1782C87.9246 17.1782 88.6324 17.8013 88.6324 18.8542V22.2597H87.6812V21.5603H87.6036C87.3052 22.0588 86.759 22.3424 86.1029 22.3424ZM92.6853 22.3424C91.9883 22.3424 91.4044 22.0223 91.106 21.4722H91.0327V22.2608H90.0825V15.3283H91.0693V18.0656H91.148C91.4141 17.5209 92.0012 17.1911 92.6853 17.1911C93.9533 17.1911 94.7516 18.1795 94.7516 19.7641C94.7516 21.3433 93.948 22.3424 92.6853 22.3424ZM92.4009 18.0764C91.5746 18.0764 91.0564 18.7263 91.051 19.7695C91.0564 20.8137 91.5703 21.4594 92.4009 21.4594C93.2369 21.4594 93.7368 20.8223 93.7368 19.7652C93.7368 18.7166 93.2369 18.0764 92.4009 18.0764ZM95.9819 22.2608V15.3283H96.9688V22.2597H95.9819V22.2608ZM100.499 18.0173C99.7698 18.0173 99.2602 18.5297 99.2053 19.3075H101.729C101.707 18.5243 101.23 18.0162 100.499 18.0162V18.0173ZM101.725 20.9147H102.675C102.45 21.8064 101.652 22.3564 100.509 22.3564C99.076 22.3564 98.1991 21.3766 98.1991 19.7834C98.1991 18.1902 99.0943 17.1782 100.505 17.1782C101.894 17.1782 102.735 18.1269 102.735 19.6921V20.0359H99.2053V20.0896C99.2376 20.9652 99.7461 21.5184 100.536 21.5184C101.133 21.5184 101.542 21.3036 101.725 20.9147ZM108.603 22.3564C107.138 22.3564 106.243 21.3809 106.243 19.7652C106.243 18.158 107.142 17.1782 108.603 17.1782C110.057 17.1782 110.958 18.158 110.958 19.7652C110.958 21.3809 110.063 22.3564 108.603 22.3564ZM108.603 21.4819C109.456 21.4819 109.943 20.8502 109.943 19.7652C109.943 18.6844 109.456 18.0527 108.603 18.0527C107.744 18.0527 107.262 18.6844 107.262 19.7652C107.262 20.8545 107.744 21.4819 108.603 21.4819ZM112.142 22.2608V17.2749H113.092V18.0667H113.165C113.409 17.5134 113.904 17.1782 114.657 17.1782C115.773 17.1782 116.389 17.8475 116.389 19.0325V22.2608H115.402V19.2796C115.402 18.4792 115.053 18.0807 114.322 18.0807C113.593 18.0807 113.129 18.5662 113.129 19.344V22.2608H112.142Z" fill="white"/>
</svg>
