<svg width="17" height="16" viewBox="0 0 17 16" fill="none" xmlns="http://www.w3.org/2000/svg">
<path d="M7.40096 0.912128C7.74255 0.090836 8.906 0.0908357 9.2476 0.912128L10.7347 4.48766C10.8788 4.8339 11.2044 5.07047 11.5782 5.10043L15.4382 5.4099C16.3249 5.48098 16.6844 6.58749 16.0089 7.16615L13.0679 9.68542C12.7831 9.92937 12.6587 10.3121 12.7458 10.6769L13.6443 14.4437C13.8507 15.3089 12.9094 15.9928 12.1503 15.5291L8.84553 13.5106C8.52552 13.3151 8.12304 13.3151 7.80303 13.5106L4.49825 15.5291C3.73915 15.9928 2.7979 15.3089 3.00429 14.4437L3.9028 10.6769C3.98981 10.3121 3.86544 9.92937 3.58065 9.68542L0.639671 7.16616C-0.035866 6.58749 0.32366 5.48098 1.21031 5.4099L5.0704 5.10043C5.44419 5.07047 5.7698 4.8339 5.91381 4.48766L7.40096 0.912128Z" fill="url(#paint0_linear_1986_21041)"/>
<defs>
<linearGradient id="paint0_linear_1986_21041" x1="8.32428" y1="-1.3078" x2="8.32428" y2="18.6922" gradientUnits="userSpaceOnUse">
<stop offset="0.28598" stop-color="#F7D799"/>
<stop offset="1" stop-color="#D8BD78"/>
</linearGradient>
</defs>
</svg>
